<?xml version="1.0" encoding="utf-8"?>
<!-- Generator: Adobe Illustrator 18.1.1, SVG Export Plug-In . SVG Version: 6.00 Build 0)  -->
<svg version="1.1" id="Isolation_Mode" xmlns="http://www.w3.org/2000/svg" xmlns:xlink="http://www.w3.org/1999/xlink" x="0px"
	 y="0px" viewBox="48 197 708 400" enable-background="new 48 197 708 400" xml:space="preserve">
<g transform="scale(0.7937679279066664) translate(-6.550488334433174, 31.60965764740412)">
	<path fill="#C6E4EA" d="M712.3,478.4l-0.6-2l-1.4-1.7l-2.3-0.1l-0.4,0.5l0.2,0.9l-0.5,1l-0.7-0.4l-0.7,0.4l-1.2-0.4l-0.4-2
		l-0.8-1.9l0.4-1.5l-0.2-0.5l-1.1-0.5l0.3-0.5l1.5-0.9l0-0.6l-1.5-1.2l0.5-1.1l1.6,0.9l1,0.1l0.2,1.5l0.3,0.4l5.6,0.6l-0.8,1.6
		l-1.2,0.3l-0.8,1.5l0.1,0.5l1.4,1.4l0.7-0.2l0.4-1.4l1.2,3.8l0,1.2l-0.3-0.1L712.3,478.4L712.3,478.4z"/>
	<path fill="#C6E4EA" d="M489.8,392.2l1.9,0.2l2.1-0.6l2.6,2l-0.2,1.7l-0.7,0.4l-0.2,1.2l-1.7-1.1l-1.4,0.1l-2.7-2.7l-1.2-0.2
		l-0.2-0.5L489.8,392.2L489.8,392.2z"/>
	<path fill="#C6E4EA" d="M481.9,495.8l-0.1,0.9l0.3,1.2l1.4,1.7l0.1,1.1l0.3,0.4l2.5,0.5l0,1.3l-0.4,0.5l-1.1,0.2l-0.7,1.2l-0.6,0.2
		l-3.2-0.2l-0.9,0.4l-5.4,0l-0.4,0.4l0.2,2.7l-1.2-0.4l-1.2,0.1l-0.9,0.6l-2.3-1.7l-0.1-1.1l0.6-1l0-0.9l1.9-2l0.4-1.8l0.4-0.4
		l1.3,0.3l1-0.5l0.5-0.7l1.8-1.1l0.5-0.8l2.2-1l1.1-0.3l0.7,0.4L481.9,495.8L481.9,495.8z"/>
	<path fill="#C6E4EA" d="M552.1,416.4l-0.9,0.9l-0.9,2.2l0.5,1.3l-1.6-0.2l-2.5,1l-0.3,1.5l-1.8,0.2l-2-1l-1.9,0.8l-1.4-0.1
		l-0.2-1.6l-1-1v-0.8l1.2-1.6l0-0.6l-1.1-1.2l0-0.9l0.9,1l0.9-0.2l1.9,0.5l3.7,0.2l1.4-0.8l2.7-0.7L552.1,416.4L552.1,416.4z"/>
	<path fill="#C6E4EA" d="M524,411.8l2.1,0.5l1.7,0l1.5,0.7l-0.4,0.8l0.1,0.5l1,1l-0.2,1l-1.8,1.1l-0.4,1.4l-1.7-0.9l-0.9-1.2
		l-2.1-1.8l-1.6-2.2l0.2-0.6l0.5,0.4l0.5-0.1l0.4-0.5L524,411.8L524,411.8z"/>
	<path fill="#C6E4EA" d="M768,521.8l0.7-0.6l1.4-0.9l-0.2,1.6l-0.8,0l-0.6,0.6L768,521.8L768,521.8z"/>
	<path fill="#C6E4EA" d="M324.3,588.9l-3.1-0.2l-0.4,0.2l-0.7,1.5l-1.3-1.5l-3.3-0.6l-2.4,2.4l-1.3,0.3l-0.9-3.3l-1.3-2.9l0.7-2.4
		l-0.1-0.4l-1.2-1l-0.4-1.9l-1.1-1.5l1.5-2.6l-1-2.3l0.5-1.1l-0.3-0.7l0.9-1.3l0.2-3.8l0.5-1.2l-1.8-3.4l2.5,0.1l0.8-0.8l3.4-1.9
		l2.7-0.3l-0.2,1.4l0.3,1.1l0,2l2.7,2.3l2.9,0.5l0.9,0.9l1.8,0.6l1,0.7l1.7,0l1.2,0.6l0.6,2.7l-0.7,0.5l1,3l0.4,0.3l4.3,0.1
		l-0.2,1.2l0.3,1l1.4,0.9l0.5,1.4l-0.4,1.9L336,582l0.1,1.4l-2.7-1.7l-2.4,0l-4.4,0.8l-1.5,2.5l-0.1,1.5L324.3,588.9L324.3,588.9z"
		/>
	<path fill="#C6E4EA" d="M841.6,415.1l1.8,0.7l1.6-1l0.4,2.4l-3.3,0.8l-2.2,2.9l-3.6-1.9l-0.6,0.2l-1.3,3.1l-2.2,0l-0.3-2.5l1.1-2
		l2.5-0.2l0.4-0.3l1.2-5.9l2.5,2.7L841.6,415.1L841.6,415.1z M834,435.5l-0.9,2.2l0.4,1.5l-1.1,1.8l-3,1.3l-4.6,0.3l-3.3,3l-1.2-0.8
		l-0.1-1.9l-0.5-0.4l-4.3,0.6l-3,1.3l-2.8,0l-0.4,0.3l0.1,0.4l2.3,1.9l-1.5,4.3l-1.3,0.9l-0.8-0.7l0.6-2.3l-0.2-0.4l-1.5-0.8
		l-0.7-1.4l2.1-0.8l1.3-1.7l2.5-1.4l1.8-1.9l4.8-0.8l2.6,0.6l0.4-0.2l2.4-4.7l1.3,1.1l0.5,0l5.1-4l1.7-3.7l-0.4-3.4l0.9-1.6l2.1-0.4
		l1.2,3.7l-0.1,2.2l-2.2,2.8L834,435.5L834,435.5z M818.3,444.4l0.2,0.6l-1,1.2l-1.2-0.7l-1.3,0.6l-0.7,1.5l-1-0.5l0-0.9l1.1-1.4
		l1.6,0.1l0.8-1L818.3,444.4L818.3,444.4z"/>
	<path fill="#C6E4EA" d="M555.9,543.7l-1.1-3l1.1-0.1l0.6-1.2l0.8,0.1l0.6,1.8L555.9,543.7L555.9,543.7z"/>
	<path fill="#C6E4EA" d="M490,503.9l0,0.8l0.5,1.3l-0.4,0.9l0.2,0.8l-1.8,2.1l-0.6,1.8l-0.1,5.4l-1.4,0.2l-0.5-1.4l0.1-5.7l-0.5-0.7
		l-0.2-1.4l-1.5-1.5l0.2-0.9l0.9-0.4l0.4-0.9l1.3-0.4l1.2-1.3h0.6L490,503.9L490,503.9z"/>
	<path fill="#C6E4EA" d="M710.8,462l0.8,0.7l-0.1,1.1l-3.8-0.1l-1.6,0.4l-1.9-0.9l1.5-2l1.1-0.6l1.6,0.6l1.3,0.1L710.8,462
		L710.8,462z"/>
	<path fill="#C6E4EA" d="M288.9,487.5l-0.8,0.4l-2.3-1.1l0.8-0.2l2.1,0.3l1.2,0.6L288.9,487.5L288.9,487.5z"/>
	<path fill="#C6E4EA" d="M544.4,578.3l2.3,4l2.8,2.9l1,0.3l0.8,2.4l2.1,0.6l1,0.8l-3,1.6l-2.3,2l-1.5,2.7L546,596l-0.6,1.9l-1.3,0.5
		l-1.9-0.1l-1.2-0.7l-1.4-0.3l-1.2,0.6l-0.8,1.4l-2.3,1.9l-1.4,0.2l-0.3-0.6l0.2-1.8l-1.5-2.5l-0.6-0.4V589l2.1-0.1l0.4-0.4l0.1-8.9
		l5.2-0.9l0.8,0.9l0.5,0.1l1.5-1L544.4,578.3L544.4,578.3z"/>
	<path fill="#30600A" d="M320.5,523.2l3.2,0.7l0.6-0.5l4.5-1.3l1.1-1.1l0-0.6l0.5,0l0.3,0.3l-0.3,0.9l0.2,0.5l0.7,0.3l0.4,0.8
		l-0.6,0.9l-0.4,2.1l0.8,2.6l1.7,1.4l1.4,0.2l3.2-1.7l3.2,0.3l0.6-0.8l-0.3-0.9l1.9-0.1l2.4,1l1.1-0.6l0.8,0.8l1.2-0.2l1.2-1.1
		l0.8-1.9l1.4-2.1l0.4,0l1.9,5.5l1.3,0.6l0,1.3l-1.8,1.9l0,0.6l1,0.9l4.1,0.4l0.1,2.2l0.7,0.3l1.7-1.5l7,2.3l1,1.2l-0.4,1.2l0.5,0.5
		l2.8-0.7l4.8,1.3l3.8-0.1l3.6,2l3.3,2.9l1.9,0.7l2.1,0.1l0.7,0.6l1.2,4.5l-1,4l-4.7,5.1l-1.6,2.9l-1.7,2l-0.8,0.3l-0.7,2l0.2,4.7
		l-0.9,5.5l-0.8,1.1l-0.4,3.4l-2.5,3.5l-0.4,2.5l-1.9,1l-0.7,1.5l-2.5,0l-3.9,1l-1.8,1.2l-2.9,0.8l-3,2.2l-2.2,2.8l-0.4,2l0.4,1.6
		l-0.4,2.6l-0.5,1.2l-1.8,1.5l-2.8,4.8l-3.8,3.4l-1.2,2.7l-1.2,1.1l-0.4-0.8l1-1.1l0-0.5l-1.5-2l-4.6-3.3h-1l-2.4-2h-0.8l5.3-5.5
		l3.8-2.6l0.2-2.5l-1.4-1.8l-0.9,0.1l0.6-2.3l0-1.5l-1.1-0.8l-1.8,0.3l-0.4-3.1l-0.5-1l-1.9-0.9l-1.2,0.5l-2.2-0.4l0.1-3.2l-0.6-1.3
		l0.7-0.7l-0.2-1.3l0.7-1.1l0.4-2l-0.6-1.8l-1.4-0.9l-0.2-0.8l0.3-1.4l-0.4-0.5l-4.5-0.1l-0.7-2.2l0.6-0.4l0-1.1l-0.5-0.9l-0.3-1.7
		l-1.5-0.8l-1.6,0l-1-0.7l-1.6-0.5l-1.1-1l-2.7-0.4l-2.5-2.1l0.1-4.4l-0.5-0.5l-3.5,0.5l-3.4,1.9l-0.6,0.7l-2.9-0.2l-1.5,0.4
		l-0.7-0.2l0.1-3.5l-0.6-0.3l-1.9,1.4l-1.9-0.1l-0.8-1.2l-1.4-0.3l0.2-1l-1.4-1.5l-0.9-1.9l0.6-0.6v-0.8l1.3-0.6l0.2-0.4l-0.2-1.2
		l0.6-0.9l0.1-1l2.6-1.6l2-0.5l0.4-0.4l2.1,0.1l0.4-0.3l1.2-8l-0.4-1.6l-1.1-1l0-1.3l1.9-0.4l0.1-1l-0.3-0.4L307,530l0-0.8l4.5,0
		l0.8-0.7l0.8,1.8l0.8,0.1l1.1,1.1l2.3,0l0.7-0.8l2.8-1l0.5-1.1l1.6-0.6l0.2-0.5l-0.5-0.8l-1.8-0.2L320.5,523.2L320.5,523.2z"/>
	<path fill="#C6E4EA" d="M286.9,472.1l-0.5-1.1l-0.8-0.8l0.4-1.1l1,1.9L286.9,472.1z M286,464.6l-1.9,0.3l0-0.2l0.7-0.1L286,464.6
		L286,464.6z"/>
	<path fill="#C6E4EA" d="M554.3,376.5l0.3,0.7l0.5,0.2l1.2-0.4l2.1,0.7l0.2,1.3l-0.5,1.2l1.6,2.3l0.9,0.6l0.2,0.8l1.6,0.6l0.4,0.5
		l-0.5,0.4l-1.9-0.1l-0.7,0.4l-0.1,0.5l1,2.7l-1.9,0.3l-0.9,1l-0.1,1.2l-2.7,0l-0.5-0.6l-0.5-0.1l-0.8,0.5l-0.9-0.4l-1.9-0.1
		l-2.8-0.8l-2.6-0.3l-2,0.1l-1.5,0.9l-0.7,0.1l-0.1-1.2l-0.6-1.2l1.4-0.9l0-1.4l-0.7-1.4l-0.1-1l2.2,0l2.7-1.3l0.8-2l1.9-1l0.2-0.4
		l-0.2-1.2l3.8-1.8L554.3,376.5L554.3,376.5z"/>
	<path fill="#C6E4EA" d="M258.5,492.6l0.1-4.5l0.7-0.1l0.7-1.3l0.3,0.3l-0.4,1.3l0.2,0.6l-0.3,2.2L258.5,492.6L258.5,492.6z"/>
	<path fill="#D1E870" d="M552,363.4l2.5-1.9l0-0.6l-2.2-1.5l7.3-6.8l1-2.1l-0.1-0.5l-3.5-2.5l0.9-2.7l-2.1-2.8l1.6-3.7l-2.8-4.5
		l2.1-3l-0.1-0.5l-3.7-2.7l0.3-2.5l1.8-0.4l4.3-1.8l2.4-1.5l4.1,2.6l6.8,1l9.3,4.8l1.8,1.9l0.1,2.5l-2.5,2l-3.9,1.1l-11.1-3.1
		l-2.1,0.5l-0.1,0.7l3.9,2.9l0.3,5.9l0.3,0.4l5.1,2.2l0.6-0.3l0.3-1.9l-1.3-1.8l1.1-1.1l6.1,2.4l2.1-1l0.2-0.6l-1.5-2.7l5.4-3.8
		l2.1,0.2l2.3,1.4l0.6-0.2l1.5-2.9l0-0.4l-1.9-2.3l1.1-2.3l-1.3-2.3l5.9,1.2l1,1.8l-2.6,0.4l-0.3,0.4l0,2.4l2.5,1.8l3.9-0.9l0.9-2.8
		L616,326l1,0.1l-1.9,2.1l0.2,0.7l3.1,0.5l2-1.5l4.6-0.1l3.6-1.7l2.7,2.4l0.6,0l2.8-2.9l0-0.6l-2.3-2.3l0.9-1l7.1,1.3l3.4,1.4l9,5
		l0.5-0.1l1.7-2.3l0-0.5l-2.4-2.2l-0.1-0.8l-0.3-0.4l-2.5-0.4l0.6-1.9l-1.3-3.5l-0.1-1.2l4.5-4.1l1.7-4.3l1.6-0.8l6.2,1.2l0.4,2.2
		L661,314l0.1,0.5l1.5,1.4l0.8,3l-0.6,6l2.7,2.8l-1,2.6l-4.9,5.9l0.2,0.6l2.9,0.6l0.4-0.2l0.9-1.4l2.6-1l0.9-2.2l2.1-2l0.1-0.5
		l-1.4-2.3l1.1-2.7l-0.3-0.6l-2.5-0.3l-0.5-2.1l1.9-4.4l-0.1-0.4l-3-3.4l4.1-2.9l0.2-0.4l-0.5-2.9l0.5,0l1.1,2.2l-1,4.3l0.3,0.5
		l2.7,0.8l0.5-0.5l-1-3l3.8-1.7l5-0.2l4.5,2.6l0.5-0.1l0.1-0.5l-2.2-3.8l-0.2-4.7l4-0.9l6,0.2l5.5-0.6l0.3-0.6l-1.8-2.3l2.6-2.9
		l2.9-0.2l4.8-2.5l6.5-0.7l1-1.4l6.2-0.4l2.3,1.1l5.5-2.7l4.5,0.1l0.4-0.3l0.7-2.1l2.3-2.1l5.7-2.1l3.2,1.3l-2.5,0.9l-0.2,0.4
		l0.3,0.4l5.4,0.8l0.6,2.3l0.6,0.2l2.2-1.2l7.1,0.1l5.5,2.5l1.8,1.7l-0.5,2.2l-9.2,4.1l-2,1.5l0.2,0.7l6.8,1.9l2.2-0.8l1.1,2.7
		l0.7,0.1l1-1.2l3.8-0.7l7.7,0.8l0.5,2l0.4,0.3l10.5,0.7l0.4-0.4l0.1-3.2l4.9,0.8l4,0l3.8,2.4l1,2.7l-1.3,1.8l0,0.5l3.2,3.6l4.1,2
		l0.5-0.2l2.2-4.5l4,1.9l4.2-1.2l4.7,1.4l2-1.3l3.9,0.6l0.4-0.5l-1.7-4l2.9-1.8l22.3,3l2.2,2.8l6.5,3.5l10.3-0.8l4.8,0.7l1.8,1.7
		l-0.3,3.1l0.2,0.4l3.1,1.3l3.6-0.9l4.3-0.1l4.8,0.9l4.6-0.5l4.2,3.8l0.4,0.1l3.1-1.4l0.2-0.6l-1.9-2.6l0.8-1.5l7.7,1.2l5.2-0.3
		l7.1,2.1l9.6,5.2l6.3,4.1l-0.2,2.4l1.9,1.4l0.6-0.4l-0.5-2.5l6.2,0.6l4.4,3.5l-2,1.4l-4,0.4l-0.4,0.4l-0.1,3.8l-0.7,0.6l-2.1-0.1
		l-1.9-1.4l-3.1-1.1l-0.8-1.9l-2.7-0.7l-2.6,0.5l-1-1.1l0.5-1.3l-0.5-0.5l-3,1l-0.2,0.6l1,1.7l-1.2,1.5l-3,1.7l-3.1-0.3l-0.4,0.2
		l0.1,0.5l2.2,2.1l1.5,3.2l1.2,1.1l0.2,1.3l-0.4,0.7l-4.6-0.8l-7,2.9l-2.2,0.4l-7.6,5.1l-0.8,1.5l-3.6-2.4l-6.2,2.8l-0.9-1.1
		l-0.5-0.1l-2.3,1.5l-3.2-0.5l-0.4,0.3l-0.8,2.4l-3,3.8l0.1,1.5l0.3,0.4l2.5,0.7l-0.3,4.5l-2,0.1l-0.3,0.3l-1.1,2.9l0.8,1.4
		l-3.9,1.6l-1,3.9l-3.5,0.8l-0.3,0.3l-0.7,3.3l-3.1,2.6l-0.7-1.7l-2.4-12.4l1.2-4.7l2-2.1l0.2-1.6l3.8-0.9l4.5-4.6l4.3-3.8l4.5-3
		l2.2-5.6l-0.4-0.5l-3,0.3l-1.8,3.3l-5.9,3.9l-1.9-4.2l-0.5-0.2l-6.5,1.3l-6.5,6.4l0,0.5l1.6,1.7l-8.2,1.2l0.2-2.2l-0.3-0.4
		l-3.9-0.6l-3.2,1.8l-7.6-0.6l-8.5,1.2l-17.7,15.4l0.2,0.7l3.7,0.4l1.4,2.2l2.4,0.8l1.9-1.7l2.4,0.2l3.4,3.5l0.1,2.6l-2,3.4
		l-0.2,3.9l-1.1,5.1l-3.7,4.5l-0.9,2.2l-8.3,8.9l-3.2,1.7l-1.3,0l-1.5-1.4l-0.5,0l-2.3,1.5l0.4-3.6l-0.6-2.5l1.8-0.9l2.9,0.5
		l0.4-0.2l1.7-3l0.9-3.5l1-1.2l1.3-2.9l-0.5-0.6l-4.1,0.9l-2.2,1.2h-3.4l-1.1-2.9l-3-2.3l-4.3-1.1l-1.8-5.1l-2.7-5l-2.3-1.3l-3.8-1
		l-3.4,0.1l-3.2,0.6l-2.2,1.8l0,0.7l1.2,0.7l0,1.4l-1.3,1l-2.3,3.5l0,1.4l-3.2,1.8l-2.8-1.2l-3,0.2l-1.3-1.1l-1.5-0.4l-3.9,2.3
		l-3.2,0.5l-2.3,0.8l-3-0.5l-2.2,0l-1.5-1.6l-2.6-1.6l-2.6-0.4l-5.5,1l-3.2-1.2l-0.7-2.6l-5.2-1.2l-2.8-1.4l-0.5,0.1l-2.6,3.5
		l0.8,2.1l-2.1,1.9l-3.4-0.8l-2.4-0.1l-1.8-1.5l-2.5-0.1l-2.4-1l-3.9,1.6l-4.7,2.8l-3.3,0.7l-1.5-1.9l-3,0.4l-1.1-1.3l-1.6-0.6
		l-1.3-1.9l-1.4-0.6l-3.7,0.8l-3.3-1.8l-0.5,0.1l-1,1.3l-5.3-8.1l-3-2.5l0.7-0.8l0-0.5l-0.5-0.1l-6.2,3.2l-1.8,0.1l0.2-1.4l-0.3-0.4
		l-3.2-1.2l-2.5,0.7l-0.7-3.2l-0.3-0.3l-4.5-0.8l-2.5,1.5l-6.2,1.3l-1.3,0.9l-9.5,1.3l-1.2,1.2l0,0.5l1.5,1.9l-1.9,0.7l-0.2,0.6
		l0.3,0.6l-2.1,1.4l0,0.7l3.8,2.1l-0.4,1l-3.2-0.1l-0.9,0.9l-3.1-1.6l-4,0.1l-2.7,1.4l-8.3-3.6l-4.1,0.1l-5.4,3.7l-0.4,2l-2-1.5
		l-0.6,0.1l-2,3.6l0.6,0.9l-1.3,2.2l0.1,0.5l2.1,2.2l2,0l1.4,1.8l-0.2,1.5l0.2,0.4l0.8,0.3l-0.8,1.3l-2.5,0.6l-2.5,3.2v0.5l2.2,2.8
		l-0.2,2.2l2.5,3.2l-1.6,1.6l-0.7-0.1l-1.6-1.7l-2.3-0.8l-0.9-1.3l-2.3-0.6l-1.5,0.4l-0.4-0.5l-3.5-1.5l-5.8-1l-0.5,0.2l-2.9-2.3
		l-2.9-1.2l-1.5-1.3l1.3-0.4l2.1-2.6l0-0.6l-0.9-0.8l3-1.1l0.3-0.4l-0.1-0.7l-0.5-0.4l-1.7,0.4l0-0.7l1-0.7l2.7-0.5l0.4-1.3
		l-0.5-1.6l0.9-1.5l0-1.2l-0.3-0.4l-3.7-1.1l-1.4,0l-1.4-1.4l-2.2,0.4l-2.8-1l0-0.6l-0.9-1.4l-2-0.3l-0.1-0.5l0.5-0.5l0-0.5
		l-1.6-1.9l-3.6,0l-0.9,0.7l-0.5-0.1l-1-2.8l2.2,0l1-0.7l0.1-0.6l-0.9-1l-1.3-0.5l-0.1-0.7l-1-0.6l-1.4-2l0.5-1l-0.5-2l-2.5-0.8
		l-1.2,0.3l-0.5-0.8l-2.5-0.8l-0.7-1.9l-0.2-1.7l-1-0.9l0.8-1.2l-0.7-3.2l1.7-2L552,363.4L552,363.4z M809.7,418.9l-0.6,0.4
		l-0.1,0.2l0-0.5L809.7,418.9z M935.3,316.1l-5.6,0.5l-0.3-0.8l3.2-1.9l1.9,0l3.2,1.2L935.3,316.1L935.3,316.1z M857.9,296.7l-2,1.4
		l-3.8-0.4l-4.2-1.8l0.3-1L857.9,296.7L857.9,296.7z M844.1,294.3l-1.6,3.1l-9-0.1l-4.1,1.1l-4.5-3l1.2-3l3-0.9l6.5,0.2L844.1,294.3
		L844.1,294.3z M838.7,383.2l-0.6-0.9l0.3-0.1L838.7,383.2L838.7,383.2z M838.8,383.7l0.9,3.5l0,3.4l1,3.4l2.2,5l-2.9-0.8l-0.5,0.3
		L838,403l2.4,3.5l0,1.1l-1.2-1.2l-0.6,0.1l-1.1,1.6l-0.3-1.6l0.3-3.1l-0.3-3.4l0.6-2.5l0.1-4.4l-1.5-3.4l0.2-4.3l2.2-1.5
		L838.8,383.7L838.8,383.7z M832.4,304.8l1.8-1.4l2.9-0.4l3.3,1.7l0.1,0.6l-3.3,0L832.4,304.8L832.4,304.8z M744.2,279.3l-13,1.9
		l4-6.4l1.8-0.6l1.7,0.3l6,3L744.2,279.3z M731.3,276.1l-5.1,0.6l-6.9-1.6l-4-2.1l-2.1-4.2l-2.6-0.9l5.7-3.5l5.2-1.3l4.7,2.9
		l5.6,5.4L731.3,276.1L731.3,276.1z M624.6,317.1l-0.6,0.2l-7.8-0.6l-0.9-2l-4.3-1.2l-0.3-1.9l2.3-0.9l0.2-0.4l-0.1-2.4l4.8-4
		l-0.2-0.7l-1.5-0.4l5.3-3.8l0.2-0.4l-0.6-1.9l5.3-2.5l8.2-3.3l8.3-1l4.3-1.9l4.6-0.6l1.4,1.6l-1.3,1.3l-16.4,4.9l-8,4.9l-7.7,9.6
		l0.7,4.1L624.6,317.1L624.6,317.1z M609.3,266.7l-5.5,1.2l-0.6,1l-2.6,0.8l-2.1-1.1l1.1-1.4l-0.3-0.6l-2.3-0.1l1.7-0.4l3.5-0.1
		l0.4,1.3l0.7,0.2l1.4-1.3l2.2-0.9l2.9,1L609.3,266.7L609.3,266.7z M537.8,381.3l-4.1,0l-2.6-0.3l0.3-0.9l3.2-1l3.2,1L537.8,381.3
		L537.8,381.3z"/>
	<path fill="#C6E4EA" d="M557.5,536.4l0.7,1l-0.1,1.1l-1.6,0l-1,1.4l-0.8-0.1l0.5-1.2l0.1-1.3l0.4-0.4l0.7,0.1L557.5,536.4
		L557.5,536.4z"/>
	<path fill="#C6E4EA" d="M529.9,412.2l0.4-0.5l0-0.5l-1.1-1.6l1.4-0.6l1.3,0.1l1.2,1.1l0.5,1.1l1.3,0.6l0.3,1.4l1.5,0.9l0.8-0.3
		l0.2,0.7l-0.5,0.8l0.2,1.1l1,1.2l-0.8,0.8l-0.4,1.5l-1.2,0.1l0.2-0.6l-0.4-0.5l-2.1-1.6l-0.9,0.1l-0.5,0.9l-2.1-1.4l0.5-1.6
		l-1.1-1.4l0.5-1.1L529.9,412.2L529.9,412.2z"/>
	<path fill="#C6E4EA" d="M547.4,377.5l0.2,1.1l-1.8,1l-0.7,2l-2.5,1.2l-2.1,0l-0.7-1.1l-1.1-0.3l-0.1-1.9l-3.6-1.1l-0.4-2.4l2.5-0.9
		l4.1,0.2l2.2-0.3l0.5,0.7l1.2,0.2L547.4,377.5L547.4,377.5z"/>
	<path fill="#C6E4EA" d="M496.6,397.6l-0.5-0.1l0.3-1.3l0.3,0.4L496.6,397.6L496.6,397.6z"/>
	<path fill="#C6E4EA" d="M459.8,514.2l0.2,1.5l-0.5,1l0.1,0.5l2.5,1.8l-0.3,2.8l-2.6-1.1l-5.8-4.6l0.6-1.3l2.1-2.3l0.9-0.2l0.8,1.1
		l-0.1,0.9l0.6,0.9l1,0.1L459.8,514.2L459.8,514.2z"/>
	<path fill="#C6E4EA" d="M548,402.4l0.6,0.2l2.9,4l-0.2,2.7l0.5,1.4l1.3,0.8l1.3-0.4l0.8,0.4l0,0.3l-0.8,0.5l-0.6-0.2l-0.5,0.3
		l-0.6,3.3l-1-0.2l-2.1-1.1l-3,0.7l-1.2,0.8l-3.5-0.1l-1.9-0.5l-0.9,0.2l-0.8-1.3l0.3-0.3l-0.1-0.6l-1.1-0.3l-0.6,0.5l-1-0.6
		l-0.4-1.4l-1.4-0.6l-0.3-1l-0.8-0.8l1.5-0.5l2.7-4.2l2.4-1.2l3,0.3l1.5,0.7l0.8-0.4l1.8-0.3l0.8-0.7H548L548,402.4z"/>
	<path fill="#C6E4EA" d="M446.7,501.8l-0.3,0.8l0.1,0.6l-2.2,0.6l-0.9,1l-1-0.8l-1.1-0.2l-0.5-1.1l-0.7-0.5l2.4-0.5L446.7,501.8z"/>
	<path fill="#547700" d="M255.6,498l-2.5-0.4l-1-0.5l-1.1-0.9l0.3-1l-0.2-0.7l1-1.7l3,0l0.4-0.4l-0.2-1.3l-1.7-1.4l0.5-0.4v-1.1
		l3.9,0l-0.2,4.5l0.4,0.4l1.5,0.4l-1.5,1l-0.4,0.7l0.1,0.6L255.6,498L255.6,498z"/>
	<path fill="#C6E4EA" d="M547.5,422.8l-0.6,1.4l-0.4,0.2l-2.8-0.4l-3,0.8l-0.2,0.7l1.3,1.2l-0.6,0.2h-1.1l-1.2-1.4l-0.6,0l-0.5,1
		l0.6,1.8l1,1.2l-0.6,0.4l0,0.6l2.5,2.1l0,0.9l-1.8-0.6l-0.5,0.6l0.5,1l-1.1,0.2l-0.3,0.5l0.8,2l-1,0l-1.8-1.1l-1.4-4.2l-2.2-3
		l-0.1-0.6l1-1.3l0.2-0.9l0.9-0.7l0-0.5l1.3-0.2l1-0.6l1.2,0.1l0.6-0.6h2.3l1.8-0.8l1.9,1l2.3-0.3l0.4-0.4l0-0.8L547.5,422.8
		L547.5,422.8z M541,440.3l0.6,0.4l-0.7-0.1L541,440.3L541,440.3z M543,441l2.5,0.1l0.2,0.3l-2,0.1L543,441L543,441z"/>
	<path fill="#C6E4EA" d="M509.3,527.8l0,2.2h-4.1l0.7-2.3L509.3,527.8z"/>
	<path fill="#C6E4EA" d="M337.9,518.3l-0.3,1.8l-1.3,0.6l-0.2,0.5l-0.3,2l1.1,1.8l0.8,0.2l0.3,1.2l1.1,1.6l-1.2-0.2l-1.1,0.7
		l-1.8,0.5l-0.4,0.5l-0.9-0.1l-1.3-1l-0.8-2.3l0.4-1.9l0.7-1.2l-0.6-1.2l-0.7-0.4l0.1-1.2l-0.9-0.7l-1.1,0.1l-1.3-1.5l0.5-0.7l0-0.8
		l2-0.9l0-0.6l-0.7-0.8l0.1-0.6l1.7-1.2l1.4,0.8l1.4,1.5l0.1,1.2l0.4,0.4l0.8,0L337.9,518.3L337.9,518.3z"/>
	<path fill="#C6E4EA" d="M582.2,417.1l5.3,0.9l4.1,2l1.4-0.4l2.1,0.6l0.7,1.1l1.1,0.6l-0.1,0.6l1,1.3l-1-0.1l-1.8-0.8l-0.9,0.5
		l-3.2,0.4l-2.3-1.4l-2.3,0.1l0.2-1l-0.8-2.3l-1.5-1.1l-1.4-0.4L582.2,417.1L582.2,417.1z"/>
	<path fill="#C6E4EA" d="M473.1,366.9l-2.2,3.2v0.4l5.1-0.3l-0.5,2.4l-2.2,3.1l0.3,0.6l2.4,0.2l2.3,4.3l1.8,0.7l2.2,5.1l2.9,0.8
		l-0.2,1.6l-1.1,0.9l-0.1,0.5l0.8,1.4l-1.9,1.4l-3.3,0l-4.1,0.9l-1-0.6l-0.5,0.1l-1.5,1.4l-2.1-0.3l-1.9,1.2l-0.6-0.3l3.2-3l2.2-0.7
		l0.3-0.4l-0.3-0.4l-3.7-0.5l-0.4-0.8l2.2-0.9l0.2-0.6l-1.3-1.7l0.4-1.7l3.4,0.3l0.4-0.3l0.4-2l-1.8-2.5l-3.1-0.7l-0.4-0.6l0.8-1.4
		l0-0.5l-0.8-1l-0.6,0l-0.7,0.8l-0.1-2.3l-1.2-1.9l0.9-3.5l1.8-2.7l1.9,0.3L473.1,366.9L473.1,366.9z M466.7,381l-1,1.8l-1.6-0.6
		l-1.2,0l0.4-1.5l-0.4-1.4l1.5-0.1L466.7,381L466.7,381z"/>
	<path fill="#C6E4EA" d="M513.7,527.7l-0.1,1l0.7,1.3l2.4,0.2l-1,2.6l1.2,1.8l0.2,1.8l-0.3,1.5l-0.6,0.9l-1.8-0.1l-1.2-1.1l-0.7,0.2
		l-0.2,0.8L511,539l-1,0.7l-0.1,0.5l0.8,1.3l-1.3,1l-3.9-4.3l-1.4-2.5l0.1-0.6l0.5-0.8l1-3.5l4.2-0.1l0.4-0.4l0-2.7l2.4,0.2
		L513.7,527.7L513.7,527.7z"/>
	<path fill="#C6E4EA" d="M452.3,502.3l0.5,0.8l1.1-0.3l1,0.7l1.1,0.2l2.3-1.2l0.6,0.4l1.1,1.6l-0.5,1.4l0.8,0.3l-0.1,0.5l0.5,0.7
		l-0.4,1.4l1,2.6l-1,0.7l0,1.4l-0.7-0.1l-1.1,1l-0.2-0.3l0.1-1.1l-1-1.5l-1.8,0.2l-0.4-2l-1.6-2.2h-2l-1.3,0.5l-2,2.2l-1.9-2.2
		l-1.2-0.8l-0.3-1.1l-0.8-0.9l0.6-0.7l0.8,0l1.6-0.8l0.2-1.9l2.7,0.6l0.9-0.3L452.3,502.3L452.3,502.3z"/>
	<path fill="#C6E4EA" d="M439.8,499.6l0.1-0.4l2.4-0.1l0.7-0.6l0.5,0l0.8,0.5l-1-0.3l-1.9,0.9L439.8,499.6L439.8,499.6z
		 M444.5,499.1l0.9,0.1l0.8-0.2l-0.6,0.3L444.5,499.1L444.5,499.1z"/>
	<path fill="#C6E4EA" d="M413.5,249.4l14.7,4.7l-3.7,1.9l-23,0.9l-0.4,0.3l0.1,0.4l1.5,1.2l8.8-0.7l7.5,2.1l4.9-1.8l1.7,1.7
		l-2.5,3.2l0,0.5l0.5,0.1l6.4-2.2l12.1-2.3l7.2,1.1l1.1,2l-9.8,4l-1.4,1.3l-7.9,1l-0.4,0.4l0.4,0.4l5.1,0.2l-2.5,3.6l-2.1,3.8l0.1,6
		l2.6,3.1l-3.2,0.2l-4.1,1.7l0,0.7l4.5,2.6l0.5,3.8l-2.3,0.4l-0.2,0.6l2.8,3.7l-4.8,0.3l-0.4,0.3l0.2,0.4l2.6,1.8l-0.6,1.2l-3.3,0.7
		l-3.5,0l-0.3,0.7l3,3.1l0,1.3l-4.4-1.7l-1.7,1.4l0.1,0.7l3.3,1.1l3.1,2.7l0.8,3.2l-3.9,0.8l-4.9-4.3l-0.5,0l-0.2,0.4l0.8,2.9
		l-2.7,2.2l-0.1,0.4l0.4,0.3l8.7,0.3l-12.3,6.6l-7.2,1.5l-2.9,0.1l-2.7,1.8l-3.4,4.4l-5.2,2.8l-1.7,0.2l-7.1,2.1l-2.1,2.5l-0.1,3
		l-1.2,2.4l-4,3.1l-0.1,0.4l1,2.9l-2.3,6.5l-3.1,0.2l-3.8-3.1l-4.9,0l-2.2-1.9l-1.7-3.8l-4.3-4.8l-1.2-2.5l-0.4-3.8l-3.3-3.6
		l0.8-2.9l-1.6-1.7l2.3-4.6l3.8-1.7l1-2l0.5-3.5l-0.6-0.4l-4.2,2.2l-2.1,0.6l-2.7-1.3l-0.1-2.7l0.9-2.1l2-0.1l5.1,1.2l0.5-0.2
		l-0.1-0.5l-6.5-4.5l-2.7,0.5l-1.6-0.9l2.6-4l0-0.5l-1.5-1.7l-5-8.5l-3.1-2l0-1.9l-0.2-0.4l-6.9-3l-5.4-0.4l-12.7,0.6l-2.8-1.6
		l-3.7-2.8l5.7-1.4l5-0.3l0.4-0.4l-0.4-0.4l-10.7-1.4l-5.3-2.1l0.2-1.5L317,274l1.2-2.3l-0.2-0.5l-6.1-1.9l1.7-1.8l8.5-4l3.6-0.6
		l0.3-0.5l-0.9-2.3l5.5-1.5l7.6-1l7.5,0l3,1.9l6.5-3.3l5.8,2.2l3.6,0.5l5.2,1.9l0.5-0.2l-0.2-0.5l-5.7-3.1l0.3-2.1l8.1-3.6l8.7,0.3
		l3.4-2.3l8.7-0.6L413.5,249.4L413.5,249.4z"/>
	<path fill="#C6E4EA" d="M601.3,456.1l0.4,0.9l-0.2,0.8l0.6,1.5l-1,0l-0.8-1.3l-1.6-0.2l1.3-1.9L601.3,456.1L601.3,456.1z"/>
	<path fill="#81A000" d="M481,505.7l0,0.7l1,1.2l0.2,3.7l0.6,1l-0.5,2.1l0.2,1.4l1,2.2l-7,2.8l-1.8-0.6l0-0.9l-1-2l0.6-2.6l1.1-2.3
		l-1-6.5l5,0.1l0.9-0.4L481,505.7L481,505.7z"/>
	<path fill="#C6E4EA" d="M628.6,479.1l-0.9,1.7l-1.2,0l-0.6,0.8l-0.4,1.5l0.3,1.6l-1.2,0l-1.6,1l-0.8,1.7l-1.6,0l-1,0.6l-0.2,1.1
		l-0.9,0.5l-1.5-0.2l-2.4,0.9l-2.5-5.4l7.3-2.7l1.7-5.2l-1.1-2.1l0-0.8l0.7-1l0.1-1l0.9-0.4l0-2.1l0.7,0l1,1.6l1.5,1.1l3.3,0.8
		l1.7,2.3l0.8,0.4l-1.2,2.4L628.6,479.1L628.6,479.1z"/>
	<path fill="#C6E4EA" d="M591.6,507.1l1.5,0.1l5.1-1l5.3-1.5l0,4.4l-2.7,3.4l-1.8,0l-8-2.9l-2.5-3.2l1.1-1.7L591.6,507.1
		L591.6,507.1z"/>
	<path fill="#C6E4EA" d="M533.2,420.8l-1.1-1.3l1-0.8l0.3-0.8l2,1.6l-0.4,0.7L533.2,420.8L533.2,420.8z"/>
	<path fill="#C6E4EA" d="M579.1,449.6l-5.1,1.6l-0.2,0.6l2.2,2.4l-0.9,1.1l-1.7,0.3l-1.7,1.8l-2.3-0.4l1.2-4.3l0.6-4.1l2.8,0.9
		l4.5-2.7L579.1,449.6L579.1,449.6z"/>
	<path fill="#C6E4EA" d="M516.1,411l1.1,0.1l-0.8,0.9L516.1,411L516.1,411z M517.4,411.1l0.6-0.4l1.7,0.4l0.4-0.4l0-0.6l0.9-0.5
		l0.2-1.1l1.6-0.7l2.6,1.7l2.1,0.6l0.9-0.3l1,1.6l-0.5,0.6l-1-0.6l-1.7,0l-2.1-0.5l-1.3,0.1l-0.6,0.5l-0.6-0.5l-0.6,0.2l-0.5,1.7
		l1.8,2.4l2.8,2.8l-1.2-0.9l-2.2-0.9l-1.7-1.8l0.1-0.6l-1-1.2l-0.3-1.3L517.4,411.1L517.4,411.1z"/>
	<path fill="#C6E4EA" d="M297.5,486.6l-1.2,0.4l-0.9-0.5l0-0.2L297.5,486.6L297.5,486.6z M298,486.6l1.1,0.1l0,0L298,486.6
		L298,486.6z M299.7,486.6l0.8-0.5l0.1-0.6l-1-1l0-0.8l-0.3-0.4l-0.9-0.3l3.2,0.5l0,1.8l-0.5,0.3l-0.1,0.6l0.5,0.7L299.7,486.6z"/>
	<path fill="#C6E4EA" d="M522.6,406.1l0.6-1.6l-0.1-0.4h0.6l0.4-0.3l0.1-0.7l1.8,0.9l2.3-0.4l0.4-0.7l3.5-0.8l0.7-0.8l0.6-0.1
		l2.6,0.9l0.7-0.2l1,0.6l0.1,0.4l-1.4,0.7l-2.6,4.1l-1.8,0.5l-1.7-0.1l-2.7,1.2l-1.9-0.5l-2.5-1.7L522.6,406.1L522.6,406.1z"/>
	<path fill="#C6E4EA" d="M260.1,497.7l-1.7-1.2l0.1-0.9l3-2.1l2.4,0.3l1.3-0.1l1.1-0.5l1.3,0.3l1.1-0.2l1.4,0.4l2.2,1.4l-2.4,0.9
		l-1.2-0.4l-0.9,1.3l-1.3,1l-1-0.2l-0.4,0.5l-1,0.1l-0.4,0.4l0,0.9l-0.5,0.6l-0.3,0l-0.3-0.5l-0.7-0.3l0.1-0.7l-0.5-0.6l-0.9-0.3
		L260.1,497.7L260.1,497.7z"/>
	<path fill="#C6E4EA" d="M316.6,486.9l-0.3,0.3l-2.8,0.1l-0.1-0.6l2-0.1L316.6,486.9L316.6,486.9z"/>
	<path fill="#C6E4EA" d="M569.7,451.3L569.7,451.3L569.7,451.3L569.7,451.3L569.7,451.3z M569.8,451.1l0-0.6l-0.3-0.2l0.3-1.1
		l0.2,0.1L569.8,451.1z"/>
	<path fill="#C6E4EA" d="M462.3,435.6l-0.6,0.5l-1.1-0.4l-0.9,0.2l0.3-1.8l-0.2-1.8l-1.2-0.6l-0.5-0.8l0.2-1.7l1-1.2l0.7-2.9l0-1.4
		l-0.6-1.9l1.3-0.9l0.8,1.4l3.1-0.3l0.5,1l-1,0.9l0,2.2l-0.4,0.6l-0.1,1.1l-0.8,0.2l-0.3,0.6l0.9,1.6l-0.6,1.8l0.8,1.1l-1.1,1.5
		L462.3,435.6L462.3,435.6z"/>
	<path fill="#C6E4EA" d="M335.4,584.3l0.7,1.5l-0.2,3.5l0.3,0.4l2.6,0.5l1.1-0.5l1.4,0.6l0.4,0.6l0.5,3.4l1.3,0.4l1-0.4l0.5,0.3v1.2
		l-1.2,5.3l-2.1,1.9l-1.8,0.4l-4.7-1l2.2-3.6l-0.3-1.5l-2.8-1.3l-3-1.9l-2.1-0.4l-4.3-4.1l0.9-2.9l0.1-1.4l1.1-2l4.1-0.7l2.2,0
		l2,1.2L335.4,584.3L335.4,584.3z"/>
	<path fill="#C6E4EA" d="M274.3,511.9l0.3-1.5l-0.4-0.3l0-0.5l0.4-0.1l0.9,1.4l1.3,0l0.8,0.5l1.4-0.2l2.5-1.1l0.9-0.7l3.5,0.9
		l1.4,1.2l0.4,1.7l-0.2,0.3l-0.5-0.1l-0.5,0.3l-0.2,0.6l-0.7-1.3l0.5-0.5l-0.2-0.7l-0.5-0.1l-0.5-0.8l-1.5-0.8l-1.1,0.2l-0.8,1
		l-1.6,0.8l-0.2,1l0.9,1l-0.6,0.5l-0.7,0.1l-0.3-1.2l-1.3,0l-0.7-1L274.3,511.9L274.3,511.9z"/>
	<path fill="#C6E4EA" d="M869.1,547l2.5,2.6l-0.1,0.3l-0.3,0.1l-0.9-0.8L869.1,547L869.1,547z M861.9,541.2l0.5,0.3l0.3,0.3
		l-0.5-0.3L861.9,541.2z M863.6,542.8l0.6,0.5l0.1,1.1l-0.3-0.9L863.6,542.8L863.6,542.8z M857.2,546.6l0.5,0.8l1.4-0.2l2.3-1.8
		l0-1.4l1.1,0.2l0,1.1l-0.7,1.3l-1.1,0.2l-0.6,0.8l-2.5,1.1h-1.2l-3.1-1.2h3.4L857.2,546.6L857.2,546.6z M849.6,551.7l2.3,1.8
		l1.6,2.6l1.3,0.1l-0.1,0.7l0.3,0.4l1.1,0.2l0.1,0.7l2.2,1l-1.2,0.1l-0.7-0.6l-4.6-0.7l-3.2-2.9l-1.5-2.3l-3.3-1.1l-2.4,0.7
		l-1.6,0.9l-0.2,0.4l0.3,1.5l-1.5,0.7l-1.4-0.4l-2.2-0.1l-0.1-15.4l8.4,2.9l3,2.4l0.6,1.6l4,1.5l0.3,0.7l-1.8,0.2l-0.3,0.5
		L849.6,551.7L849.6,551.7z"/>
	<path fill="#C6E4EA" d="M305.4,543.4l-1.3-0.1l-0.6,0.4l-1.9,0.5l-3,1.8l-0.4,1.4l-0.6,0.8l0.1,1.4l-1.2,0.6l-0.2,1.2l-0.6,0.8
		l1,2.3l1.3,1.4l-0.4,0.8l0.3,0.6l1.5,0.1l1.2,1.4l2.2,0.1l1.6-1.1l-0.1,3l0.3,0.4l1.1,0.3l1.3-0.3l1.9,3.6l-0.5,0.9l-0.2,3.8
		l-0.9,1.6l0.4,0.8l-0.5,1.1l1,2l-2.1,3.8l-1,0.5l-2.2-1.3l-0.4-1.2l-5-2.6l-4.5-2.8l-1.8-1.5l-0.9-1.8l0.3-1l-2.1-3.3l-4.8-9.7
		l-1-1.2l-0.9-1.9l-3.4-2.5l0.6-1.2l-1.1-2.2l0.7-1.5l1.4-1.2l-0.6,1l0.1,0.9l0.5,0.4l1.7,0l1,1.2l0.5,0.1l1.4-1l0.6-1.8l1.4-2l3-1
		l2.7-2.6l0.9-1.7l-0.1-1.9l1.4,1l0.9,1.2l1.1,0.6l1.7,2.7l1.9,0.3l1.4-0.6l1,0.4l1.4-0.2l1.5,0.9l-1.4,2.2l0.3,0.6l0.6,0
		L305.4,543.4L305.4,543.4z"/>
	<path fill="#C6E4EA" d="M675.6,440.5l-1.8,1.8l-2.6,0.4l-3.7-0.7l-1.6,1.3l-0.1,0.4l1.8,4.4l1.7,1.2l-1.7,1.3l-0.1,2.1l-2.3,2.6
		l-1.6,2.8l-2.5,2.7l-3-0.1l-2.8,2.8l0,0.6l1.5,1.1l0.3,1.9l1.4,1.5l0.4,1.7l-5,0l-1.8,1.7l-1.4-0.5l-0.8-1.9l-2.3-2.1l-11.6,0.9
		l0.7-2.3l3.4-1.3l0.2-0.4l-0.2-1.2l-1.2-0.6l-0.3-2.5l-2.3-1.1l-1.3-1.9l2.8,0.9l2.6-0.4l1.4,0.3l0.8-0.6l1.7,0.2l3.2-1.1l0.3-0.4
		l0.1-2.2l1.2-1.3h1.7l0.6-0.8l1.6-0.3l1.2,0.2l1-0.8l0-1.9l0.9-1.5l1.5-0.7l0.2-0.6l-0.7-1.2l2-0.1l0.7-1l0-1.2l1.1-1.1l-0.2-1.8
		l-0.5-1l1.2-1l5.4-0.9l2.6-0.8l1.6,1.2l1,2.3L675.6,440.5L675.6,440.5z"/>
	<path fill="#C6E4EA" d="M797.5,512l0.4,3l-0.4,1.2l-0.5-1.5l-0.7-0.1l-1.2,1.3l0.7,2.1l-0.4,0.7l-2.5-1.2l-0.6-1.5l0.7-1l-0.1-0.5
		l-1.6-1.2l-0.6,0.1L790,514h-1.2l-1.6,1l0.8-1.8l2.6-1.4l0.7,0.8l0.5,0.1l1.9-0.7l0.6-1.1l1.5-0.1l0.4-0.4l-0.1-1.2l1.2,0.7
		L797.5,512L797.5,512z M794.1,504.8l0,0.8l0.1,0.3l-0.8-0.4l-0.2-0.7L794.1,504.8z M794.6,504.3l-0.1-1.1l-1-1.3l1.4,0l0.5,0.7
		l0.5,2L794.6,504.3L794.6,504.3z M794.2,505.9l0.4,1l-0.3,0.1L794.2,505.9L794.2,505.9z M785.1,486.6l1.5,0.7l0.7-0.3l-0.3,1.2
		l0.8,1.7l-0.6,1.8l-1.5,1l-0.4,2.2l0.6,2l1.6,0.6l1.2-0.3l2.7,1.2l-0.2,1.1l0.8,0.8l-0.1,0.4l-1.4-0.9l-0.9-1.3h-0.7l-0.4,0.6
		l-1.6-1.3l-2.2,0.4l-0.9-0.4l0.1-0.6l0.7-0.5l0-0.6l-0.8-0.6l-0.7,0.4l-0.7-0.9l-0.4-2.5l0.3,0.3l0.7-0.3l0.3-4l0.7-2H785.1
		L785.1,486.6z M791.5,507.1l-0.9,0.9l-1.2,1.9l-1-1.2l0.9-1.1l0.3-1.5l0.5-0.1l-0.3,1.1l0.2,0.5l0.5-0.1l1-1.3L791.5,507.1
		L791.5,507.1z M787.3,504l0.8,0.4h1.2l0,0.5l-2,1.4L787.3,504L787.3,504z M785.3,500.3l-0.4,1.3l-1.4-2l1.2,0.1L785.3,500.3
		L785.3,500.3z M777,510l1.1-1l0,0l-0.3,0.4L777,510L777,510z M779.7,507.2L779.7,507.2l0.8-1.6l0.2,0.8L779.7,507.2L779.7,507.2z"
		/>
	<path fill="#C6E4EA" d="M528.9,397.6l-1.1-1.5l-1.9-0.3l-0.5-1l-1.7-0.4l-0.6,0.7l-0.7-0.4l0.1-0.6l-0.3-0.5l-1.8-0.3l-1-0.9
		l-0.9-1.9l0.2-1.2l-0.6-1.8l-0.8-1.1l0.6-1l-0.5-1.4l1.4-0.8l6.9-2.7l2.1,0.5l0.5,0.9l5.5,0.4l4.5-0.1l1.1,0.3l0.5,0.8l0.1,1.6
		l0.7,1.2l0,1l-1.3,0.6l-0.2,0.5l0.7,1.5l0.1,1.6l1.2,2.8l-0.2,0.6l-1.2,0.4l-2.3,2.7l0.2,0.9l-2-1l-2,0.4l-1.4-0.3l-1.2,0.6l-1.1-1
		L528.9,397.6L528.9,397.6z"/>
	<path fill="#C6E4EA" d="M565.4,441.1l0.3,0l0.3-0.1l-0.3,0.3L565.4,441.1L565.4,441.1z"/>
	<path fill="#C6E4EA" d="M541.9,561.5l0.4,0.3l2.5,0.1l1,1.2l2,0.4l1.4-0.6l0.7,1.2l1.8,0.3l1.8,2.3l2.2,0.2l0.4-0.4l-0.2-2.7
		l-0.6-0.3l-0.5,0.3l-2-1.2l0.7-5.3l-0.5-1.2l0.6-1.3l3.7-0.6l0.3,0.6l1.2,0.6l0.9-0.2l2.2,0.7l1.3,0.7l1.1,1l0.6,1.9l-0.9,2.7
		l0.4,2.1l-0.7,0.9l-0.8,2.4l0.6,0.7l-6.6,1.8l-0.3,0.4l0.2,1.5l-1.7,0.3l-1.4,1l-0.4,0.9l-0.9,0.3l-3.5,3.7l-4.2-0.5l-1.5-1
		l-1.8-0.1l-1.8,0.5l-3-3.4l0.1-7.6l4.8,0l0.4-0.5l-0.2-0.8l0.3-0.8l-0.4-1.4L541.9,561.5L541.9,561.5z"/>
	<path fill="#C6E4EA" d="M444.9,478.5l0.2-0.8l1.1-1.3l0.8-3.5l3.4-2.8l0.7-1.8l0.1,4.8l-2,0.2l-0.9,1.6l0.4,3.6L444.9,478.5
		L444.9,478.5z M452.5,466.3l0.7-1.8l1.8-0.2l2.1,0.3l1-0.6l1.3-0.1v2.5L452.5,466.3L452.5,466.3z"/>
	<path fill="#C6E4EA" d="M546.2,363.2l2.6,0.6l2.6,0.1l-1.6,1.9l0.6,3.5l-0.8,0.9l-1.8,0l-3.2-1.8l-1.8,0.5l0.2-1.5l-0.6-0.4
		l-0.7,0.3l-1.3-1l-0.2-1.6l2.8-0.9L546.2,363.2L546.2,363.2z"/>
	<path fill="#C6E4EA" d="M552.5,453.2l1.5,0.4l3-1.6l2-0.2l1.5,0.3l0.6,1.2l0.7,0l0.4-0.6l1.8,0.6l2,0.2l1-0.5l1.4,4.1l-2,4.5
		l-1.7-1.8l-1.8-3.9l-0.6-0.1l-0.4,0.7l1,2.9l3.4,7l1.8,3l2,2.6l-0.4,0.5l0.2,2l2.7,2.2h-28.4v-19l-0.7-2.2l0.6-1.6l-0.3-1.3l0.7-1
		l3.1,0L552.5,453.2L552.5,453.2z"/>
	<path fill="#C6E4EA" d="M527.6,621.4l-0.1-2l-0.7-1.6l0.7-0.7l-0.1-2.3l-4.6-8.2l0.8-0.9l0.6,0.5l0.7,1.3l2.8,0.7l1.5-0.3l2.2-1.4
		l0.2-9.5l1.3,2.3l-0.2,1.5l0.6,1.2l0.4,0.2l1.8-0.3l2.6-2.1l0.7-1.3l1-0.5l2.2,1l2,0.1l1.8-0.7l0.8-2.1l1.4-0.3l1.6-2.8l2.1-1.9
		l3.4-1.9l2,0.5l1-0.3l1,0.2l1.8,5.3l-0.4,3.2l-0.8-0.2l-1,0.5l-0.9,1.7l0,1.2l2,1.8l1.5-0.3l0.7-1.2l1.1,0l-0.8,3.7l-0.6,1.1
		l-2.2,1.8l-3.2,4.8l-2.8,2.8l-3.6,2.9l-2.5,1l-1.2,0.1l-0.5,0.7l-1.2-0.3l-1.4,0.5l-2.6-0.5L539,621l-1.2-0.1l-2.5,1.1l-2.1,0.4
		l-1.6,1.1l-0.8,0l-0.9-0.9l-0.9-0.1l-1-1.1L527.6,621.4L527.6,621.4z M551.9,612.4l0.6-0.9l1.5-0.6l1.2-2.2l-0.1-0.5l-2-1.7
		l-1.7,0.6l-1.4,1.1l-1.3,1.7l0,0.5l1.9,2.1L551.9,612.4L551.9,612.4z"/>
	<path fill="#81A000" d="M292.3,533.7l0.3,1.6l-0.7,1.5l-2.6,2.5l-3.1,1.1l-1.5,2.2l-0.5,1.7l-1,0.7l-1-1.1l-1.8-0.2l0.7-1.2
		l-0.2-0.9l1.2-2.1l-0.5-1.1l-0.7-0.1l-0.7,0.9l-0.9-0.6l0.4-0.7l-0.4-2l0.8-0.5l0.5-1.5l0.9-1.6l-0.1-1l2.6-1.3l2.8,1.3l0.8,1
		l2.1,0.4l0.8-0.3L292.3,533.7L292.3,533.7z"/>
	<path fill="#C6E4EA" d="M530.8,420l0.7,0l0.9,0.9l-0.2,2l0.4,1.3l1,0.8l-1.8,2.8l-0.2-0.6l-1.2-0.9l-0.2-1.2l0.5-2.8l-0.5-1.5
		L530.8,420L530.8,420z"/>
	<path fill="#C6E4EA" d="M522,548.2l1.3,3.2l1.9,2.4l2.5-0.5l1.2,0.3l0.4-0.2l0.9-1.9l1.3-0.1l0.4-0.4h0.5l-0.1,0.4l0.4,0.5l2.7,0
		l0,1.2l0.5,1l-0.3,1.5l0.2,1.5l0.8,1l-0.1,2.9l0.5,0.4l4-0.4l-0.1,1.8l0.4,1l-0.2,1.4l-4.7,0l-0.4,0.4l-0.1,8.1l2.9,3.5l-3.8,0.9
		l-5.9-0.4l-1.9-1.2l-10.5,0.2l-1.3-1l-1.8-0.2l-2.4,0.8l-0.1-1.1l0.3-2.2l1-3.5l1.4-3.2l2.2-2.8l0.3-2.1l-0.1-1.5l-0.8-1.1
		l-1.2-2.9l0.9-1.6l-1.3-4.1l-1.2-1.5l2.5-0.6L522,548.2L522,548.2z M512.2,547.1l-0.5-1.2l1.2-1.1l0.3,0.3l-1,1L512.2,547.1
		L512.2,547.1z"/>
	<path fill="#C6E4EA" d="M613.3,421.1l0.5-1.3l-0.5-1l-3-1.2l-1.1-2.6l-1.4-0.9l0-0.3l2,0.2l0.5-0.4l0.1-2l1.8-0.4l2.1,0.4l0.5-0.3
		l0.5-3l-0.5-2.1l-0.4-0.3l-2.4,0.1l-2.4-0.7l-2.9,1.4l-2.2,0.6l-0.8-0.3l0.1-1.6l-1.6-2.1l-2-0.1l-1.8-1.8l1.3-2.2l-0.6-0.9
		l1.6-2.9l2.2,1.6l0.6-0.3l0.3-2.2l4.9-3.4l3.7-0.1l8.4,3.6l2.9-1.4l3.8-0.1l3.1,1.7l0.5-0.1l0.6-0.8l3.3,0.1l0.4-0.2l0.6-1.6
		l-0.2-0.5l-3.5-2l1.9-1.3l-0.1-1l2-0.7l0.2-0.6l-1.6-2.1l0.8-0.8l9.2-1.2l1.3-0.9l6.2-1.3l2.3-1.4l4.1,0.7l0.7,3.3l0.5,0.3l2.5-0.8
		l2.8,1l-0.2,1.6l0.4,0.4l2.5-0.2l4.9-2.5l0,0.3l3.2,2.6l5.6,8.5l0.7,0l1.1-1.5l3.2,1.7l3.8-0.8l1.2,0.5l1.1,1.8l1.8,0.8l1,1.3
		l3.3-0.2l1,1.5l-1.6,1.8l-1.9,0.3l-0.3,0.4l-0.1,3l-1.1,1.2l-4.8-1l-0.5,0.3l-1.8,5.5l-1.1,0.6l-4.9,1.2l-0.3,0.5l2.1,5l-1.4,0.6
		l-0.2,0.4l0.1,1.1l-0.9-0.2l-1.4-1.1l-7.9-0.4l-0.9,0.3l-3.7-1.2l-1.4,0.6l-0.5,1.7l-3.7-0.9l-1.8,0.4l-0.8,1.4l-4.7,2.6l-1.1,2.1
		l-0.4,0l-0.9-1.4l-2.9-0.1l-0.5-2.1l-0.4-0.3l-0.8,0v-3l-3-2.2l-7.3,0.6l-2.3-2.7l-6.7-3.7l-6.5,1.8l-0.3,0.4l0.1,10.9l-0.7,0.1
		l-1.6-2.2l-1.8-1l-3.1,0.6L613.3,421.1L613.3,421.1z"/>
	<path fill="#C6E4EA" d="M576.5,496l1.1,0.8l1.6-0.5l0.7,0.5l1.6,0l2,0.9l1.7,1.7l1.6,2.1l-1.5,2l0.2,1.7l0.4,0.4h2l-0.4,1l2.9,3.6
		l8.3,3.1l1.3,0l-6.3,6.8l-3.1,0.1l-2.4,1.8l-1.5,0l-0.9,0.8h-1.4l-1.3-0.8l-2.3,1l-0.8,1l-3.3-0.4l-3.1-2.1l-1.8-0.1l-0.6-0.6v-1.2
		l-0.3-0.4l-1.2-0.4l-1.4-2.6l-1.2-0.7l-0.5-1l-1.3-1.2l-1.2-0.2l0.4-0.7l1.5-0.3l0.4-1l0-2.2l0.7-2.4l1-0.6l1.4-3.1l1.6-1.4l1-2.5
		l0.3-1.9l2.5,0.5l0.4-0.2L576.5,496L576.5,496z"/>
	<path fill="#C6E4EA" d="M559.4,589.3l-1.1-0.2l-0.9,0.3l-2.1-0.4l-1.5-1.1l-1.9-0.4l-0.6-1.4l0-0.8l-0.3-0.4l-1-0.2l-2.7-2.7
		l-1.9-3.3l3.8,0.5l3.7-3.8l1.1-0.4l0.3-0.8l1.2-0.9l1.4-0.3l0.5,0.9l2,0l1.7,1.2l1.1,0.2l1,0.7l0,3l-0.6,3.8l0.4,0.9l-0.2,1.2
		l-0.4,0.3l-0.6,1.8L559.4,589.3L559.4,589.3z"/>
	<path fill="#C6E4EA" d="M476.5,417.4l1.1,1.2l4.6,1.4l1.1-0.6l2.6,1.3l2.7-0.3l0.1,1.1l-2.1,1.8l-3.1,0.6l-0.3,0.3l-0.2,0.9
		l-1.5,1.7l-1,2.4l0.8,1.7l-1.3,1.3l-0.5,1.7l-1.9,0.6l-1.7,2.1l-5.4,0l-1.8,1.1l-0.9,1l-0.9-0.2l-0.8-0.8l-0.7-1.6l-2.4-0.6
		l-0.1-0.5l1.2-1.8l-0.8-1.1l0.6-1.7l-0.8-1.6l0.9-0.5l0.1-1.2l0.4-0.6l0-2.1l1-0.7l0.1-0.5l-1-1.7l-1.5-0.1l-0.6,0.4h-1.1l-0.5-1.2
		l-0.5-0.2l-1.3,0.7l0-1.5l-0.8-1l3-1.9l3,0.5l3.3,0l2.6,0.5L476.5,417.4L476.5,417.4z"/>
	<path fill="#C6E4EA" d="M580.9,494.4l3.4,2.4l3.5,3.8l0.8,0.5l-1,0l-3.5-3.9l-2.3-1.1l-1.7-0.1l-0.9-0.5l-1.3,0.5l-1.3-1l-0.6,0.2
		l-0.7,1.6l-2.3-0.4l-0.2-0.7l1.3-5.3l0.6-0.6l2-0.5l0.9-1l1.2,2.4l0.7,2.3L580.9,494.4L580.9,494.4z"/>
	<path fill="#C6E4EA" d="M529.4,420.7l-1.2-1l0.5-1.8l0.9-0.7l2.3,1.5l-0.5,0.6l-0.8-0.3L529.4,420.7L529.4,420.7z"/>
	<path fill="#C6E4EA" d="M548.9,401.9l1.4-0.3l1.7,0.9l1.1,0.1l0.8,0.6l-0.1,0.8l1,0.9l1.1,2.5l-1.2-0.1l-0.7-0.4l-0.5,0.2l-0.1,0.9
		l-1.1,1.9l-0.3-0.9l0.2-1.3l-0.2-1.6L548.9,401.9L548.9,401.9z"/>
	<path fill="#C6E4EA" d="M606.4,567.3l0.4,3l0.6,1.2l-0.2,1l-0.6-0.8l-0.7,0l-0.5,0.8l0.4,2.1l-0.2,0.9l-0.7,0.8l-0.2,2.1l-4.7,15.2
		l-1.1,2.9l-3.9,1.6l-3.1-1.5l-0.6-1.2l-0.2-2.4l-0.9-2l-0.2-1.8l0.4-1.6l1.2-0.8l0-0.8l1.2-2l0.2-1.7l-1.1-3l-0.2-2.2l0.8-1.3
		l0.3-1.5l4.6-1.2l3.4-3l0.8-1.4l-0.1-0.7l0.8,0l1.4-1.8l0.1-1.6l0.5-0.6l1.2,1.7L606.4,567.3L606.4,567.3z"/>
	<path fill="#C6E4EA" d="M439.3,478.2l0.1-0.6l0.9-0.7l0.8-1.4l-0.1-1l0.8-1.7l1.3-1.6l1-0.6l0.7-1.6l0.1-1.5l0.8-1.5l1.7-1.1
		l1.5-2.7l1.2-1l2.4-0.4l1.9-1.8l1.3-0.8l2.1-2.3l-0.5-3.6l1.2-3.7l1.5-1.8l4.5-2.6l2.4-4.5l1.4,0l1.7,1.2l2.3-0.2l3.5,0.6l0.8,1.5
		l0.2,1.7l0.9,3l0.6,0.6l-0.3,0.6l-3,0.4l-1.3,1.1l-1.3,0.2l-0.3,0.4l-0.1,1.8l-2.7,1l-1.1,1.4l-4.5,1.1l-4,2l-0.5,4.6l-1.1,0.1
		l-0.9,0.6l-2-0.4l-2.4,0.5l-0.7,1.9l-0.9,0.4l-1.1,3.3l-3.5,3l-0.8,3.6l-1,1.1l-0.3,0.8L439.3,478.2L439.3,478.2z"/>
	<path fill="#C6E4EA" d="M659.1,420.9l-1.6,1.5l0.1,0.6l1.8,1.1l2-0.6l2.2,1.2l-2.5,1.7l-2.6-0.2l-0.2-0.4l0.5-1.2l-0.5-0.5
		l-3.3,0.7l-2.1,3.5l-1.9-0.1l-1,1.5l0.2,0.5l1.6,0.6l0.5,1.8l-1.2,2.5l-2.7-0.5l0-1.4l-0.3-0.4l-3.3-1.2l-2.6-1.4l-4.4-3.3
		l-1.3-3.1l-1.1-0.6l-2.6,0.1l-0.7-0.4l-0.5-2.5l-3.4-1.6l-0.4,0l-2.1,1.7l-2.1,1l-0.2,0.5l0.3,1l-1.9,0l-0.1-10.5l6-1.7l6.2,3.5
		l2.7,2.8l7-0.7l2.7,2l-0.2,2.8l0.4,0.4l0.9,0l0.4,2.1l0.4,0.3l2.9,0.1l1,1.4l1.3-0.2l1-2L659.1,420.9L659.1,420.9z"/>
	<path fill="#C6E4EA" d="M734.4,478.4l-2,1.6l-0.6,1l-1.4,0.6l-1.4,1.1l-2,0.4l-1.1,2.7l-0.9,0.4l-0.2,0.6l1.2,2.3l2.5,3.4l-0.8,1.9
		l-0.7,0.4l-0.2,0.5l0.7,1.4l1.6,1.9l0.2,2.6l0.9,2.1l-1.9,3.6l0.7-2.2l-0.8-1.7l0.2-2.6l-1-1.5l-1.2-6.2l-1.1-2.3l-0.6-0.1l-4.3,3
		l-2.4-0.6l0.8-2.8l-0.5-2.6l-1.9-3l0.2-0.8l-0.3-0.5l-1.3-0.3l-1.6-1.9l-0.1-1.3l0.8-0.2l0-1.6l1-0.5l0.2-0.4l-0.2-1l0.5-1l0.1-2.2
		l1.5,0.4l0.5-0.2l1.1-2.2l0.2-1.4l1.3-2.2v-1.5l2.9-1.7l1.6,0.4l0.5-0.4l-0.2-1.4l0.6-0.4l0.1-1l0.8-0.1l0.7,1.4l1.1,0.7l0,3.9
		l-2.4,2.4l-0.3,3.1l0.5,0.4l2.3-0.4l0.5,2.1l1.5,0.7l-0.6,1.8l0.2,0.5l3,1.5l1.6-0.6L734.4,478.4L734.4,478.4z"/>
	<path fill="#30600A" d="M453.1,502.3l-0.2-2.4l-1-0.9l-0.4-1.3l-0.1-1.3l0.8-0.6l0.4-1.2l2.4,0.6l1.3-0.5l0.9,0.1l0.7-0.6l9.8,0
		l0.4-0.3l0.6-1.8l-0.4-0.6l-2.4-21.9l3.3,0l16.7,11.4l0.7,1.3l2.5,1.1l0,1.4l0.4,0.4l2.3-0.2l0,5.4l-1.3,1.6l-0.3,1.5l-5.3,0.6
		l-1.1,0.9l-2.9,0.1l-0.9-0.5l-1.4,0.4l-2.4,1.1l-0.6,0.9l-1.9,1.1l-0.4,0.7l-0.8,0.4l-1.4-0.2l-0.8,0.8l-0.3,1.6l-1.9,2l-0.1,1
		l-0.7,1.2l0.1,1.2l-1,0.4l-0.2-0.6l-0.5-0.2l-1.4,0.4l-0.3,0.5l-2.7-0.3l-0.4-0.4l0-0.9l-0.6-0.4l0.5-0.6l0-0.5l-2.1-2.4l-0.8,0
		l-2,1.2l-0.8-0.1l-0.8-0.7L453.1,502.3L453.1,502.3z"/>
	<path fill="#C6E4EA" d="M737.1,394.7l3.8,1.7l5.7-1l2.4,0.4l2.3,1.5l1.8,1.8l2.3,0l3.1,0.5l2.5-0.8l3.4-0.6l3.5-2.2l1.2,0.3
		l1.5,1.1l2.3-0.2l-2.7,5l0.6,1.7l0.5,0.2l1.3-0.4l2.4,0.5l2-1.1l1.8,0.9l2.1,2l-0.1,0.5l-1.7-0.3l-3.8,0.5l-1.9,1l-1.8,2l-3.7,1.2
		l-2.5,1.6l-3.8-0.9l-0.4,0.2l-1.3,2l1,2.2l-1.5,0.9l-1.7,1.6l-2.8,1l-3.8,0.1l-4,1.1l-2.8,1.5l-1.2-0.9h-2.9l-3.6-1.8l-2.6-0.5
		l-3.4,0.4l-5.1-0.7l-2.6,0.1l-1.3-1.6l-1.4-3l-1.5-0.3l-3.1-1.9l-6.2-0.9l-0.7-1.1l0.9-3.8l-1.9-2.7l-3.5-1.2l-2-1.6l-0.5-1.7
		l2.3-0.5l4.8-2.8l3.6-1.5l2.2,1l2.5,0l1.8,1.5l2.5,0.1l4,0.7l2.4-2.3l0.1-0.5l-0.9-1.7l2.2-3l2.6,1.3l4.9,1.2L737.1,394.7
		L737.1,394.7z"/>
	<path fill="#C6E4EA" d="M533.3,422.2l0.5-0.7l3.6-0.7l1,0.8l0.1,1.5l-0.6,0.5l-1.2-0.1l-1.1,0.7l-1.4,0.2l-0.8-0.6l-0.3-1
		L533.3,422.2L533.3,422.2z"/>
	<path fill="#C6E4EA" d="M566,557.5l0.9,2l0.1,2.9l-0.7,1.6l0.7,1.8l0.1,1.3l0.5,0.6l0.1,1.1l0.4,0.5l0.8-0.2l0.5,0.6l0.7-0.2
		l0.3,0.6l0.2,2.9l-1,0.6l-0.5,1.2l-1.1-1.1l-0.2-1.6l0.5-1.3l-0.3-1.3l-1-0.6l-0.8,0.1l-2.4-1.6l0.6-2l0.8-1.2l-0.5-2l0.9-2.9
		l-0.9-2.5l1,0.2L566,557.5L566,557.5z"/>
	<path fill="#C6E4EA" d="M467.8,468.8l-2.6,0l-0.4,0.4l2.4,22.6l0.4,0.4l-0.4,1.2l-9.8,0l-0.6,0.5L456,494l-1.3,0.4l-1.6-0.7l-1,0
		l-0.4,0.3l-0.4,1.4l-0.4,0.2l-2.9-3.4l-3-1.5l-1.6,0l-1.3,0.5l-1.1-0.2l-0.6,0.4l-0.1-0.5l0.7-1.3l0.3-2.4l-0.6-3.9l0.2-1.2
		l-0.7-1.5l-1.1-1l0.2-0.4l9.6,0l0.4-0.5l-0.5-3.7l0.5-1l2.1-0.2l0.4-0.4l-0.1-6.4l7.8,0.1l0.4-0.4l0-3.3L467.8,468.8L467.8,468.8z"
		/>
	<path fill="#81A000" d="M559,524.5l0.7-0.5l1.7,0.5l2-0.6l1.7,0l1.5-1l0.9,1.3l1.3,4l-2.6,4l-1.5-0.4l-2.5,0.9l-1.4,1.6l0,0.8
		l-2.4,0l-2.3,1l-0.2-1.6l0.6-1l0.1-1.9l1.4-2.3l1.8-1.6l-0.2-0.7l-0.7-0.2L559,524.5L559,524.5z"/>
	<path fill="#C6E4EA" d="M777.9,521.6l-1.4,0.7l-2.1-0.4h-2.9l-0.4,0.3l-0.8,2.8l-1,1l-1.2,3.3l-1.7,0.5l-2.5-0.7l-1.4,0.3l-1.3,1.1
		l-1.6-0.1l-1.4,0.4l-1.4-1.2l-0.2-0.7l1.3,0.5l1.9-0.5l0.8-2.2l4-1l2.8-3.2l0.8,0.9l0.6,0l0.4-0.6l1,0.1l0.4-0.4l0.2-2.7l1.8-1.6
		l1.2-1.9l0.6,0l1.1,1l0.3,1.3l3.4,1.4l-0.1,0.3l-1.4,0.1l-0.3,0.5L777.9,521.6L777.9,521.6z M734.2,517.8l0.2,1.1l0.5,0.3l1.7-0.3
		l0.9-0.9l1.6,1.5l1,1.6l-0.1,2.8l0.4,2.3l1,0.9l0.9,2.4l-1.3,0.1l-5.1-3.7l-0.3-1.3l-1.4-1.6l-0.3-2l-0.9-1.4l0.2-1.7l-0.5-1
		L734.2,517.8L734.2,517.8z"/>
	<path fill="#C6E4EA" d="M193.6,448.6l0.2,0.5l9.6,3.3l7,0l0.4-0.4v-0.7h3.8l3.6,2.9l1.4,2.8l1.5,1l2.1,0.8l0.5-0.1l1.5-2l1.7,0
		l1.6,1l2.1,3.4l1.5,1.6l1.3,3.1l2.2,1l2.3,0.6l-1.2,3.7l-0.4,5l1.8,4.9l1.6,1.9l0.6,1.5l1.2,1.4l2.6,0.7l1.4,1.1l7.5-1.9l1.9-1.3
		l1.1-4.3l4.1-1.2l3.6-0.1l0.3,0.3l-0.1,0.9l-1.3,1.5l-0.7,1.7l0.4,0.7l-0.7,2.3l-0.5-0.3l-1,0.1l-1,1.4l-0.5-0.1l-0.5,0.5l-4.3,0
		l-0.4,0.4v1.1l-1.1,0.3l0.1,0.4l1.8,1.4l0.6,0.9l-3.2,0.2l-1.2,2.1l0.2,0.7l-0.2,0.4l-2.2-2.2l-1.4-0.9l-2.2-0.7l-1.5,0.2l-3.1,1.2
		l-10.6-3.9l-2.9-2l-3.8-0.9l-1.1-1.2l-2.6-1.4l-1.2-1.5l-0.4-0.8l0.7-0.6l-0.2-0.5l0.5-0.8l0-0.9l-2-3.8l-2.2-2.6l-2.5-2.1
		l-1.2-1.6l-2.2-1.2l-0.3-0.4l0.3-1.5l-0.2-0.5l-1.2-0.6l-1.4-1.2l-0.6-1.8l-1.5-0.5l-2.4-2.6l-0.2-0.9l-1.3-2l-0.8-2l-0.2-1.3
		l-1.8-1.1l-1,0.1l-1.3-0.7l-0.6,0.2l-0.4,1.1l0.7,3.8l3.5,3.9l0.3,0.8l0.5,0.3l0.4,1.4l1.3,1.7l1.6,1.4l0.8,2.4l1.4,2.4l0.1,1.3
		l0.4,0.4l1,0.1l1.7,2.3l-0.9,0.8l-0.7-1.5l-1.7-1.5l-2.9-1.9l0.1-1.8l-0.5-1.7l-2.9-2l-0.6,0.1l-1.9-1.1l-0.9-0.9l0.7-0.1l0.9-1
		l0.1-1.8l-1.9-1.9l-1.5-0.8l-3.8-7.6L193.6,448.6L193.6,448.6z"/>
	<path fill="#C6E4EA" d="M899.5,571l0.2,1.1l-0.4,0l-0.2-1.5L899.5,571L899.5,571z"/>
	<path fill="#C6E4EA" d="M505,420.8l-0.6,1.8l-0.6-0.3l-0.5-1.7l0.4-0.9l1-0.7L505,420.8L505,420.8z M490.1,395.3l1.8,1.6l1.5-0.1
		l2.1,1.4l1.4,0.3l1.2,0.8l3,0.5l-1,1.9l-0.3,2.1l-0.4,0.3l-1-0.2l-0.5,0.4l0.1,0.6l-1.8,1.9l0,1.4l0.5,0.4l0.9-0.4l0.6,1l0,1
		l0.6,0.9l-0.8,1.1l0.6,2.4l1.3,0.6l-0.2,0.8l-2,1.5l-4.8-0.8l-3.8,1l-0.5,1.9l-2.5,0.3l-2.7-1.3l-1.2,0.6l-4.3-1.3l-0.7-0.9
		l1.2-1.8l0.4-6.5l-2.6-3.3l-1.9-1.7l-3.7-1.2l-0.2-1.7l2.8-0.6l4.1,0.8l0.5-0.5l-0.6-2.8l1.9,0.9l5.8-2.5l0.9-2.7l1.6-0.5l0.2,0.8
		l1.4,0.3L490.1,395.3L490.1,395.3z M349.5,526.6l-0.8,0.8l-0.8,0.1l-0.5-0.7l-0.6-0.1l-0.9,0.6l-0.5-0.2l1.1-3l-1-1.8l-0.2-1.5
		l1.1-1.8l2.3,0.8l2.5,2l0.3,0.7L349.5,526.6L349.5,526.6z"/>
	<path fill="#C6E4EA" d="M552.6,324.6l-0.2,3.5l3.5,2.6l-2.1,2.9l0,0.4l2.8,4.6l-1.6,3.3l2.2,3.2l-0.9,2.4l0.1,0.5l3.4,2.5l-0.8,1.6
		l-7.5,7l-4.5,0.3l-4.4,1.4l-3.8,0.7l-1.4-2l-2.2-1.1l0.5-3.7l-1.2-3.3l1.1-2.1l2.2-2.4l5.7-4.3l1.6-0.8l0.2-0.4l-0.5-2l-3.4-1.9
		l-0.8-1.4l-0.2-6.7l-6.8-4.8l0.8-0.6l2.5,2.1l3.5-0.1l3,1l2.5-2.1l1.2-3.1l3.5-1.4l2.8,1.5L552.6,324.6L552.6,324.6z"/>
	<path fill="#C6E4EA" d="M932,574.5l-2.8,1l-0.1-0.2l3-1.2L932,574.5L932,574.5z M928.1,577.4l0.4,0.4l-0.3,0.9L927,579l-1-0.2
		l-0.1-0.7l0.6-0.6l0.9,0.3L928.1,577.4L928.1,577.4z"/>
	<path fill="#C6E4EA" d="M334.8,674l1.4,1.1l-0.5,0.7l-3,0.9l-1-1l-0.5,0l-1.8,1.3l-0.7-0.9l2.5-1.6l1.9,0.8L334.8,674L334.8,674z"
		/>
	<path fill="#C6E4EA" d="M262.8,500.9l0.8-0.2l1-1l0-0.9h0.7l0.6-0.5l1,0.2l1.5-1.3l0.6-1l1.2,0.3l2.4-0.9l0.1,1.3l-0.8,1.9l0.1,2.7
		l-0.4,0.4l-0.1,1.8l-0.5,0.8l0.2,1.1l-1.7-0.9l-0.7,0.3l-1.5-0.6l-0.5,0.2L262.8,500.9L262.8,500.9z"/>
	<path fill="#C6E4EA" d="M490.8,391.6l0.6-0.5l2.1-4.8l3.2-1.3l1.7,0.1l0.3,0.8l-0.6,2.9l-0.5,1h-1.3l-0.4,0.5l0.3,2.7l-2.2-1.8
		l-2.6,0.6L490.8,391.6L490.8,391.6z"/>
	<path fill="#C6E4EA" d="M551.9,315.6l6.8,2.9l-2.3,0.9l-0.2,0.6l2.3,2.4l-5,1.8l0.8-2.4l-0.2-0.5l-3.5-1.8l-3.9,1.5l-1.4,3.4
		l-2.1,1.7l-2.6-1l-3.1,0.2l-2.7-2.2l-0.5,0l-1.4,1.1l-1.4,0.2l-0.3,0.4l-0.3,2.5l-4.3-0.6l-0.4,0.3l-0.6,2.1l-2.5,0.2l-4.1,7.7
		l-3.9,5.8l0.8,1.6l-0.6,1.2l-2.2-0.1l-0.4,0.2l-1.7,3.9l0.1,5.2l1.6,2l-0.8,4.2l-2,2.5l-0.9,1.6l-1.3-1.8l-0.6-0.1l-4.9,4.2
		l-3.1,0.8l-3.2-1.7l-0.9-3.8l-0.8-8.5l2.1-2.3l6.5-3.3l5-4.2l10.6-13.8l11-8.7l5.4-1.9l4.3,0.1l3.7-3.6l4.5,0.2L551.9,315.6
		L551.9,315.6z M545,268.2l4.3,1.8l-3.1,2.5l-7.1,0.6l-7.1-0.9l-0.4-1.3l-0.4-0.3l-3.4-0.1l-2.1-2l6.9-1.4l3.9,1.3l2.4-1.6
		L545,268.2L545,268.2z M542.2,282.1l-4.5,1.7l-3.5-1l1.1-0.9l0-0.6l-1.1-1.2l4.2-0.9l1.1,2L542.2,282.1L542.2,282.1z M526.9,272.2
		l7.4,3.8l-5.4,1.9l-1.6,4.1l-2.3,1.2l-1.1,4.1l-2.6,0.2l-4.8-2.9l1.8-1.5l-0.1-0.7l-3.7-1.5l-4.8-4.5l-1.7-3.9l6.1-1.8l1.5,1.9
		l3.6-0.1l1.2-2l3.3-0.2L526.9,272.2L526.9,272.2z"/>
	<path fill="#C6E4EA" d="M534.7,578.8l-1,0l-0.4,0.4l-0.1,8.9l-2.1,0.1l-0.4,0.4v17.4l-2,1.2l-1.2,0.2l-2.4-0.7l-0.5-1.1l-1-0.7
		l-0.5,0l-0.9,1l-1.5-1.7l-0.9-1.9l-2-8.6l-0.1-3.1l-0.3-1.5l-2.3-3.3l-1.9-4.8l-2-2.4l-0.1-1.6l2.3-0.8l1.4,0.1l1.8,1.1l10.2-0.2
		l1.8,1.2L534.7,578.8L534.7,578.8z M535.1,578.8l6.5-1.6l1.9,0.4l-1.7,0.4l-1.3,0.8l-1.1-0.9L535.1,578.8z"/>
	<path fill="#C6E4EA" d="M899.3,589.4l-0.3,0.2l-2.9-1.8l-3.3-3.4l1.7,0.8L899.3,589.4L899.3,589.4z"/>
	<path fill="#C6E4EA" d="M515.2,474.7l1.3,1.4l0.5,0.1l1.3-0.7l0.5,3.5l0.9,0.8l0.2,0.9l0.8,0.7l-0.4,1l-1,5.3l-0.1,3.2l-3,2.3
		l-1.2,3.6l1,1.2v1.5l0.4,0.4l1.1,0l-0.9,1.2l-1.5-2.4l-0.9-0.3l-2.1,1.4l-1.7-0.7l-1.5-0.2l-0.9,0.4l-1.4-0.1l-1.6,1.1l-1.1,0
		l-2.9-1.3l-1.4,0.6l-1,0l-1-0.9l-2.7-1l-2.7,0.3l-0.9,0.6l-0.5,1.6l-0.8,1.2l-0.1,1.5l-1.6-1.1l-1.3,0.2l0-0.8l-0.3-0.4l-2.6-0.5
		l-0.1-1.2l-1.4-1.6l-0.3-1l0.1-0.8l1.3-0.1l1.1-0.9l3.3-0.2l2.2-0.4l0.3-0.3l0.2-1.5l1.4-1.9l0-5.7l3.4-1.1l7.2-5.1l8.4-4.9
		L515.2,474.7L515.2,474.7z"/>
	<path fill="#C6E4EA" d="M516.8,502.1l0.6,0.6l-0.3,1l-2.1,2l-2,5.2l-1.4,1.2l-1.1,3.2l-1.3,0.7l-1.5-1l-1.2,0.2l-1.4,1.4l-0.9,0.2
		l-1.8,4.1l-2.3,0.8l-1.1-0.1l-0.9,0.5l-1.7,0l-1.2-1.4l-0.9-1.9l-1.8-1.7l-4-0.1l0.1-5.2l0.4-1.4l2-2.3l-0.1-0.9l0.4-1.2l-0.5-1.4
		l0.2-2.9l0.7-1.1l0.3-1.3l0.5-0.4l2.5-0.3l2.3,0.9l1.1,1l1.3,0l1.2-0.6l3,1.3l1.5-0.1l1.4-1l1.3,0.1l0.8-0.4l3.4,0.8l1.8-1.3
		l1.8,2.7L516.8,502.1L516.8,502.1z"/>
	<path fill="#C6E4EA" d="M918.3,627.8l1.9,3.1l0.4,0.2l0.3-0.4l0-1.2l0.4,0.3l0.6,2.3l2,0.9l1.8,0.3l1.6-1.1l0.7,0.2l-1.2,3.6
		l-2,0.1l-0.7,1.2l0.2,1.1l-2.4,4l-1.5,0.9l-1-0.9l1.2-2l-0.8-2l-2.6-1.2l0-0.6l1.8-1.2l0.4-2.3l-0.2-2l-1-1.8l-0.1-0.7l-3.1-3.6
		l-0.8-1.5l1.6,1.5l1.8,0.7L918.3,627.8L918.3,627.8z M914.3,641.8l0.6,1.2l0.6,0.2l1.4-1l0.5,0.8v1l-2.5,3.5l-1.3,1.2l-0.1,0.5
		l0.5,0.9l-1.4,0.1l-2.3,1.4l-2,5l-3,2.2l-2.1-0.1l-1.7-1l-2.5-0.2l-0.3-0.7l1.2-2.1l3-2.9l1.6-0.6l4-2.8l1.6-1.7l1.1-2.2l0.9-0.7
		l0.5-1.8l1.2-1L914.3,641.8L914.3,641.8z"/>
	<path fill="#C6E4EA" d="M701.6,461.8l0,3.2l-1.7,0l-4.8-0.9l-1.6-1.4l-3.4-0.3l-7.7-3.7l0.8-2.1l2.3-1.7l1.8,0.8l2.5,1.8l1.4,0.4
		l1,1.4l1.9,0.5l2,1.2L701.6,461.8L701.6,461.8z"/>
	<path fill="#C6E4EA" d="M467.9,507.5l0.9,0.4l0.6,0.9l1.1,0.5l1.2-0.6l1-0.1l1.4,0.5l0.6,3.2l-1,2.1l-0.6,2.8l1.1,2.3l-0.1,0.5
		l-2.5-0.5l-1.7,0l-3.1,0.5l-4.1,1.6l0.3-3.1l-1.2-1.3l-1.3-0.7l0.4-0.8l-0.2-1.4l0.5-0.7l0-1.6l0.8-0.3l0.3-0.5l-1.1-3l0.1-0.5
		l0.5-0.2l0.7,0.3l1.9,0l0.7-0.7l0.7-0.1l0.2,0.7l0.6,0.2L467.9,507.5L467.9,507.5z"/>
	<path fill="#C6E4EA" d="M505.1,404.5l-0.3,0.9l0.2,0.5l1.1,0.6l1,0.1l-0.1,0.6l-0.8,0.4l-1.7-0.4l-0.5,0.2l-0.5,1l-0.8,0.1
		l-0.8-0.4l-1.3,1l-1,0.1l-0.9-0.6l-0.8-1.3l-0.5-0.2l-0.6,0.3l0-0.6l1.7-1.7l0.1-0.6l0.9,0.1l0.6-0.5l2,0l0.7-0.6L505.1,404.5
		L505.1,404.5z"/>
	<path fill="#30600A" d="M302.5,503.1l-1.7,0.6l-0.6,1.2l-1.7,1.7l-0.4,1.9l-0.7,1.4l0.3,0.6l1,0.1l0.2,0.9l0.6,0.6l0,2.3l1.6,1.4
		l3.2-0.2l1.3,0.3l1.7,2.1l0.4,0.1l4.1-0.4l0.4,0.2l-0.9,2l-0.2,1.8l0.5,1.8l0.8,1l-1.1,1.1l0.1,0.6l0.8,0.5l0.7,1.3l-0.4-0.5
		l-0.6,0l-0.7,0.7l-4.7,0l-0.4,0.4l0,1.6l0.3,0.4l1.1,0.2l-1.7,0.4l-0.3,0.4l0,1.8l1.2,1.1l0.3,1.2l-1.1,7l-1-0.9l1.3-2l-0.1-0.6
		l-2.2-1.2l-1.4,0.2l-1.1-0.4l-1.3,0.6l-1.5-0.3l-1.4-2.5l-1.2-0.8l-0.9-1.2l-1.7-1.2l-0.9,0.1l-2.1-1.3l-1,0.3l-1.8-0.3l-0.5-0.9
		l-3.1-1.7l0.8-0.5l-0.1-1.1l0.4-0.6l1.3-0.3l2-2.9l-0.1-0.6l-0.7-0.4l0.4-1.4l-0.5-2.1l0.5-0.8l-0.4-2.1l-1-1.4l0.2-0.7l0.9-0.1
		l0.5-0.8l-0.5-1.6l1.4-0.1l1.8-1.7l0.9-0.2l0.3-0.4l0.5-2.8l1.2-1l1.4,0l0.4-0.5l1.9,0.1l2.9-1.8l1.1-1.1l0.9,0.5L302.5,503.1
		L302.5,503.1z"/>
	<path fill="#C6E4EA" d="M800.7,397.2l4.6,1.3l2.8,2.2l1,2.9l0.4,0.3h3.8l2.3-1.3l3.3-0.8l-1,2.1l-1,1.3l-0.8,3.4l-1.5,2.7l-2.8-0.5
		l-2.4,1.1l-0.2,0.5l0.6,2.6l-0.3,3.2l-0.9,0.1l-0.4,0.9l-0.9-1l-0.6,0.1l-0.9,1.6l-3.7,1.2l-0.3,0.5l0.3,1.1l-1.5-0.1l-1.1-0.9
		l-0.6,0.1l-1.7,2.1l-2.7,1.6l-2,1.9l-3.4,0.8l-1.9,1.4l-1.2,0.3l0.3-0.7l-0.4-0.9l1.8-1.8l0-0.5l-1.3-1.6l-0.5-0.1l-2.2,1.1
		l-2.8,2.1l-1.5,1.8l-2.3,0.1l-1.5,1.5l0,0.5l1.3,2l2,0.6l0.3,1.4l2,0.8l3-2l2,1l1.5,0.1l0.2,0.8l-3.4,0.9l-1.1,1.5l-2.5,1.5l-1.3,2
		l0.1,0.6l2.6,1.5l1,2.7l3.2,4.6l0,1.7l-1.3,0.6l-0.2,0.5l0.6,1.5l1.4,0.9l-0.9,3.8l-1.4,0.4l-3.8,6.4l-2.3,3.1l-6.8,4.6l-2.7,0.3
		l-1.5,1l-0.6-0.6l-0.5,0l-1.4,1.2l-3.4,1.3l-2.6,0.4l-1.1,2.8l-0.8,0.1l-0.5-1.4l0.5-0.9l-0.2-0.6l-3.4-0.8l-1.3,0.4l-2.3-0.6
		l-0.9-0.8l0.3-1.3l-0.3-0.5l-2.2-0.5l-1.1-0.9l-0.5,0l-2.1,1.4l-4.3,0.3l-2.8,1.1l-0.3,0.4l0.3,2.5l-0.6,0l-0.2-1.3l-0.5-0.3
		l-1.7,0.7l-2.5-1.2l0.6-1.9l-0.3-0.5l-1.4-0.4l-0.5-2.2l-0.5-0.3l-2.1,0.4l0.2-2.5l2.4-2.4l0-4.3l-1.2-0.9l-0.8-1.5l-0.4-0.2
		l-1.4,0.2l-2-0.3l0.5-1.1l-1.2-1.7l-0.5-0.1l-1.6,1.1l-2.2-0.6l-2.9,1.7l-2.2,2l-1.8,0.3l-1.2-0.7l-3.3-0.6l-1.5,0.8l-1,1.3
		l-0.1-1.2l-0.5-0.3l-1.4,0.5l-5.5-0.9l-2-1.2l-1.9-0.5l-1-1.4l-1.3-0.4l-2.5-1.8l-2-0.8l-1.2,0.6l-5.6-3.4l-0.5-2.3l1.2,0.2
		l0.5-0.4l0.1-1.4l-1-1.6l0.2-2.4l-2.7-3.3l-4.1-1.2l-0.7-2l-1.9-1.5l-0.4-0.7l-0.5-3l-1.5-0.7l-0.7,0.1l-0.5-2l0.5-0.5l-0.1-0.8
		l2-1.2l1.6-0.5l2.6,0.4l0.4-0.2l0.8-1.7l3-0.3l1.1-1.3l4-1.8l0.4-0.9l-0.2-1.4l1.5-0.7l0.2-0.5l-2.1-4.9l4.5-1.1l1.4-0.7l1.9-5.5
		l5,0.9l1.5-1.7l0.1-2.9l2-0.4l1.8-2.1l0.5-0.1l0.7,2.1l2.2,1.8l3.4,1.2l1.5,2.3l-0.9,3.5l1,1.7l6.5,1.1l3,1.9l1.5,0.4l1.1,2.6
		l1.5,1.9l3,0.1l5.1,0.7l3.4-0.4l2.4,0.4l3.7,1.8l3.1,0l1.5,0.9l2.9-1.6l4-1l3.8-0.1l3.1-1.1l1.8-1.6l1.7-1l0.2-0.5l-1.1-2.1l1-1.5
		l4,0.8l2.5-1.6l3.8-1.2l2-2.1l1.6-0.8l3.5-0.4l1.9,0.3l0.5-0.3l0.2-1.5l-2.3-2.2l-2.1-1.1l-2.2,1.1l-2.3-0.5l-1.3,0.3l-0.4-0.8
		l2.7-5.2l3,1.1l3.5-2.1l0.2-1.7l2.2-3.4l1.5-1.4l0-1.9l-1.1-0.9l1.5-1.3l3-0.6l3.2-0.1l3.6,1l2,1.2l3.3,6.7L800.7,397.2
		L800.7,397.2z M757.4,485.5l-1.9,1.1l-1.6-0.6l-0.1-1.8l1-1l2.6-0.7l1.2,0.1l0.3,0.5l-1,1.1L757.4,485.5z"/>
	<path fill="#C6E4EA" d="M518.4,505.7l1,1.9l-1.4,0.2l-1-0.2l-0.5,0.2l-0.5,1.2l0.1,0.5l1.5,1.5l1,0.5l1,2.5l-1.5,3l-0.7,0.7
		l-0.1,3.7l2.4,3.8l1.1,0.8l0.2,2.5l-3.7-1.1l-11.3-0.1l0.2-1.8l-1-1.7l-1.2-0.5l-0.4-1l-0.6-0.4l1.7-4.3l0.8-0.1l1.4-1.4l0.6,0
		l1.7,1l1.9-1.1l1.1-3.2l1.4-1.2l2-5.1l2.2-2.1l0.3-1.6l-0.9-0.9l0-0.3l0.9,1.3L518.4,505.7L518.4,505.7z"/>
	<path fill="#D1E870" d="M307,677.4l-3.1,1.8l-0.6,3.2l-0.6,0l-2.7-1.1l-2.8-2.3l-3-1.9l-0.7-1.9l0.6-2.1l-1.2-2.1l-0.3-5.4l1-2.9
		l2.6-2.4l-0.2-0.7l-3.2-0.8l2-2.5l0.8-4.7l2.3,0.9l0.5-0.3l1.3-6.3l-0.2-0.4l-1.7-0.8l-0.6,0.3l-0.7,3.4l-0.8-0.2l1.6-9.4l1.1-2.2
		l-0.7-2.8l-0.2-2.8l1-0.3l3.3-9.1l1.1-4.2l-0.6-4.2l0.7-2.3l-0.3-3.3l1.5-3.3l2-16.6l-0.7-7.8l1-0.5l0.5-0.9l0.8,1.1l0.3,1.8
		l1.2,1.2l-0.7,2.5l1.3,2.9l1,3.6l0.5,0.3l1.5-0.3l0.1,0.2l-0.8,2.4l-2.6,1.2l-0.2,0.4l0.1,4.3l-0.5,0.8l0.6,1.2l-1.6,1.5l-1.7,2.6
		l-0.9,2.5l0.2,2.7l-1.5,2.7l1.1,5.1l0.6,0.6l0,2.3l-1.4,2.7l0,2.4l-1.9,2l0,2.8l0.7,2.6l-1.4,1.1l-1.3,5.7l0.4,3.5l-1,0.9l0.6,3.5
		l1,1.1l-0.6,1l0.1,0.6l1,0.5l0.2,0.7l-1,0.8l0.3,1.8l-0.9,4l-1.3,2.7l0.2,1.8l-0.7,1.8l-2,1.7l0.3,3.7l0.9,1.2l1.6,0l0,2.2l1,2
		L307,677.4L307,677.4z M309.2,679v7.3l0.4,0.4l3.5,0l-0.4,0.8l-1.9,1l-2.5-0.4l-1.9-1.1l-2.5-0.5l-5.6-3.7l-2.4-2.6l4.1,2.5
		l3.3,1.2l0.4-0.1l1.3-1.6l0.8-2.3l2.1-1.2L309.2,679L309.2,679z"/>
	<path fill="#C6E4EA" d="M340.5,393.8l-1.7,2.9l0.1,0.5l0.5,0l1.5-1l1,0.4l-0.6,0.7l0.2,0.6l2.2,0.9l1.4-0.7l2,0.8l-0.7,2l0.5,0.5
		l1.3-0.4l1,3.2l-0.9,2.4l-0.8,0.1l-1.2-0.5l0.5-2.2l-0.9-0.8l-0.5,0.1l-2.8,2.6l-0.3,0l1-0.9l-0.1-0.7l-2.4-0.8l-7.4,0.1l-0.2-0.4
		l1.3-0.9l0-0.6l-0.7-0.6l1.9-1.7l2.6-5.2l1.5-1.8l2-1.1l0.5,0.1L340.5,393.8L340.5,393.8z M128.8,322.3l4.1,0.9l4,2.1l2.6,0.4
		l2.5-1.9l2.9-1.3l3.8,0.5l3.7-1.9l3.8-1l1.6,1.7l0.5,0.1l1.9-1l0.6-2l1.2,0.3l4.2,3.9l0.5,0l2.8-2.5l0.3,2.6l0.5,0.4l3.1-0.7l1-1.3
		l2.7,0.2l3.8,1.9l5.9,1.6l3.5,0.8l2.4-0.3l2.7,1.8l-3,1.8l-0.2,0.4l0.3,0.3l4.5,0.9l6.9-0.5l2-0.7l2.5,2.4l0.5,0l2.7-2.2l0-0.6
		l-2.2-1.5l1.1-1.1l4.8-0.6l1.8,0.9l2.5,2.3l3-0.2l4.6,1.9l3.9-0.7l3.6,0.1l0.4-0.4l-0.2-2.4l1.8-0.6l3.5,1.3l0,3.8l0.3,0.4l0.4-0.2
		l1.5-3.2l1.7,0.1l0.4-0.3l1.1-4.4l-2.8-3.1l-2.8-1.7l0.2-4.6l2.7-3.1l3,0.7l2.4,2l3.2,4.8l-2,2l0.2,0.7l4.3,0.8l0,4.1l0.2,0.4
		l0.4-0.1l3.1-3.1l2.5,2.4l-0.6,3.3l2.4,2.9h0.6l2.6-3.1l1.9-3.8l0.2-4.6l6.7,0.9l3.1,2l0.1,1.8l-1.8,2.2l0,0.5l1.7,2.2l-0.3,1.7
		l-4.7,2.8l-3.3,0.6l-2.5-1.2l-0.6,0.2l-0.7,2l-2.4,3.4l-0.7,1.8l-2.7,2.6l-3.4,0.2l-2.2,1.8l-0.3,2.5l-2.8,0.6l-3.1,3.2l-2.7,4.3
		l-1,3.2l-0.1,4.3l0.3,0.4l3.4,0.6l2.2,5.9l0.4,0.2l3.4-0.7l4.5,1.5l2.4,1.3l1.9,1.7l3.1,1l2.6,1.5l6.6,0.5l-0.4,2.7l0.8,3.5
		l1.8,3.8l3.8,3.3l0.5,0l2.1-1.3l1.4-3.7l-1.3-5.4l-1.5-1.6l3.6-1.5l2.8-2.5l1.5-2.8l-0.2-2.5l-1.7-3.1l-2.9-2.6l2.8-3.9l-1.1-3.4
		l-0.8-5.7l1.4-0.7l6.8,1.4l2.1-1l5.1,3.4l1,1.6l4.1,0.3l-0.1,2.9l0.8,4.7l0.3,0.3l2.2,0.5l1.7,2.1l0.5,0.1l3.6-2l2.5-4.2l1.3-1.3
		l7.6,11.7l-0.9,2l0.2,0.5l3.3,2l2.2,2l4.1,1l1.4,1l1,2.8l2.1,0.7l0.8,1.1l0.2,3.4l-3.4,2.3l-4.2,1.2l-3.1,2.6l-4.1,0.5l-5.4-0.7
		l-6.4,0.2l-2.3,2.4l-3.3,1.5l-6.5,7.1l-0.1,0.5l0.4,0.2l2.1-0.5l4.2-4.2l5.1-2.6l3.5-0.3l1.7,1.2l-2.1,2.2l0.8,3.5l1,2.6l3.5,1.6
		l4.1-0.5l2.1-2.8l0.3,1.5l1.1,0.8l-2.6,1.7l-5.5,1.8l-2.5,1.3l-2.7,2.1l-1.4-0.2l-0.1-2l4.1-2.4l0.2-0.5l-0.4-0.3l-6.6,0.4
		l-1.4-1.5l-0.1-4.4l-1.1-0.9l-1.8,0.4l-0.7-0.7l-0.6,0l-1.9,2.4l-0.8,2.5l-0.8,1.3l-1.7,0.6l-0.5,0.8l-8.3,0.1l-1.2,0.6l-2.4,2
		l-0.7-0.1l-1.4,1l-1.1-0.5l-4.7,1.3l-0.9,1.2l0.2,0.6l1.7,0.3l-1.8,0.3l-1.9,0.8l-2.1-0.1l-2.9,1.8l-0.7-0.1l1.4-2.1l1.7-1.2
		l0.1-2.3l1.2-2l0.5,0.5l2,0.4l1.2-1.2l0-0.5l-2.7-3.5l-2.3-0.6l-5.6-0.7l-0.4-0.6l-0.8,0.1l0.2-0.4l-0.2-0.6l-0.7-0.3l0.2-1.3
		L269,404l0.3-0.6l-0.3-0.6l-2.6-0.4l-0.8-1.6l-0.9-0.7l-4.3-0.6l-1.1,1.2l-1.5,0.6l-0.9,1.1l-2.8-0.8l-2.1,0.4l-2.4-1l-4.2-0.7
		l-0.6-0.4l-0.4-1.6l-0.4-0.3l-0.9,0l-0.4,0.4l0,0.9l-69.1,0l-6.5-4.5l-4.5-1.4l-1.3-2.7l0.3-1.9l-0.2-0.4l-3-1.4l-0.6-2.8l-2.9-2.4
		l0-1.5l1.4-1.8l-0.3-2.6l-4.2-2.2l-4.1-6.6l-4-3.2l-1.3-1.9l-0.5-0.1l-2.5,1.2l-2.2,1.9l-3.9-3.9l-2.4-1l-2.2-0.1L128.8,322.3
		L128.8,322.3z M320.8,396.8l3,0.8l2.3,1.2l-3.8-0.9L320.8,396.8L320.8,396.8z M309.9,252l6.7,0.5l5.3,0.8l4.3,1.6l-0.1,1.1
		l-5.9,2.5l-6,1.2l-2.4,1.4l-0.2,0.5l0.4,0.3l4,0l-4.6,2.8l-4.2,1.7l-4.2,4.6l-5,0.9l-1.7,1.1l-7.5,0.6l-0.4,0.4l0.3,0.4l2.4,0.5
		l-0.8,0.5l-0.1,0.6l1.8,2.4l-2,1.6l-3.8,1.5l-1.3,2.2l-3.4,1.5l-0.2,0.5l0.4,1.2l0.4,0.3l3.9-0.2l0,0.6l-6.3,2.9l-6.4-1.4l-7.4,0.8
		l-3.7-0.6l-4.4-0.2l-0.2-1.8l4.3-1.1l0.3-0.5l-1.1-3.5l1-0.2l6.6,2.3l0.5-0.2l0-0.5l-3.4-3.5l-3.6-1l1.5-1.6l4.3-1.3l1-2.2
		l-0.2-0.5l-3.4-2.1l-0.8-2.3l6.2,0.2l2.2,0.6l3.9-2.1l0.2-0.4l-0.4-0.3l-5.6-0.7l-8.7,0.4l-4.3-1.9l-2.1-2.4l-2.8-1.7l-0.4-1.5
		l3.3-1l2.9-0.2l4.9-1l3.7-2.3l2.9,0.3l2.6,1.7l0.6-0.1l1.8-3.2l3.1-0.9l4.4-0.7l7.5-0.3l1.5,0.7l7.2-1.1L309.9,252L309.9,252z
		 M264.3,305.7l0,0.4l2,3l0.7,0l2.2-3.7l6-1.9l4,4.6l-0.4,2.9l0.5,0.4l5-1.4l2.3-1.8l5.3,2.3l3.3,2.1l0.3,1.8l0.5,0.3l4.4-1l2.6,2.9
		l6,1.8l2.1,1.7l2.1,3.7l-4.2,1.9l0,0.7l5.9,2.8l3.9,0.9l3.8,3.9l3.5,0.2l-0.6,2.4l-4.1,4.5l-2.8-1.6l-3.9-3.9l-3.6,0.4l-0.3,0.3
		l-0.2,2.7l2.6,2.4l3.4,1.9l0.9,1l1.5,3.8l-0.7,2.3l-2.7-0.9l-6.2-3.1l-0.5,0.1l0.1,0.5l6.1,5.7l0.2,0.6l-6.1-1.4l-5.3-2.2l-2.6-1.7
		l0.6-0.8l-0.1-0.6l-7.4-4l-0.6,0.4l0,0.8l-6.7,0.6l-1.7-1.1l1.4-2.5l4.5-0.1l5.1-0.5l0.3-0.6l-0.7-1.3l0.8-1.8l3.2-4.1l-0.7-2.3
		l-1.1-1.6l-3.8-2.1l-4.4-1.3l0.9-0.6l0.1-0.6l-2.6-2.8l-2.3-0.4l-1.9-1.5l-0.5,0l-1.2,1.2l-4.4,0.5l-9-1l-9.3-2l-1.6-1.2l2.2-1.8
		l0.1-0.4l-0.4-0.3l-3.2,0l-0.7-4.2l1.8-4l2.4-1.9l5.5-1.1L264.3,305.7L264.3,305.7z M321.7,407.5l2.1,0.6l1.4,0l-1.1,0.6l-2.9-1.2
		l-0.4-0.7l0.4-0.4L321.7,407.5L321.7,407.5z M291.3,332.6l-2.4,0.2l-0.5-1.6l0.9-2.1l1.9-0.5l1.6,1l0,1.5L291.3,332.6L291.3,332.6z
		 M289.9,306.4l0.1,0.6l-4.9-0.2l-2.7,0.6l-3.1-2.6l0.1-1.3l0.9-0.2l5.6,0.5L289.9,306.4L289.9,306.4z M282.5,353.2l-0.7,1.5
		l-0.6-0.2l-0.5-0.8l0.8-1l0.6,0L282.5,353.2L282.5,353.2z M244.2,286.5l2.9,1.7l4.8,0l1.8,1.5l-0.5,1.7l0.2,0.5l2.8,1.1l1.8,1.3
		l7,0.6l4.1-1.1l5-0.4l3.9,0.4l2.5,1.8l0.5,1.7l-1.3,1.1l-3.6,1l-3.2-0.6l-7.2,0.8l-5.1,0.1l-4-0.6l-6.4-1.5l-0.8-2.5l-0.3-2.5
		l-2.6-2.5l-5.3-0.7l-2.5-1.4l0.7-1.6L244.2,286.5L244.2,286.5z M267.9,339.5l0.4,1.6l0.6,0.3l1.1-0.5l1.3,1l5.4,2.6l0.2,1.7
		l0.5,0.4l1.7-0.3l1.1,0.9l-1.6,0.9l-3.6-0.9l-1.3-1.7l-0.6-0.1l-2.5,2.1l-3.1,1.8l-0.7-1.9l-0.4-0.3l-2.2,0.2l1.4-1.4l0.3-3.1
		l0.8-3.4L267.9,339.5L267.9,339.5z M276,350.8l-2.7,2l-1.4-0.1l-0.3-0.6l1.5-1.5L276,350.8z M263.2,272.3l2.5,1.6l-2.9,1.4
		l-4.5,4.1l-4.2,0.4l-5-0.7l-2.4-2l0-1.6l1.8-1.4l0.1-0.4l-0.4-0.3l-4.4,0l-2.6-1.8l-1.4-2.3l1.6-2.3l1.6-1.7l2.4-0.4l0.2-0.7
		l-0.6-0.7l4.9-0.2l3.2,3.1l8.2,2.3L263.2,272.3L263.2,272.3z M247.9,307.4l-2.8,3.5l-2.4-0.1l-1.4-3.8l0-2.2l1.2-1.9l2.3-1.2
		l5.1,0.2l4.1,1l-3.2,3.7L247.9,307.4L247.9,307.4z M246.5,297l-1.1,1.5l-3.3-0.3l-2.6-1.1l1-1.8l3.2-1.2l1.9,1.6L246.5,297
		L246.5,297z M246.2,283.5l-5.3-0.2l-0.3-0.7l4.3,0.1L246.2,283.5L246.2,283.5z M241.2,280.7l-3.3,1l-1.8-1.1l-1-1.9l-0.1-1.7
		l4.1,0.5l2.7,1.7L241.2,280.7L241.2,280.7z M241.4,324.5l-1.1,1.1l-3.1-1.2l-2.1,0.4l-2.7-1.6l1.7-1.1l1.6-1.7l3.8,1.9L241.4,324.5
		L241.4,324.5z M230.2,303.1l3,1l4.2-0.6l0.4,0.9l-2.1,2.1l0.1,0.6l3.6,1.9l-0.4,3.7l-3.8,1.6l-2.2-0.4l-1.7-1.7l-6-3.5l0-0.9
		l4.7,0.5l0.4-0.2l-0.1-0.5l-2.5-2.8L230.2,303.1L230.2,303.1z M234.9,288.9l1.4,1.7l0.1,2.4l-1.1,3.4l-3.8,0.5l-2.3-0.7l0.1-2.6
		l-0.4-0.4l-3.7,0.4l-0.1-3.1l2.4,0.1l3.7-1.7l3.4,0.3L234.9,288.9L234.9,288.9z M230.5,279.7l0.7,1.6l-3.3-0.5l-4.2-1.8l-4.4-0.2
		l1.4-0.9l-0.1-0.7l-2.8-1.2l-0.1-1.4l4.4,0.7l6.6,2L230.5,279.7L230.5,279.7z M195,306.3l-1,1.8l0.4,0.6l5.4-1.4l3.3,2.3l0.5,0
		l2.6-2.2l1.9,1.3l2,4.5l0.7,0.1l1.3-2.3l-1.6-4.5l1.7-0.5l2.3,0.7l2.6,1.8l2.5,7.9l8.5,4.3L228,322l-3.8,0.3l-0.3,0.7l1.4,1.5
		l-0.6,1.1l-4.2-0.6l-4.4-1.2l-3,0.3l-4.7,1.5l-10.5,1l-1.4-2l-3.4-1.2l-2.2,0.4l-2.5-2.9l4.8-1.1l3.6,0.2l3.3-0.8l0.3-0.4l-0.3-0.4
		l-4.8-1.1l-8.8,0.3l-0.9-1.1l5.3-1.7l0.3-0.5l-0.4-0.3l-3.8,0.1l-3.8-1.1l1.8-3l1.7-1.8l6.5-2.8L195,306.3L195,306.3z M219.2,304.8
		l-1.7,2.4l-3.2-2.8l0.4-0.3l3.1-0.2L219.2,304.8z M210.1,290.9l1,1.9l0.5,0.2l2.1-0.8l2.2,0.2l0.4,2l-1.3,2.1l-8.3,0.8l-6.4,2.1
		l-3.4,0.1l-0.2-1l4.9-2.1l0.2-0.5l-0.4-0.3l-11.2,0.6l-2.9-0.7l3-4.4l2.1-1.3l6.8,1.7l4.6,3.1l4.4,0.4l0.4-0.6l-3.4-4.6l1.9-1.5
		l2.2,0.5L210.1,290.9L210.1,290.9z M205.2,282.6l-4.4,1.4l-3-1.4l1.5-1.2l3.5-0.5l3,0.7L205.2,282.6L205.2,282.6z M205.6,278
		l-1.9,0.7H200l2.3-1.6L205.6,278L205.6,278z M179.4,314l-6,2l-1.3-1.9l-5.4-2.3l2.6-5.1l2.2-3.1l0-0.5l-2-2.4l7.6-0.7l3.6,1
		l6.3,0.3l4.4,3l-2.5,1l-6.2,3.4l-3.1,3.3L179.4,314L179.4,314z M190,283.7l-0.3,3.4l-1.7,1.6l-2.3,0.3l-4.6,2.2l-3.9,0.8l-2.6-0.9
		l3.7-3.4l5-3.3l3.7,0.1L190,283.7L190,283.7z M171.6,400.9l-0.7,0.2l-3.8-1.4l-0.8-1.2l-2.1-1.1l-0.7-1l-2.4-0.5l-0.7-1.7l6,1.5
		l2,2.5l2.5,1.4L171.6,400.9L171.6,400.9z M148.3,382.8l0.9,0.3l1.9-0.2l-0.7,3.3l1.7,2.3l-1.3-1.3l-1-1.6l-1.2-1L148.3,382.8
		L148.3,382.8z"/>
	<path fill="#ADC937" d="M527.2,524.7l-0.1,1l-1.2,3l-0.2,3.6l-0.5,1.8l-0.2,0.6l-1.6,1.2l-1.2,1.4l-1.1,2.4l0,2.1l-3.2,3.2
		l-0.5-0.2l-0.5-0.8l-1.4,0l-1,0.9l-1.7-1l-1.5,1.2l-1.5-2l1.6-1.1l0.1-0.5l-0.8-1.3l2.1-0.7l0.4-0.7l1,0.8l2.2,0.1l1.1-1.4l0.4-1.8
		l-0.3-2.1l-1.1-1.5l1-2.7l-0.1-0.5l-0.9-0.6l-1.6,0.2l-0.5-0.9l0.1-0.6l2.8,0.1l4,1.2l0.5-0.3l0.2-1.3l1.2-2.2l1.3-1.1L527.2,524.7
		L527.2,524.7z"/>
	<path fill="#C6E4EA" d="M521.6,526.4l-0.3-1.2l-1.1-0.8l-0.8-1.2l-0.3-1l-1-1.2l0.1-3.4l0.6-0.5l1.2-2.3l1.9-0.2l0.6-0.6l1,0.6
		l3.2-1l2.5-1.9l0-1l2.8,0l2.4-1.2l1.9-2.9l1.2-0.9l1.1-0.3l0.3,0.9l1.3,1.5l-0.4,2l0.3,1l4,2.8l0.2,0.9l2.6,2.3l0.6,1.4l2.1,1.4
		l-3.8-0.2l-1.9,0.9l-1.2-0.5l-2.7,1.2l-1.3-0.2l-0.5,0.4l-0.6,1.2l-3.3-0.7l-1.6-0.9l-2.4-0.8l-1.5,0.9l-1,1.3l-0.3,1.6l-3.2-0.4
		l-1.5,1.3L521.6,526.4L521.6,526.4z"/>
	<path fill="#C6E4EA" d="M547.5,520.6l2.3-0.1l1.3,1.8l1.3,0.5l0.9-0.4l1.2,0.1l1.1-0.4l0.5,0.9l2,1.5l-0.1,2.7l0.7,0.5l-1.4,1.1
		l-1.5,2.5l-0.2,2l-0.6,1.1l0,1.7l-0.7,0.8l-0.7,3l0.6,1.3l-0.4,4.3l0.6,1.5l-0.4,1.2l0.9,1.8l1.5,1.4l0.3,1.3l0.4,0.5l-4.1,0.8
		l-0.9,1.8l0.5,1.3l-0.7,5.4l0.2,0.4l2.5,1.5l0.5-0.1l0.1,1.6l-1.3,0l-1.8-2.3l-1.9-0.5l-0.5-1.1l-0.5-0.2l-1.4,0.7l-1.7-0.3l-1-1.2
		l-2.5-0.2l-0.4-0.8l-2-0.2l-2.9,0.4l0.1-2.4l-0.9-1.1l-0.2-1.4l0.3-1.7l-0.5-0.9l0-1.5l-0.4-0.4l-2.5,0l0.1-0.4l-0.4-0.5l-1.3,0
		l-0.4,0.5l-1.6,0.3l-0.8,1.8l-1.1-0.3l-2.4,0.5L524,551l-1.3-3.3l-0.4-0.3l-7.4,0l-2.5,0.4l0.5-0.5l0.4-1.5l0.7-0.4l0.9,0.1
		l0.7-0.8l0.9,0l0.3,0.7l1.4,0.4l3.6-3.6l0-2.2l1-2.3l2.7-2.4l0.4-1l0.5-2l0.2-3.5l1.2-3l0.4-3.1l0.9-1.1l1.1-0.7l3.6,1.7l3.6,0.7
		l0.5-0.2l0.8-1.5l1.2,0.2l2.6-1.2l0.8,0.4l1,0l0.6-0.7l0.7-0.2L547.5,520.6L547.5,520.6z"/>
	<path fill="#C6E4EA" d="M518.9,393.1l1.2,1l1.5,0.2l0.1,0.9l1.4,0.7l0.5-0.2l0.2-0.5l1.2,0.2l0.5,1.1l1.7,0.2l0.6,0.8l-1,0.7
		l-1,1.3l-1.6,0.2l-0.5,0.6l-1-0.5l-1,0.1l-2.1-1l-1,0.3l-1.2,1.1l-1.6-0.9l-2.6-2.1l-0.5-1.9l4.7-2.5l0.7,0.3L518.9,393.1
		L518.9,393.1z"/>
	<path fill="#C6E4EA" d="M564.8,441.7l0.4,0.3l-1.3,0.6l-0.9-0.3l-0.2-0.5L564.8,441.7L564.8,441.7z"/>
	<path fill="#C6E4EA" d="M271.8,506.2l0.5,1l1.6,1.6l-0.5,0.5l0.3,1.4l-0.2,1.2l-1.1-0.6l-0.1-1.2l-2.5-1.4l-0.3-0.8l-0.7-0.5h-0.5
		l-0.1,1l-1.3-1l0.3-1.3l-0.4-0.6l0.3-0.3l1.4,0.6l1.3-0.1l0.6,0.6l0.7,0.2L271.8,506.2L271.8,506.2z"/>
	<path fill="#C6E4EA" d="M281.7,475.4l1.3,1l2.2-0.3l4.4,3.3l2.1,0.4l-0.1,0.4l0.4,0.5l1.8,0.1l1.5,0.8l-3.1,0.5l-4.1,0l0.8-0.7
		l0-0.6l-1.2-0.7l-1.5-0.2l-0.7-0.6l-0.6-1.4l-0.4-0.2l-1.3,0.1l-2.2-0.7l-0.9-0.6l-3.2-0.4l-0.3-0.2l0.6-0.7l-0.4-0.3l-2.7,0
		l-1.7,1.3l-0.9,0l-0.6,0.7l-1,0.2l1.1-1.3l1-0.5l3.7-1l4,0.2L281.7,475.4L281.7,475.4z"/>
	<path fill="#C6E4EA" d="M560.8,599.5l0.5,2l-0.4,0.9l-1,0.2l-1.2-1.2l0-0.6l0.8-1.6L560.8,599.5L560.8,599.5z"/>
	<path fill="#C6E4EA" d="M571.5,448l0-1.3l0.5-1.4l1.3-1l0.1-0.4l-0.4-1.1l-1.1-0.4l-0.2-1.7l0.5-1l1.3-1.2l0.2-1.2l0.6,0.2l2.6-0.8
		l1.4,0.5l2.1,0l3-1.1l3.2-0.3l-0.7,0.9l-1.3,0.7l-0.2,0.4l0.2,2l-0.9,3.2l-10.2,5.7L571.5,448L571.5,448z"/>
	<path fill="#C6E4EA" d="M681.8,420.5l-3.9,1.7l-1,1.2l-3,0.3l-1.1,1.9l-2.4-0.4l-2,0.6l-2.4,1.4l0.1,0.9l-0.4,0.4l-4.5,0.4l-3-0.9
		l-2.4,0.2l0.1-0.8l2.3,0.4l1.1-0.9l2,0.2l3.2-2.1l0-0.7l-3-1.6l-1.9,0.6l-1.2-0.7l1.7-1.6l-0.1-0.7l-0.4-0.1l0.3-0.8l1.4-0.4l4,1
		l0.5-0.3l0.3-1.6l1.1-0.5l3.4,1.2l1.1-0.3l7.6,0.4l1.2,1L681.8,420.5L681.8,420.5z"/>
	<path fill="#C6E4EA" d="M566.7,532.9l1.9-2.6l0.9-2.2l-1.4-4.1l-1.1-1.6l2.8-2.8l0.8,0.3l0.1,1.4l0.9,0.8l1.9,0.1l3.3,2.1l3.6,0.4
		l1-1.1l2-0.9l0.8,0.7l1.2,0.1l-1.8,2.5l0,9.1l1.3,1.9l-1.4,0.8l-0.7,1l-1.1,0.5l-0.3,1.7l-0.8,1.1l-0.5,1.5l-0.7,0.6l-3.2-2.2
		l-0.3-1.6l-8.9-5l0.1-1.6L566.7,532.9L566.7,532.9z"/>
	<path fill="#C6E4EA" d="M542.2,511.5l1.1-0.7l1.2-3.2l1.4-0.3l1.6,2l0.9,0.3l1.1-0.4l1.5,0.1l0.6,0.5h2.5l0.4-0.6l1.1-0.4l0.5-0.8
		l0.6-0.3l1.9,1.3l1.6-0.2l2.8-3.3l-0.3-2.2l1.6-0.5l-0.2,1.6l0.3,1.8l1.3,1.2l0.2,1.9l0.4,0.4l0,1.5l-0.2,0.5l-1.4,0.2l-0.8,1.4
		l0.3,0.6l1.4,0.2l1.1,1.1l0.6,1.1l1,0.5l1.3,2.4l-4.4,4l-1.7,0l-1.9,0.5l-1.5-0.5l-1.2,0.6l-3-2.6l-1.3,0.5l-1.1-0.2l-0.8,0.4
		l-0.8-0.2l-1.8-2.7l-1.9-1.1l-0.7-1.5l-2.6-2.3l-0.2-0.9L542.2,511.5L542.2,511.5z"/>
	<path fill="#C6E4EA" d="M343.6,518.4l2.1,0.5l-1.1,2l0.2,1.7l0.9,1.5l-0.6,2l-0.4,0.7l-1.1-0.4l-1.3,0.2l-0.9-0.2l-0.5,0.3
		l-0.2,0.7l0.3,0.7l-0.9-0.1l-1.4-2l-0.3-1.3l-1-0.3l-0.9-1.5l0.4-1.6l1.5-0.8l0.3-1.9l2.6,0.4l0.6-0.5L343.6,518.4L343.6,518.4z"/>
	<path fill="#C6E4EA" d="M750,497.6l0.5,1.4l-0.3,2.7l-4,1.9l-0.2,0.6l0.7,1l-2.1,0.2l-2,1l-1.8-0.3l-2.1-3.7l-0.5-2.9l1.4-1.9
		l3-0.5l2.2,0.4l2,1l0.5-0.1l1-1.5L750,497.6L750,497.6z"/>
	<path fill="#C6E4EA" d="M256.3,498.3l1.4-1.2l2.2,1.5l1-0.3l0.4,0.2l-0.3,1l-1.1,0L256.3,498.3L256.3,498.3z"/>
	<path fill="#C6E4EA" d="M537.3,399.4l-1.1,1.9l-2.7-0.9l-0.8,0.2l-0.7,0.8l-3.5,0.7l-0.5,0.7l-1.8,0.3l-1.9-1l-0.2-0.8l0.4-0.8
		l1.9-0.3l1.7-1.9l0.8,0.2l0.8-0.3l1.5,1l1.3-0.6l1.2,0.3l1.7-0.4L537.3,399.4L537.3,399.4z"/>
	<path fill="#C6E4EA" d="M798,434l1-0.1l0.9-1.2l2.7-0.3l0.3-0.3l1.8,2.8l0.6,1.8l0,3.1l-0.8,1.3l-2.2,0.6l-1.9,1.1l-1.8,0.2
		l-0.2-1.1l0.4-2.3l-1-2.6l1.4-0.4l0.2-0.6L798,434L798,434z"/>
	<path fill="#C6E4EA" d="M516.7,410.3l-0.5-1.3l0.2-1l1.7,0.2l1.4-0.7l2.1-0.1l0.6-0.5l0.2,0.5l-1.6,0.7l-0.4,1.3l-0.7,0.2l-0.3,0.8
		l-1.2-0.5l-0.8,0.5L516.7,410.3L516.7,410.3z"/>
	<path fill="#C6E4EA" d="M797.2,433.3l-0.9-0.4l-0.9,0.6l-1.2-0.9l1-1.1l0.6-2.6l-0.5-0.7l-2.1-0.8l1.6-1.5l2.7-1.6l1.6-1.9l1.1,0.8
		l2.2,0.1l0.4-0.5l-0.3-1.2l3.5-1.2l0.9-1.4l1,1.1l-2.2,2.2l0,2.1l-1.1,0.5l-1.4,1.4l-1.7,0.5l-1.2,1.1l-0.1,2l0.9,0.4l1.2,1
		l-0.1,0.3l-2.6,0.3l-1.1,1.3L797.2,433.3L797.2,433.3z"/>
	<path fill="#C6E4EA" d="M585.6,536.7l-1.1-1.6l0-8.9l2.7-3.4l1.7-0.1l2.1-1.7l3.4-0.2l7.1-7.5l2.9-3.7l0.1-4.8l3-0.7l1.2-0.9h0.5
		l-0.2,3l-1.2,3.6l-2.7,6l-2.1,3.6l-5,6.2l-8.6,6.4l-2.8,3.1L585.6,536.7L585.6,536.7z"/>
	<path fill="#C6E4EA" d="M450.6,496.4l0.1,1.5l0.5,1.5l1,0.8l0,1.3l-1.3-0.2l-0.8,0.3l-1.8-0.6l-5.8-0.1l-2.5,0.5l-0.2-1l1.8,0
		l2-0.9l1,0.5l1.1,0l1.3-0.6l0.1-0.6l-0.5-0.7l-1.8,0.2l-1.1-0.6l-0.8,0l-0.7,0.6l-2.3,0.1l-0.9-1.8l-0.8-0.6l0.6-0.4l2.5-3.7l1,0.2
		l1.4-0.6l1.2,0l2.7,1.4L450.6,496.4L450.6,496.4z"/>
	<path fill="#C6E4EA" d="M454.9,512.3l-1.7,2l-0.6,1.3l-2.1-1.1l-1.2-1.3l-0.6-2.4l1.2-1l0.7-1.2l1.2-0.5h1.7l1,1.6L454.9,512.3z"/>
	<path fill="#C6E4EA" d="M887.2,559.8l-0.6,0.1l-0.2-0.3l0.4,0.2L887.2,559.8z M884.7,555.6l-0.3-0.3l-0.3-0.9h0L884.7,555.6z
		 M883.5,557.5l-1.7-0.2l-0.2-0.5l1.2,0.3L883.5,557.5L883.5,557.5z M879.8,552.9l1.1,0.6l0,0l-0.8-0.4L879.8,552.9L879.8,552.9z"/>
	<path fill="#C6E4EA" d="M598,458.5l2,0.2l0.9,1.3l1.5-0.1l0.9,2.1l1.3,0.8l0.5,1l1.6,1l-0.1,1.9l0.3,0.9l1.6,2.5l0.8,0.5l0.7,0
		l1.7,4.2l7.5,1.3l0.5-0.3l0.8,1.2l-1.5,4.9l-7.3,2.5l-7.3,1l-2.3,1.2l-1.9,2.7l-0.8,0.3l-0.8-0.8l-0.9,0.1l-2.9-0.5l-3.5,0.2
		l-0.9-0.6l-0.6,0.1l-0.7,1.3l0.2,1.1l-0.4,0.3l-0.9-1.4l-0.3-1.2l-1.2-0.9l-1.3-2.1l-0.8-2.2l-1.7-1.8l-1.1-0.5l-1.5-2.3l-0.2-3.4
		l-1.4-2.9l-1.3-1.2l-1.3-0.6l-1.3-3.4l-0.8-0.7l-1-2l-2.8-4l-1.1-0.2l0.4-2l0.2-0.7l2.7,0.3l1.1-0.8l0.6-0.9l1.7-0.4l0.7-1l0.7-0.4
		l0.1-0.6l-2.1-2.3l4.4-1.2l0.5-0.4l2.8,0.7l3.7,1.9l7,5.5L598,458.5L598,458.5z"/>
	<path fill="#C6E4EA" d="M540.7,337.5l-4,1.2l-2.4,2.9l0.3,2.6l-8.8,6.6l-1.8,5.8l1.8,2.7l2.2,2l-2.1,3.8l-2.7,1.1l-1,6l-1.3,3
		l-2.7-0.3l-0.4,0.2l-1.3,2.6l-2.3,0.1l-0.8-3.1l-2.1-4l-1.8-5l1-1.9l2.1-2.7l0.8-4.4l-1.6-2.2l-0.1-4.9l1.5-3.4l2.6-0.2l0.9-1.6
		l-0.8-1.6l3.8-5.6l4-7.5l2.2,0l0.4-0.3l0.6-2.1l4.4,0.6l0.5-0.3l0.3-2.6l1.1-0.1l6.9,4.9l0.1,6.3L540.7,337.5L540.7,337.5z"/>
	<path fill="#C6E4EA" d="M566.5,507.6l-0.3-0.8l-1.2-0.9l-0.3-1.6l0.3-1.8l-0.3-0.5l-1.2-0.2l-0.5,0.6l-1.2,0.1l-0.3,0.6l0.5,0.6
		l0.2,1.2l-2.4,3l-1,0.2l-2.4-1.4l-1,0.5l-0.4,0.8l-1.1,0.4l-0.3,0.5h-1.9l-0.5-0.5l-1.8-0.1l-1,0.4l-2.5-2.4l-2.1,0.5l-0.7,1.3
		l-0.6,2.1l-1.2,0.6l-0.8-0.6l0.3-2.6l-1.5-1.8l-0.2-1.5l-0.9-1l0-1.3l-0.6-1.2l-0.7-0.2l0.7-1.3l-0.2-1.1l0.6-0.6l0-0.5l-0.4-0.4
		l1.5-3l1.9,0.2l0.4-0.4l-0.1-10.9l2.5,0l0.4-0.4v-4.8h29l0.6,2l-0.5,0.7l0.4,2.7l0.9,3.2l2.1,1.5l-0.9,1l-1.7,0.4l-1,0.9l-1.4,5.6
		l0.2,1.1l-0.4,2.1l-1,2.4l-1.5,1.3l-1.3,2.9l-1.2,0.9L566.5,507.6L566.5,507.6z"/>
	<path fill="#C6E4EA" d="M302.3,487.4l0-0.6l-0.5-0.7l0.4-0.4l0.2-1l-0.1-1.5l1.7,0l2,0.6l0.3,0.7l1.3,0.2l0.3,0.8l1,0.1l0.8,0.6
		l-0.4,0.5l-1.1-0.5l-1.9,0l-1.3,0.6l-0.8-0.5l-1,0.5l-0.8,1.4L302.3,487.4L302.3,487.4z"/>
	<path fill="#C6E4EA" d="M588.9,504.4l-0.5,0.7l-0.6-0.2l-1.5,0.1l-0.2-1l1.5-2l0.8,0.2l0.8-0.4l0.2,1l-1.2,0.5l-0.1,0.7
		L588.9,504.4L588.9,504.4z"/>
	<path fill="#C6E4EA" d="M512.8,377.3l-1.2,2.2l-2.1-1.6l-0.2-0.9l3-1L512.8,377.3z M508.2,374.5l-0.3,0.6l-0.9-0.1l-1.8,2.5
		l0.5,1.7l-1.1,0.4l-1.6-0.4l-0.9-1.7l-0.1-3.4l1-1.7l2-0.2l1.1-1.1l1.3-0.7l0,1.1l-0.7,1.4l0.3,1L508.2,374.5L508.2,374.5z"/>
	<path fill="#C6E4EA" d="M513.6,403.7l-0.5-0.4l-1.2-0.1l-1.9,0.6l-2.1-0.1l-0.6,0.6l-0.9-0.6l-1,0.1l-2.6-0.9l-0.9,0.7l-1.5,0
		l0.2-1.8l1.2-2.1l-0.3-0.6l-3.5-0.6l-0.9-0.7l0.1-1.2l-0.5-0.9l0.3-2.2l-0.4-3l1.4-0.2l0.6-1.3l0.7-3.2l-0.4-1.2l0.3-0.4l1.7-0.1
		l0.3,0.5l0.6,0.1l1.7-1.7l-0.5-3l1.4,0.3l1.3-0.4l0.3,1.2l2.2,0.7l0,0.9l0.5,0.4l2.5-0.6l1.3-0.9l2.6,1.2l1.1,1l0.5,1.4l-0.6,0.7
		v0.5l0.9,1.1l0.6,1.6l-0.1,1.3l0.8,1.7l-1.5-0.1l-0.6,0.6l-4.5,2.1l-0.2,0.5l0.7,2.3l2.6,2.2l-0.7,1.1l-0.8,0.4l-0.2,0.4
		L513.6,403.7L513.6,403.7z"/>
	<path fill="#C6E4EA" d="M588.7,494.9l0.3-0.4l-0.2-1l0.2-1.5l0.9-0.7l-0.1-1.4l0.4-0.8l1,0.5l3.3-0.3l3.8,0.4l1,0.8l1.4-0.6
		l1.7-2.6l2.2-1.1l6.9-0.9l2.5,5.4l-1.6,0.8l-0.6,1.9l-6.2,2.2l-2.3,1.8l-1.9,0.1l-1.4,1l-4.2,0.7l-1.7,1.5l-3.3,0.2l-0.5-1.2l0-1.5
		L588.7,494.9L588.7,494.9z"/>
	<path fill="#C6E4EA" d="M523.4,401l0,2.2h-1.1l-0.3,0.6l0.4,0.5l-1,2.1l-2,0.1l-1.3,0.7l-5.3-1l-0.5-0.9l-0.4-0.2l-2.5,0.5
		l-0.4,0.5l-3.2-0.8l0.4-0.9l1.1,0.8l0.6-0.2l0.2-0.6l1.9,0.1l1.9-0.6l1,0.1l0.7,0.6l0.6-0.1l0.3-0.8l-0.3-1.8l0.8-0.4l0.7-1.1
		l1.5,0.9l0.5-0.1l1.3-1.2l0.6-0.2l1.8,0.9l1.3-0.1L523.4,401L523.4,401z"/>
	<path fill="#547700" d="M501.9,436.6l-0.3,1.1l0.4,2.6l-0.5,2.2l-1.6,1.8l0.4,2.4l1.9,1.6l0.2,0.8l1.4,1l1.8,7.2l0.1,1.2l-0.6,5
		l0.2,1.5l-0.9,1l0,0.5l1.4,1.9l0.1,1.2l0.9,1.5l0.5,0.2l1-0.4l1.7,1.1l0.8,1.2l-8.2,4.8l-7.2,5.1l-3.4,1.1l-2.3,0.2l-0.3-1.6
		l-2.6-1.1l-0.7-1.2l-26.1-17.9l0-3.5l3.8-1.9l2.4-0.4l2.1-0.8l1.1-1.4l2.8-1.1l0.4-2.1l1.3-0.3l1-0.9l3.5-0.7l0.5-1.1l-0.1-0.5
		l-0.6-0.5l-0.8-2.8l-0.2-1.8l-0.8-1.5l2-1.3l2.6-0.5l1.7-1.2l2.3-0.8l8.2-0.7l1.5,0.4l2.3-1.1l2.5,0l0.9,0.6L501.9,436.6
		L501.9,436.6z"/>
	<path fill="#C6E4EA" d="M953.2,347.4l1.3,0.5l1.4-0.4l1.9,1l1.9,0.4l-1.3,0.6l-2.9-1.5l-2.1,0.2l-0.3-0.2L953.2,347.4L953.2,347.4z
		 M243.7,398.7l0.4,1.5l1.1,0.9l4.2,0.7l2.4,1l2.2-0.4l1.9,0.5l-1.6,0.6l-3.5,2.6l-0.2,0.8l0.5,0.4l2.3-0.6l1.8,1l5.1-2.4l-0.3,0.6
		l0.2,0.6l1.4,0.4l1.7,1.2l4.7-0.9l0.7,0.9l1.3,0.2l0.6,0.6l-1.3,0.2l-2.2-0.3l-3.6,0.9l-2.7,3.2l0.4,0.9h0.6l0.5-0.6l-1.4,4.6
		l0.3,3.1l0.7,1.6l0.6,0.5l1.8-0.4l1.6-2l0.1-2.2l-0.8-2l0.1-1.1l1.2-2.4l0.4-0.3l0.5,0.8l0.4-0.3l0.4-1.4l0.6-0.5l0.2-0.8l1.7,0.5
		l1.6,1.1l0,2.4l-1.3,1.1v1.1l0.9,0.4l1.7-1.3l0.5,0.2l0.5,2.6l-2.5,3.8l0.2,0.6l1.5,0.6l1.5,0.2l1.9-0.4l4.7-2.1l2.2-1.8l-0.1-1.2
		l0.8-0.2l3.9,0.4l2.1-1.1l0.2-0.4l-0.3-1.5l3.3-2.4l8.3,0l0.6-0.8l1.9-0.8l0.9-1.5l0.7-2.4l1.6-2l0.9,0.6l1.5-0.5l0.8,0.7v4.1
		l2,2.6l-2.3,1.3l-5.4,2.1l-1.8,2.7l0,1.8l0.8,1.6l0.5,0.2l-6.2,0.9l-2.2,0.9l-0.2,0.5l0.4,0.3l3-0.5l-2.2,0.6h-1.1l-0.1-0.3
		l-0.5,0.1l-0.8,0.8l0.2,0.7l0.3,0.1l-0.4,1.6l-1.3,1.6l-1.5-1.1l-0.5,0l-0.2,0.5l0.5,1.6l0.6,0.6l0,0.8l-0.9,1.4l-1.2-1.2l-0.3-2.3
		l-0.4-0.4l-0.4,0.2l-0.5,1.3l0.3,1.4l-1-0.3l-0.5,0.2l0.2,0.5l1.5,0.8l0.1,2.5l0.8,0.5l0.5,3.4l-1.4,1.9l-2.5,0.8l-1.7,1.7
		l-1.3,0.2l-1.3,1l-0.4,1l-2.7,1.8l-2.6,3l-0.4,2.1l0.4,2.1l0.9,2.4l1.1,1.9l0,1.2l1.2,3.1l-0.2,2.7l-0.6,1.4l-0.5,0.2l-0.9-0.2
		l-0.5-1.2l-0.9-0.6l-2.8-5.2l0.5-1.7l-0.7-1.8l-2-2.4l-1.1-0.5l-2.7,1.2l-1.5-1.4l-1.6-0.7l-3,0.3l-2.2-0.3l-2,0.2l-1.1,0.5
		l-0.2,0.6l0.4,0.6l0.1,1.3l-0.8-0.2l-0.8,0.5l-1.6-0.1l-2.1-1.4l-2.1,0.3l-1.9-0.6l-3.7,0.8l-2.4,2.1l-2.5,1.2l-1.4,1.4l-0.6,1.4
		l0.3,3.7l-0.3,0l-3.5-1.3l-1.2-3.1l-1.4-1.5l-2.2-3.6l-1.8-1.1l-2.3,0l-1.7,2.1l-1.8-0.7l-1.2-0.7l-1.5-3l-3.9-3.2h-4.3l-0.4,0.4
		v0.7l-6.5,0l-9-3.1l-0.3-0.7l-5.7,0.5l-0.4-1.3l-1.6-1.6l-1.1-0.4l-0.6-0.9l-1.3-0.1l-1-0.8l-2.2-0.3l-0.4-0.3l-0.4-1.6l-2.4-2.8
		l-2-3.9l-0.1-0.9l-2.9-3.3l-0.3-2.3l-1.3-1.7l0.5-2.4l-0.1-2.6l-0.8-2.3l0.9-2.8l0.6-5.7l-0.5-4.3l-1.5-4.1l3.2,0.8l1.3,2.8
		l0.7,0.1l0.7-1.1l-1.1-4.8h68.8l0.4-0.4L243.7,398.7L243.7,398.7z M92.9,315.7l1.7,2l0.5,0l1-0.8l3.7,0.2l-0.1,0.6l0.3,0.5l3.8,0.8
		l2.6-0.4l5.2,1.4l4.8,0.4l1.9,0.6l3.4-0.7l6.1,1.9l0,38.1l0.4,0.4l2.4,0.1l2.3,1l3.9,4l0.6,0l2.4-2l2.2-1l1.2,1.7l3.9,3.1l4.1,6.6
		l4.2,2.3l0.1,1.8l-1,1.2l-1.2-1.1l-2-1l-0.7-2.9l-3.3-3l-1.7-3.6l-6.3-0.3l-2.8-1l-5.3-3.8l-6.8-2L121,361l-4.8-1.7l-3.2-1.6
		l-2.8,0.8l-0.3,0.5l0.4,2.2l-3.9,1l-2.3,1.3l-2.3,0.6l-0.3-1.6l1-3.4l2.5-1.1l0.2-0.6l-0.7-1l-0.6-0.1l-3.2,2.1l-1.8,2.6l-3.6,2.6
		l0,0.6l1.6,1.5l-2.1,2.3l-5.1,2.6l-0.8,1.7l-3.8,1.8l-0.9,1.7l-2.7,1.4l-1.8-0.2l-6.9,3.3l-4,0.9l4.8-2.5l2.6-1.9l3.3-0.5l1.2-1.4
		l3.4-2.1l2.6-2.3l0.4-2.7l1.2-2.1l0-0.5L88,365l-2.7,1l-0.6-0.5l-0.5,0l-1.1,1l-1.4-1.5l-0.7,0.1l-0.3,0.6l-0.6-1.1l-0.6-0.2
		l-2.4,1.4h-1.1l-0.2-1.8l0.3-1.7l-1.6-1.3l-3.4,0.6l-2-1.6l-1.6-0.8l-0.2-2.2l-1.7-1.4l0.8-1.9l2-2.1l0.9-1.9l1.7-0.2l2,0.5
		l1.9-1.8l1.9,0.2l1.9-1.2l0.2-0.4l-0.5-1.8l-1.1-0.7l1.4-1.2l0.1-0.4l-0.4-0.3l-1.7,0.1l-2.7,0.9l-0.8,0.8l-1.9-0.8l-3.5,0.4
		l-3.4-0.9l-1.1-1.6l-2.6-2l2.9-1.4l5.5-2h1.5l-0.3,1.6l0.4,0.5l5.3-0.2l0.3-0.7l-2-2.6l-3.1-1.7l-1.8-2.1l-2.4-1.8l-3.1-1.2l1-1.7
		l4.2-0.1l3.4-2.1l0.7-2.3l2.4-2l2.4-0.5l4.7-2l2.5,0.2l3.7-2.4L92.9,315.7L92.9,315.7z M98.1,371.6l-2.2,1.2l-1-0.7l-0.3-1.2
		l3.2-1.6l1.4,0.2l0.7,0.7L98.1,371.6L98.1,371.6z M91.5,482.2l1,0.5l0.7,0.9l-1.8,1.1l-0.4-1.5L91.5,482.2L91.5,482.2z M89.8,480.3
		l0.2,0.1l0.1,0l-0.2,0L89.8,480.3L89.8,480.3z M85.6,478.4L85.6,478.4l0.2,0.2l-0.1,0L85.6,478.4L85.6,478.4z M66.4,361.4l-1.1,0.4
		l-2.2-1.1l1.5-0.4l1.6,0.3L66.4,361.4z"/>
	<path fill="#C6E4EA" d="M549.6,371l1,0.7l0.2,1.7l0.7,1.8l-3.7,1.7l-2.2-1.6l-1.3-0.3l-0.7-0.8l-2.4,0.3l-4.2-0.2l-2.5,0.9l0.1-2
		l1.1-2.1l2-1l2.1,2.6l2-0.1l0.4-0.3l0.4-2.5l1.8-0.5l3.1,1.7L549.6,371L549.6,371z"/>
	<path fill="#C6E4EA" d="M347.3,620.9l-0.9,1.5l-2.6,1.4l-1.7-0.5l-1.4,0.3l-2.4-1.2l-1.5,0.1l-1.3-1.3l0.2-1.5l0.6-0.8l0-2.7
		l1.2-4.7l1.2-0.2l2.4,2l1.1,0l4.4,3.2l1.2,1.6l-1,1.5L347.3,620.9L347.3,620.9z"/>
	<path fill="#C6E4EA" d="M570.8,446.2l-0.9,0.5l1.8-3.5l0.6,0.1l0.2,0.6l-1.1,0.9L570.8,446.2L570.8,446.2z"/>
	<path fill="#C6E4EA" d="M750,496.7l-1.8-0.7l-0.5,0.1l-0.9,1.5l-1.3-0.6l0.6-1l0.1-2.2l-2-2.4l-0.2-2.6l-1.9-2.1l-2.2-0.3l-0.8,0.9
		l-1.1,0.1l-1-0.4l-2.1,1.2l0-1.6l0.6-2.7l-0.4-0.5l-1.3-0.1l-0.1-1.2l-1-0.9l2-1.9l0.4,0.4l1.3,0.1l0.4-0.5l-0.3-2.7l0.7-0.2
		l1.3,1.8l1.1,2.4l0.4,0.2l2.8,0l0.7,1.7l-1.4,0.6l-0.7,0.9l0.1,0.6l2.9,1.5l3.6,5.2l1.9,1.8l0.6,1.6L750,496.7L750,496.7z"/>
	<path fill="#C6E4EA" d="M784.5,474.9l-0.7,1.5l-0.9-1.5l-0.2-1.7l1.4-2.4l1.7-1.7l0.6,0.4L784.5,474.9L784.5,474.9z"/>
	<path fill="#C6E4EA" d="M327.1,507.5l0.3-1.2l1.1-0.2l-0.1,1.2L327.1,507.5z"/>
	<path fill="#C6E4EA" d="M573.7,423.7l3.6,1.2l3-0.4l2.1,0.3l3.1-1.6l2.5-0.1l2.2,1.3l0.3,0.8l-0.2,1.3l0.2,0.4l2.3,1.1l-1.2,0.6
		l-0.2,0.5l0.8,3.2l-0.4,1.2l1.1,1.9l-0.5,0.2l-0.9-0.7l-2.9-0.4l-1.2,0.5l-4.2,0.4l-2.8,1l-1.9,0l-1.5-0.5l-2.6,0.8l-0.7-0.5
		l-0.6,0.3l-0.1,1.4l-0.9,0.8l-0.5-0.7l0.8-1.3l-0.4-0.2l-1.4,0.2l-2-0.6l-2,1.6l-3.5,0.3l-2.1-1.5l-2.7-0.1l-0.9,1.2l-1.4,0.3
		l-2.3-1.4l-2.7,0l-1.4-2.6l-1.7-1.5l1.1-2l-0.1-0.5l-1.3-1.1l2.4-2.4l3.7-0.1l1.3-2.2l4.5,0.4l3.2-2l2.8-0.8l4-0.1L573.7,423.7
		L573.7,423.7z M549.3,424.9l-1.7,1.3l-0.5-0.9l1.4-2.6l-0.7-0.9l1.7-0.6l1.8,0.3l0.5,1.2l1.8,0.8l-2.9,0.3L549.3,424.9L549.3,424.9
		z"/>
	<path fill="#C6E4EA" d="M684.6,517.2l-1.8,0.5l-1-1.7l-0.4-3.5l1-3.4l1.2,1l2.3,4.2l-0.3,2.3L684.6,517.2L684.6,517.2z"/>
	<path fill="#C6E4EA" d="M508.6,436.4l-1,1.3l0,1.3l0.8,0.9l-0.3,2.1l-1.5,1.3l-0.1,0.4l0.5,1.5l1.4,0.3l0.5,1.1l0.9,0.5l-0.1,1.7
		l-3.5,2.6l-0.1,2.4l-0.6,0.3l-1-4.5l-1.5-1.2l-0.2-0.8l-1.9-1.6l-0.2-1.8l1.5-1.6l0.6-2.3l-0.4-2.8l0.4-1.2l2.5-1l1.3,0.3l-0.1,1.1
		l0.6,0.4L508.6,436.4L508.6,436.4z"/>
	<path fill="#C6E4EA" d="M795,556.1l-0.1-1l4.5-0.9l-2.8,1.3L795,556.1L795,556.1z"/>
	<path fill="#C6E4EA" d="M613.5,421.9l0,0.3l-0.1-0.2L613.5,421.9z M616.3,420.8l0.5-0.1l1.5,0.7l2.1,2.4l4.1-0.2l0.4-0.5l-0.3-1.2
		l1.9-0.9l1.9-1.6l2.9,1.4l0.4,2.5l1.2,0.7l2.6-0.1l0.6,0.4l1.3,3.1l4.5,3.4l2.7,1.5l3.1,1.1l0,1.1l-1.3-0.8l-0.6,0.2l-0.3,0.8
		l-2.2,0.8l-0.5,2.1l-1.2,0.7l-1.9,0.4l-0.7,1.3l-1.6,0.3l-2.2-0.9l-0.2-2.2l-0.4-0.4l-1.7-0.1l-2.8-2.5l-2.1-0.4l-2.8-1.5l-1.8-0.3
		l-1.2,0.5l-1.6-0.1l-2,1.7l-1.7,0.4l-0.4-1.6l0.4-3l-0.2-0.4l-1.7-0.8l0.5-1.7l-0.3-0.5l-1.2-0.1l0.4-1.6l2.2,0.6l2.2-0.9l0.1-0.6
		l-1.8-1.7L616.3,420.8L616.3,420.8z"/>
	<path fill="#C6E4EA" d="M658.2,427l-2.5-0.4l-0.5,0.3l-0.2,1.7l0.4,0.4l2.6-0.2l3.2,1l4.4-0.4l0.6,2.4l0.5,0.3l0.7-0.2l1.1,0.5
		l0.2,2.1l-3.8-0.2l-1.8,1.3l-1.8,0.7l-0.6-0.6l0.2-2.2l-0.6-0.5l-0.1-0.9l-1.4-0.7l-0.5,0.1l-1.1,1l-0.5,1.5l-1.3-0.1l-1,1.2
		l-0.9-0.4l-1.9,0.7l1.3-2.8l-0.5-2.2l-1.7-0.8l0.3-0.7l2.2,0l1.2-1.6l0.8-1.8l2.4-0.5l-0.3,1L658.2,427L658.2,427z"/>
	<path fill="#C6E4EA" d="M551.5,611.7l-0.5,0.1l-1.5-1.7l1.1-1.4l2.2-1.4l1.5,1.3l-1,1.8l-1.2,0.4L551.5,611.7L551.5,611.7z"/>
	<path fill="#D1E870" d="M730.7,504l-1.4,3.9l0.2,2l0.4,0.4l1.4,0.1l0.9,2l0.5,2.3l1.4,1.4l1.6,0.4l1,1l-0.5,0.6l-1.1,0.2l-0.3-1.2
		l-2-1.1l-0.6,0.2l-0.6-0.6l-0.5-1.3l-2.6-2.6l-0.7,0.4l1-3.9L730.7,504L730.7,504z M731.1,503l-0.9-2.2l-0.3-2.6l-2.1-3.1l0.7-0.5
		l0.9-2.6l-3.6-5.5l0.9-0.5l1-2.6l1.7-0.2l2.6-1.6l0.8,0.6l0.1,1.4l0.4,0.4l1.2,0.1l-0.5,2.3l0,2.4l0.6,0.3l2.4-1.4l0.8,0.4l1.5-0.1
		l0.7-0.9l1.5,0.1l1.7,1.9l0.2,2.6l1.9,2.1l-0.1,1.9l-0.6,0.9l-2.2-0.3L739,497l-1.6,2.1l0.4,2.6l-1.5-0.8l-1.8,0l0.3-1.5l-0.4-0.5
		l-2.2,0l-0.4,0.4l-0.2,2.7L731.1,503L731.1,503z"/>
	<path fill="#C6E4EA" d="M657.2,668.6l-3.2,0.2l0-1.3l0.4-1.4l1.3,0.8l2.1,0.4L657.2,668.6L657.2,668.6z"/>
	<path fill="#C6E4EA" d="M483.2,505.8l-0.1,1.2l1.5,1.5l0.1,1.1l0.5,0.6l-0.1,5.6l0.5,1.5l-1.3,0.4l-1-2.1l-0.2-1.1l0.5-2.2
		l-0.6-1.2l-0.2-3.7l-1-1.4l0.1-0.3L483.2,505.8z"/>
	<path fill="#C6E4EA" d="M540.7,483.7l0.1,9.6l-2.1,0.1l-1.1,1.9l-0.7,1.6l0.3,0.7l-0.7,0.9l0.2,0.9l-0.9,2l0.5,0.5l0.6-0.1l0.3,0.6
		l0,1.4l0.9,1l-1.5,0.4l-1.3,1l-1.8,2.8l-2.2,1.1l-2.3-0.1l-0.9,0.2l-0.3,0.5l0.2,0.6l-2.1,1.7l-2.9,0.9l-1.1-0.6l-0.7,0.7l-1.1,0.1
		l-1.1-3.1l-1.2-0.6l-1.2-1.2l0.3-0.6l3,0l0.3-0.6l-1.3-2.2l-0.1-3.3l-1-1.7l0.2-1l-0.4-0.5l-1.2,0v-1.2l-1-1.1l1-3l3.2-2.6l0.1-3.3
		l1-5.2l0.5-1.1l-0.1-0.5l-0.9-0.8l-0.2-1l-0.8-0.6l-0.5-3.6l2.1-1.2L540.7,483.7L540.7,483.7z"/>
	<path fill="#C6E4EA" d="M544,451.3l-0.8,1.1l0.3,1.4l-0.6,1.8l0.7,2.1v24.1l-2.5,0l-0.4,0.9l-19.4-9.8l-4.4,2.3l-1.4-1.3l-3.8-1.1
		l-1.1-1.6l-2-1.2l-1.2,0.3l-0.7-1.1l-0.2-1.3l-1.3-1.7l0.9-1.2l-0.1-4.3l0.4-2.3l-0.9-3.4l1.1-0.8l0.2-1.2l-0.2-1l3.5-2.6l0.3-1.9
		l2.4,0.8l1.2-0.2l2,0.4l3.1,1.2l1.4,2.5l5.7,1.7l2.6,1.4l1.6-0.7l1.3-1.3l-0.4-2.3l0.7-1.1l1.7-1.2l1.6-0.4l3.1,0.5l1.1,1.3l4,0.8
		L544,451.3L544,451.3z"/>
	<path fill="#C6E4EA" d="M611.2,472.2l1.9-0.4l3.8,0l4.8-4.8l0.2,0.4l0.3,1.6l-0.8,0l-0.4,0.4l-0.1,2l-0.8,0.6l0,1l-0.7,1l-0.4,1.4
		l-7.1-1.2L611.2,472.2L611.2,472.2z"/>
	<path fill="#81A000" d="M301.2,504.9l0.5,0.8l0,1.1l-1.1,1.8l0.9,2l0.4,0.2l1.4-0.4l0.6-1.8l-0.8-1.2l-0.1-1.5l2.8-0.9l0.3-0.5
		l-0.3-1l0.3-0.3l0.7,1.3l2,0.3l1.4,1.2l0.1,0.7l0.4,0.4l4.8-0.2l1.5,1.1l1.9,0.3l1.7-0.8l0.2-0.6l3.4-0.1l-0.2,0.5l0.9,1.2l2.2,0.4
		l1.7,1.1l0.4,1.9l0.4,0.3l1.5,0.2l-1.7,1.4l-0.2,0.9l0.6,1l-1.7,0.5l-0.3,0.4l0,1l-0.6,0.6l0,0.5l1.9,2.3l-0.7,0.7l-4.5,1.3
		l-0.7,0.5l-3.7-0.9l-0.7,0.3l0,0.7l0.9,0.5l-0.1,1.5l0.4,1.6l0.4,0.3l1.7,0.2l-1.3,0.5l-0.5,1.1l-2.7,0.9l-0.6,0.8l-1.6,0.1
		l-1.2-1.1l-0.8-2.5l-1.2-1.3l1-1.2l-1.3-3l0.2-1.6l1-2.2l-0.2-0.5l-1.1-0.5l-4,0.4l-1.8-2.1l-1.6-0.3l-3,0.2l-1.1-1l0.2-1.2l-0.2-1
		l-0.6-0.7l-0.3-1.1l-1.1-0.4l0.8-2.8L301.2,504.9L301.2,504.9z"/>
	<path fill="#C6E4EA" d="M661.2,437.1l-1.6,1.3l-0.1,0.5l0.8,2.3l-1.1,1l0,1.3l-0.5,0.7l-2.2-0.1l-0.4,0.6l0.8,1.5l-1.4,0.7
		l-1.1,1.7l0.1,1.7l-0.7,0.5l-0.9-0.2l-1.9,0.4l-0.5,0.8l-1.9,0.1l-1.4,1.6l-0.2,2.3l-2.9,1l-1.7-0.2l-0.7,0.6l-1.4-0.3l-2.4,0.4
		l-3.5-1.2l2-2.4l-0.2-1.8l-0.3-0.3l-1.6-0.4l-0.2-1.6l-0.8-2l1-1.4l-0.2-0.6l-0.7-0.3l1.5-4.8l2.1,0.9l2.1-0.4l0.7-1.3l1.8-0.4
		l1.5-0.9l0.6-2.3l1.9-0.5l0.5-0.8l0.9,0.6l2.1,0.1l2.5,0.9l2-0.8l0.7,0.4l0.6-0.1l0.7-1.1l1.6-0.1l0.7-1.7l0.8-0.7l0.8,0.4
		l-0.2,0.6l0.7,0.6l-0.1,2.4L661.2,437.1L661.2,437.1z M661.8,436.9l1.7-0.7l1.4-1.2l4,0.4l-2.2,0.7L661.8,436.9L661.8,436.9z"/>
	<path fill="#C6E4EA" d="M591.3,435.7l0.8,0.7l1.3-0.3l1.5,3.1l1.6,0.9l0.1,1.2l-1.2,1.1l-0.5,2.5l1.7,2.7l3.1,1.6l1.2,1.9l-0.4,1.9
		l0.4,0.5h0.4l0,1.1l0.8,0.9l-2.5-0.1l-1.7,2.4l-4.3-0.2l-7-5.5l-3.7-1.9l-2.9-0.7l-0.8-2.9l5.5-3l1-3.4l-0.2-2l1.3-0.7l1.2-1.7
		l0.9-0.4L591.3,435.7L591.3,435.7z"/>
	<path fill="#C6E4EA" d="M444.6,336.2l-0.4,2.6l2.5,2.5l-2.9,2.8l-9.2,3.4l-9.2-1.7l1.7-1.2l-0.1-0.7l-4-1.5l3-0.5l0.3-0.4l-0.1-1.2
		l-0.3-0.4l-4.7-0.8l1.3-2l3.5-0.6l3.8,2.7l0.4,0l3.6-2.2l3.3,1.1l4-2.2L444.6,336.2L444.6,336.2z"/>
	<path fill="#ADC937" d="M593.9,435.3l-1.3-2.1l0.4-1l-0.7-3l1-0.5l0.3,0.8l1.3,1.4l2,0.5l1.1-0.2l2.9-2.1l0.6-0.1l0.4,0.5l-0.7,1.2
		l0.1,0.5l1.6,1.5l0.7,0l0.7,1.8l2.6,0.8l1.9,1.5l3.7,0.5l3.9-0.8l0.5-0.7l2.2-0.6l1.7-1.5l1.5,0.1l1.2-0.5l1.6,0.2l2.8,1.5l1.9,0.3
		l2.8,2.5l1.8,0.2l0.2,2l-1.7,5.5l0.2,0.5l0.6,0.2l-0.8,1.5l0.8,2.2l0.2,1.7l0.3,0.3l1.6,0.4l0.2,1.3l-2.2,2.4l0,0.5l2.2,3l2.3,1.2
		l0.1,2.1l1.2,0.7l0.1,0.7l-3.3,1.3l-1.1,3l-9.7-1.7l-1-3l-1.4-0.7l-2.2,0.5l-2.5,1.3l-2.8-0.8l-2.5-2l-2.4-0.8l-3.4-6.1l-0.5-0.2
		l-1.2,0.4l-1.4-0.8l-0.5,0.1l-0.7,0.7l-1-1l0-1.3l-0.7-0.4l0.3-1.8l-1.3-2.1l-3.1-1.6l-1.6-2.4l0.5-1.9l1.3-1.3l-0.2-1.7l-1.7-1.1
		L593.9,435.3L593.9,435.3z"/>
	<path fill="#C6E4EA" d="M597.5,430.5l-0.3,0l-1.2-2.1l-0.9,0l-0.6-0.7l-0.7-0.1l-1-0.8l-1.6-0.6l0.2-1.1l-0.3-0.8l2.7-0.4l1.1,1
		l-0.2,0.9l1,0.8l-0.5,0.6l0.1,0.6l2,1.2L597.5,430.5L597.5,430.5z"/>
	<path fill="#C6E4EA" d="M512.1,406.8l3.5,0.9l-0.2,1.2l0.3,0.8l-1.5-0.2l-2,1.1l-0.2,0.4l0.1,1.5l-0.2,1.1l0.8,1.6l2.4,1.6l1.3,2.5
		l2.8,2.4l2,0.1l0.2,0.2l-0.4,0.3l0.1,0.7l4,2l2.2,1.8l-0.2,0.4l-1.2-1.1l-2.2-0.5l-0.4,0.2l-1,1.9l0.1,0.5l1.6,1l-0.2,1l-1.1,0.3
		l-1.2,2.3l-0.4,0.1v-0.3l1-2.5l-1.7-3.2l-1.1-0.5l-0.9-1.3l-1.5-0.5l-1.3-1.2l-1.8-0.2l-4.1-3.2l-1.6-1.6l-1-3.2l-3.5-1.4l-1.3,0.5
		l-1.7,1.4l0.2-0.7l-0.3-0.5l-1.1-0.3l-0.5-2l0.7-0.8l0-0.5l-0.6-1.2l0.8,0.4l1.4-0.2l1.1-0.8l0.5,0.4l1.2-0.1l0.8-1.2l1.5,0.3
		l1.4-0.6l0.4-1.1l1.1,0.3l0.7-0.6l2-0.4L512.1,406.8L512.1,406.8z M519.7,432.9l-0.6,1.6l0.3,1.1l-0.3,0.9l-1.5-0.9L513,434
		l0.2-0.8l2.7,0.2L519.7,432.9L519.7,432.9z M504.4,424.2l1.2,1.7l-0.3,3.3l-1.1,0l-0.8,0.7l-0.5-0.4l-0.1-3.4l-0.4-1.2l1,0
		L504.4,424.2L504.4,424.2z"/>
	<path fill="#C6E4EA" d="M751,478.4l-2.7,1.8l-2.1,2.5l-0.6,1.9l4.3,6.5l2.3,1.6l1.4,1.9l1.1,4.6l-0.3,4.2l-1.9,1.5l-2.8,1.6
		l-2.1,2.1l-2.7,2.1l-0.6-1l0.6-1.5l-0.1-0.5l-1.3-1l1.5-0.7l2.5-0.2l0.3-0.6l-0.8-1.1l4-2.1l0.3-3.1l-0.6-1.8l0.4-2.7l-0.7-2
		l-1.9-1.8l-3.6-5.3l-2.7-1.5l0.4-0.5l1.5-0.6l0.2-0.5l-1-2.3l-0.4-0.2l-2.8,0l-2.2-3.9l0.8-0.4l4.4-0.3l2.1-1.3l1.2,0.9l1.9,0.4
		l-0.2,1.5l1.3,1.2L751,478.4L751,478.4z"/>
	<path fill="#C6E4EA" d="M309.8,677.1l-2.3-0.5l-5.8-0.4l-0.9-1.7l0.1-2.4l-0.5-0.4l-1.4,0.2l-0.7-0.9l-0.2-3.1l1.9-1.5l0.8-2
		l-0.2-1.7l1.3-2.7l0.9-4.1l-0.2-1.7l0.9-0.5l0.2-0.4l-0.3-1.2l-1-0.7l0.6-0.9l-0.1-0.5l-1-1.1l-0.5-3.1l1-0.9l-0.4-3.6l1.2-5.4
		l1.4-1l0.2-0.4l-0.8-2.8l0-2.4l1.8-1.8l0.1-2.6l1.4-2.9l0-2.6l-0.7-0.7l-1.1-4.5l1.5-2.7l-0.2-2.8l0.9-2.4l1.6-2.5l1.7-1.6l0-0.5
		l-0.6-0.8l0.4-0.9l-0.1-4.2l2.7-1.4l0.9-2.8l-0.2-0.7l1.8-2l2.9,0.6l1.4,1.8l0.7-0.1l0.9-1.9l2.4,0.1l5,4.8l2.2,0.5l3,1.9l2.5,1
		l0.2,0.8l-2.4,3.9l0.2,0.6l5.4,1.2l2.1-0.4l2.5-2.2l0.5-2.4l0.8-0.3l1,1.2l0,1.8l-3.7,2.5l-2.9,2.7l-3.4,3.9l-1.3,5.1l0,2.7
		l-0.5,0.7l-0.4,3.3l3.1,2.6l-0.2,2.1l1.4,1.1l-0.1,1.1l-2.3,3.5l-3.5,1.5l-4.9,0.6l-2.7-0.3l-0.4,0.5l0.5,1.6l-0.5,2.1l0.4,1.4
		l-1.2,0.8l-2.4,0.4l-2.3-1l-1.4,0.8l0.4,3.6l1.7,0.9l1.4-0.7l0.4,0.8l-2,0.9l-2,1.9l-1,4.6l-2.3,0.1l-2.1,1.8l-0.6,2.8l2.5,2.3
		l2.2,0.6l-0.7,2.3l-2.8,1.7l-1.7,3.9l-2.2,1.2l-1.2,1.7l0.8,3.8L309.8,677.1L309.8,677.1z M317.2,687.1l-2,0.2l-1.4-1.2l-3.8-0.1
		v-5.8l1.6,3l3.3,2.1l3.1,0.8L317.2,687.1L317.2,687.1z"/>
	<path fill="#C6E4EA" d="M766.3,601.4l0.3,0l0.2-0.5l-0.5-1.4l0.9,1.1l0.5,0.1l0.3-0.4l-0.1-1.6l-2-3.6l1.1-3.3l-0.2-1.6l0.3-0.6
		l0.4,1.1l0.4-0.2l1-1.7l1.9-0.8l1.3-1.2l1.8-0.9l1-0.2l0.9,0.3l1.9-1l1.5-0.3l1-0.8l1.4,0l2.8-0.8l1.4-1.2l0.7-1.5l1.4-1.3l0.3-2.6
		l1.3-1.6l0.8,1.7l0.5,0.2l1.1-0.5l0.2-0.6l-0.7-1l0.5-0.7l0.8,0.4l0.6-0.3l0.3-1.8l1.9-2.1l1.1-0.4l0.3-0.6l0.6,0.2l0.5-0.7
		l1.9-0.6l1.7,1l1.3,1.5l3.4,0.4l0.4-0.5l-0.5-1.2l1-1.8l1-0.6l0.1-0.5l-0.2-0.4l0.9-1.2l1.3-0.8l1.3,0.3l2.1-0.5l0.3-0.4l0-1.3
		l-0.9-0.8l1.5,0.6l1.4,1.1l2.1,0.7l0.8-0.2l1.4,0.7l1.7-0.7l0.8,0.2l0.6-0.3l0.7,0.8l-1.3,1.9l-0.7,0.1l-0.3,0.5l0.2,0.9l-1.5,2.3
		l0.1,1l2.2,1.7l2,0.8l3,2.4l2,0.7l0.5,0.9l2.7,0.8l1.8-1.1l2.1-6l-0.4-3.6l0.3-1.7l0.5-0.9l-0.3-0.7l1.1-3.3l0.5-0.5l0.4,0.7
		l0.2,1.5l0.7,0.5l0.2,1l0.8,1.2l0.1,2.4l0.9,2l0.6,0.2l1.3-0.8l1.7,1.7l-0.2,1.1l0.5,2.2l0.4,1.3l0.7,0.5l0.6,2l-0.2,1.5l0.8,1.8
		l6,3.7l-0.1,0.8l1.4,1.6l1,2.8l0.6,0.2l0.7-0.4l0.8,0.9l0.6,0l0.5,2.4l4.8,4.7l0.7,2l-0.1,3.3l1.1,2.2l-0.1,2.2l-1.1,3.7l0,1.6
		l-0.5,1.9l-1,2.4l-1.9,1.5l-1.7,3.5l-2.4,6.1l-0.2,2.8l-1.1,0.8l-2.8,0.1l-2.3,1.2l-2.5,2.2l-3.1-1.6l0.3-1.1l-0.5-0.5L843,633
		l-2,1.9l-7.1-2.2l-1.5-1.6l-1.1-3.7l-1.5-1.3l-1.8-0.3l0.6-1.2l-0.6-2.1l-0.7-0.1l-1.1,1.8l-0.9,0.2l0.6-0.8l0.4-1.5l0.9-1.3
		l-0.1-2.3l-0.7-0.2l-2,2.3l-1.5,0.9l-0.9,2l-1.3-0.8l0-1.5l-1.6-2l-1.1-0.9l0.2-0.3l-0.1-0.6l-3.2-1.7l-1.8-0.1l-2.5-1.3l-4.6,0.3
		l-6,1.9l-2.5-0.1l-2.6,1.4l-2.1,0.6l-1.5,2.6l-3.5,0.3l-2.3-0.5l-3.5,0.4l-1.6,1.5l-0.8,0l-2.4,1.6l-3.3-0.1l-3.7-2.2l0-1l1.2-0.5
		l0.5-0.9l0.2-3l-0.3-1.6l-1.3-2.9l-0.4-1.5l0-1.7l-1-1.7l-0.2-1l-1-1l-0.3-2L766.3,601.4L766.3,601.4z M845.4,641.6l2.7,1l3.2-1
		l1.1,0.1l0.2,3.1l-0.8,1.1l-0.2,1.6l-0.9-0.2l-1.6,1.9l-1.7-0.2l-1.4-2.4l-0.4-2l-1.4-2.5l0-0.8L845.4,641.6L845.4,641.6z"/>
	<path fill="#C6E4EA" d="M568.2,451.2l0.4-0.8l0.2,0.4l-0.3,1l0.5,0.4l0.7-0.2l-0.9,3.6l-1.2-3.3l0.6-0.7L568.2,451.2L568.2,451.2z
		 M569.2,448.5l0.4-1h0.6l0.5-0.5l-0.5,1.5l-0.6-0.2L569.2,448.5L569.2,448.5z"/>
	<path fill="#C6E4EA" d="M683.8,455.2l-1.2,1l-1,2.5l0.2,0.5l8,3.9l3.4,0.4l1.6,1.4l4.9,0.9l2.2,0l0.4-0.3l0.3-1.2l-0.3-1.6l0.1-0.9
		l0.8-0.3l0.5,2.5l2.3,1l1.8-0.4l4.1,0.1l0.4-0.4l0.2-1.7L712,462l1.4-0.3l2.2-2l2.7-1.6l1.9,0.6l1.8-1l0.8,1.1l-0.7,0.9l0.3,0.6
		l2.4,0.4l0.1,0.5l-0.8,0.8l0.1,1.1l-1.5-0.3l-3.2,1.9l-0.1,1.8l-1.3,2.1l-0.2,1.4l-0.9,1.8l-1.6-0.5l-0.5,0.4l-0.1,2.6l-0.6,1.1
		l0.2,0.8l-0.5,0.3l-1.2-3.7l-1.1-0.3l-0.4,0.3l-0.2,1l-0.7-0.7l0.5-1.1l1.2-0.3l1.2-2.2l-0.2-0.6l-1.6-0.5l-4.3-0.3l-0.2-1.6
		l-0.3-0.4l-1.1-0.1l-1.9-1.1l-0.6,0.2L702,467l0.1,0.5l1.4,1.1l-1.1,0.7l-0.7,1.1l0.2,0.6l1.2,0.6l-0.3,1.5l0.8,1.9l0.4,2l-0.2,0.6
		l-4.6,0.5l-0.3,0.4l0.1,1.8l-1.2,1.4l-3.7,1.8l-2.8,3l-4.3,3.3l-0.2,1.3l-4.7,1.8l-0.8,2.2l0.6,5.3l-1.1,2.5l0,3.9l-1.2,0.3
		l-1.1,1.9l0.4,0.8l-1.7,0.5l-1,1.8l-0.7,0.5l-2.1-2l-2.1-6l-2.2-3.6l-1-4.8l-2.3-3.6l-1.8-8.2l0-3.1l-0.5-2.5l-0.5-0.3l-3.5,1.5
		l-1.5-0.3l-2.9-2.8l0.8-0.7l0.1-0.5l-0.7-1l-2.7-2.1l1.2-1.3l5.3,0l0.4-0.5l-0.5-2.3l-1.4-1.5l-0.3-1.9l-1.4-1.2l2.3-2.4l3,0.1
		l2.6-2.9l1.6-2.8l2.4-2.7l0.1-2l2-1.5l0-0.6l-1.9-1.3l-0.8-1.8l-0.8-2.2l0.9-0.9l3.6,0.6l2.9-0.4l2.3-2.2l2.3,2.9l-0.2,2.1l1,1.6
		l0,0.8L678,448l-0.5,0.5l0.7,3.1l2.6,2L683.8,455.2L683.8,455.2z"/>
	<path fill="#C6E4EA" d="M556,544.6l2.8-3.1l0-0.8l-0.6-1.3l0.7-0.5l0.1-1.5l-0.8-1.2l0.3-0.1l2.3,0l-0.5,2.8l0.8,1.3l0.5,0.1l1-0.5
		l1.2-0.1l0.6,0.2l1.4-0.6l0.1-0.7l-0.7-0.6l1.6-1.7l8.6,4.9l0.3,1.5l3.3,2.3l-1,2.8l0.1,1.6l1.6,1.1l-0.6,1.8l0,2.3l1.9,4l0.6,0.4
		l-1.5,1.1l-2.6,0.9l-1.4,0l-1.1,0.8l-2.3,0.4l-2.9-0.7l-0.8,0.1l-0.6-0.8l-0.3-2.8l-1.3-1.4l-3.2-0.8l-4-1.6l-1.2-2.4l-0.3-1.8
		l-1.8-1.5l0.4-1l-0.4-0.9l0.1-1l-0.5-0.6L556,544.6L556,544.6z"/>
	<path fill="#C6E4EA" d="M599.8,423.9l1.3,0.3l1.9-1.8l2.3,3.3l1.4,0.4l-1.3,0.1l-0.3,0.3l-0.8,3.1l-1,1l0,1.1l-1.3-1.1l0.7-1.2
		l0-0.5l-0.7-0.9l-1.5,0.1l-2.3,1.7l0-1.3l-2-1.4l0.5-0.6l-0.1-0.6l-1-0.8l0.3-0.4l-0.1-0.6l-1.1-0.9l1.9,0.7l1.7,0.1l0.4-0.9
		l-0.8-1.4l0.4,0.1L599.8,423.9L599.8,423.9z M594.3,428.8l0.6,0.5h0.7l0.6,1.1l-0.7-0.1L594.3,428.8L594.3,428.8z"/>
	<path fill="#C6E4EA" d="M465.6,383.6l0.4,2.1l-1.8,2.8l-4.2,1.9l-2.8-0.4l1.7-3l-1.2-3.5l4.6-3.7l0.3,1.1l-0.5,1.7l0.4,0.5l1.5,0
		L465.6,383.6L465.6,383.6z"/>
	<path fill="#D1E870" d="M816.9,536.1l0.7,4l2.8,1.8l0.5-0.1l2-2.6l2.7-1.4h2l3.9,1.7l2.5,0.5l0.1,15.1l-1.8-1.5l-2.5-0.5l-0.9,0.7
		l-2.3,0.1l0.7-1.3l1.5-0.6l0.2-0.5l-0.7-2.7l-1.2-2.2l-5-2.3l-2.1-0.2l-3.7-2.3l-0.5,0.1l-0.7,1.1l-0.5,0.1l-0.5-1.9l-1.2-0.8
		l1.8-0.6l1.7,0l0.4-0.5l-0.2-0.7l-0.4-0.3h-3.5l-1.1-1.5l-2.1-0.4l-0.5-0.6l2.7-0.5l1.3-0.8l3.7,0.9L816.9,536.1L816.9,536.1z
		 M818.4,548.5l-0.6,0.8l-0.1-0.8l0.6-1.1L818.4,548.5L818.4,548.5z M807.9,541.2l0.3,0.7l-1.2-0.6l-4.7-0.1l0.3-0.6l2.8-0.1
		L807.9,541.2L807.9,541.2z M801.5,533.4l-0.7-2.9l0.6-2l0.4,0.9l1.2,0.2l0.2,0.7l-0.1,1.7l-0.8-0.2l-0.5,0.3L801.5,533.4
		L801.5,533.4z M799.5,541.7l-0.5,0.4l-1.3-0.4l-0.2-0.4l1.7-0.1L799.5,541.7L799.5,541.7z M781.9,532.7l-0.2,2l2.2,2.2l0.5,0
		l1.3-1.1l2.8-0.5l-0.9,1.2l-2.1,0.9l-0.2,0.6l2.2,3l-0.3,1.1l1.4,1.7l-2.3,0.9l-0.3-0.3l0.1-1.2l-1.6-1.3l0.2-2.2l-0.6-0.4
		l-1.7,0.8l-0.2,0.4l0.3,6.2l-1.1,0.2l-0.7-0.5l0.6-2.2l-0.4-2.4l-0.4-0.3l-0.8,0l-0.6-1.3l1-1.6l0.3-2L781.9,532.7L781.9,532.7z
		 M789.1,544.5l0.4,0.5l0,1.3l-0.9,0.5l-0.5-0.5L789.1,544.5L789.1,544.5z M789.5,535.2l0.3,0l0,0.1L789.5,535.2L789.5,535.2z
		 M782.2,532.2l0.2-0.3l1.9-1.7l1.8,0.7l3.2,0.4l2.9-0.1l2.4-1.7l-1.7,2.1l-1.7,0.4l-2.4-0.5l-4.2,0.1L782.2,532.2L782.2,532.2z
		 M791,558.7l1.1-1.9l2-0.8l0.1,0.6l-1.5,1.7L791,558.7z M788.6,554.1l-0.1,0.4l-3.5,0.7l-2.9-0.3v-0.2l1.5-0.4l1.7,0.7l1.7-0.2
		L788.6,554.1L788.6,554.1z M783.4,558.4l-0.6,0l-2.3-1.2l1.1-0.2L783.4,558.4L783.4,558.4z M776.7,554l0.9,0.5l1.3-0.2l0.2,0.3
		l-4.7,0.7l0.4-0.7l1.2,0L776.7,554L776.7,554z M772.1,542l-0.4-0.2l-2.5,1l-1.1-1.4l-1.7-0.1l-1.2-0.8l-3,0.8l-1.1-1.1l-3.3-0.1
		l-0.3-3l-1.3-1l-1.1-2l-0.3-2.1l0.3-2.1l0.9-1l0.4,1.2l2.1,1.5l1.5-0.5l1.8,0.1l1.4-1.2l1-0.2l2.3,0.7l2.3-0.5l1.5-3.6l1-1l0.8-2.6
		l4.1,0.3l-1.1,1.8l0,0.5l1.7,2.2l-0.2,1.4l2.1,1.7l-2.3,0.4l-0.9,1.9l0.1,2l-2.4,1.9l-0.1,2.5L772.1,542L772.1,542z M753.1,550.2
		l0.3,0.3l4.8,0.2l0.8-1l4.2,1.1l1.1,1.7l3.7,0.5l2.1,1l-1.8,0.6l-2.8-1l-4.8-0.1l-5.2-1.4l-1.8-0.2l-1.1,0.3l-4.3-1l-0.7-1.1
		l-1.6-0.1l1.2-1.6l2.7,0.1l2.9,1.1L753.1,550.2L753.1,550.2z M746,547.4l-2.2,0l-2.1-2l-3.2-2l-2.9-3.5l-3.1-5.3l-2.2-2.1l-1.6-4.1
		l-2.3-1.7l-1.3-2.1l-2-1.5l-2.5-2.7l-0.1-0.7l4.8,0.5l2.2,2.4l3.3,2.7l2.3,2.7l2.7,0.2l2,1.6l1.5,2.2l1.6,1l-0.8,1.7l0.2,0.5
		l1.4,0.9l0.8,0.1l0.4,1.6l0.9,1.4l2,0.4l1,1.3l-0.6,3L746,547.4L746,547.4z"/>
	<path fill="#C6E4EA" d="M553,410.6l1.3-2.5l1.8,0.2l0.7-0.2l0.1-0.7l-0.2-0.8l-0.8-0.7l-0.3-1.2l-0.9-0.6l0-1.2l-1.1-0.9l-1.1-0.2
		l-2-1l-1.7,0.3l-0.7,0.5H547l-0.8,0.8l-2.5,0.7l-1.2-0.7l-3.1-0.4l-0.9,0.4l-0.2-0.5l-1.1-0.7l0.3-0.9l1.3-1l-0.5-1.2l2-2.4
		l1.4-0.6l0.2-1.2l-1-2.4l0.8-0.1l1.3-0.8l1.8-0.1l2.5,0.3l2.9,0.8l1.9,0.1l0.9,0.4l1-0.4l0.8,0.7l2.2-0.1l0.9,0.3l0.5-0.3l0.1-1.5
		l0.6-0.5l2.9-0.1l0.8-0.7l3-0.2l1.2,1.5l-0.5,0.8l0.2,1l0.4,0.3l1.8,0.1l0.9,2.1l3.2,1.1l1.9-0.4l1.7,1.5l1.4,0l3.3,1l0,0.5l-1,1.6
		l0.5,2l-0.3,0.7l-2.4,0.3l-1.3,0.9l-0.2,1.4l-1.8,0.3l-1.6,1l-2.4,0.2l-2.2,1.2l-0.2,0.4l0.3,2.3l1.2,0.8l2.1-0.1l-0.1,0.3
		l-2.7,0.5l-3.2,1.7l-0.9-0.4l0.4-1.1l-0.2-0.5l-2.2-0.7l2.3-1.1l0.1-0.6l-0.9-0.8l-3.6-0.7l-0.1-0.9l-0.5-0.3l-2.6,0.6l-0.9,1.7
		l-1.7,2l-0.9-0.4L553,410.6L553,410.6z"/>
	<path fill="#C6E4EA" d="M609.8,469.8l-0.8-0.2l-0.1-1.6l0.8-1.3l0.5,0.5l0,1.3L609.8,469.8L609.8,469.8z"/>
	<path fill="#C6E4EA" d="M569.1,566.9l-0.3-2.6l0.5-2l3.5,0.6l2.5-0.4l1-0.8l1.5,0l2.7-1l1.7-1.2l0.5,9.2l0.4,1.2l-0.7,1.7l-0.9,1.7
		L580,575l-5.2,2.3L572,580l-1,0.5l-1.7,1.8l-1,0.6l-0.3,2.4l1.2,1.9l0.5,2.2l0.4,0.3l-0.1,2.1l-0.4,1.2l0.5,0.7l-0.2,0.7l-0.9,0.8
		l-5.1,2.4l-1.2,1.4l0.2,1.1l0.6,0.4l-0.1,0.7l-1.2,0l-0.7-3l0.4-3.1l-1.8-5.4l2.5-2.8l0.7-1.9l0.4-0.4l0.3-1.5l-0.4-0.9l0.6-3.7
		l0-3.3l-1.5-1.2l-1.2-0.2l-1.7-1.2l-1.9,0l-0.3-2.1l7.1-2l1.3,1.1l0.9-0.1l0.7,0.4l0.1,0.7l-0.5,1.3l0.2,1.8l1.8,1.8l0.6-0.1
		l0.7-1.6l1.2-0.9l-0.3-3.5l-1-1.8L569.1,566.9L569.1,566.9z"/>
</g>
</svg>
