<?xml version="1.0" encoding="utf-8"?>
<!-- Generator: Adobe Illustrator 18.1.1, SVG Export Plug-In . SVG Version: 6.00 Build 0)  -->
<svg version="1.1" id="Isolation_Mode" xmlns="http://www.w3.org/2000/svg" xmlns:xlink="http://www.w3.org/1999/xlink" x="0px"
	 y="0px" viewBox="0 627 1161.1 574.1" enable-background="new 0 627 1161.1 574.1" xml:space="preserve">
<g transform="scale(0.7937679279066664) translate(-6.550488334433174, 31.60965764740412)">
	<path fill="#80B725" d="M1066.8,1139.7l-1-3.3l-2.3-2.8l-3.7-0.2l-0.7,0.8l0.3,1.5l-0.8,1.6l-1.1-0.7l-1.1,0.7l-2-0.7l-0.7-3.3
		l-1.3-3.1l0.7-2.4l-0.3-0.8l-1.8-0.8l0.5-0.8l2.4-1.5v-1l-2.4-2l0.8-1.8l2.6,1.5l1.6,0.2l0.3,2.4l0.5,0.7l9.1,1l-1.3,2.6l-2,0.5
		l-1.3,2.4l0.2,0.8l2.3,2.3l1.1-0.3l0.7-2.3l2,6.2v2l-0.5-0.2L1066.8,1139.7L1066.8,1139.7z"/>
	<path fill="#D3D50E" d="M704.7,999.4l3.1,0.3l3.4-1l4.2,3.3l-0.3,2.8l-1.1,0.7l-0.3,2l-2.8-1.8l-2.3,0.2l-4.4-4.4l-2-0.3l-0.3-0.8
		L704.7,999.4L704.7,999.4z"/>
	<path fill="#C6E4EA" d="M691.9,1168l-0.2,1.5l0.5,2l2.3,2.8l0.2,1.8l0.5,0.7l4.1,0.8v2.1l-0.7,0.8l-1.8,0.3l-1.1,2l-1,0.3l-5.2-0.3
		l-1.5,0.7h-8.8l-0.7,0.7l0.3,4.4l-2-0.7l-2,0.2l-1.5,1l-3.7-2.8l-0.2-1.8l1-1.6v-1.5l3.1-3.3l0.7-2.9l0.7-0.7l2.1,0.5l1.6-0.8
		l0.8-1.1l2.9-1.8l0.8-1.3l3.6-1.6l1.8-0.5l1.1,0.7L691.9,1168L691.9,1168z"/>
	<path fill="#80B725" d="M806.1,1038.8l-1.5,1.5l-1.5,3.6l0.8,2.1l-2.6-0.3l-4.1,1.6l-0.5,2.4l-2.9,0.3l-3.3-1.6l-3.1,1.3l-2.3-0.2
		l-0.3-2.6l-1.6-1.6v-1.3l2-2.6v-1l-1.8-2v-1.5l1.5,1.6l1.5-0.3l3.1,0.8l6,0.3l2.3-1.3l4.4-1.1L806.1,1038.8L806.1,1038.8z"/>
	<path fill="#80B725" d="M760.4,1031.3l3.4,0.8h2.8l2.4,1.1l-0.7,1.3l0.2,0.8l1.6,1.6l-0.3,1.6l-2.9,1.8l-0.7,2.3l-2.8-1.5l-1.5-2
		l-3.4-2.9l-2.6-3.6l0.3-1l0.8,0.7l0.8-0.2l0.7-0.8L760.4,1031.3L760.4,1031.3z"/>
	<path fill="#C6E4EA" d="M1157.4,1210.3l1.1-1l2.3-1.5l-0.3,2.6h-1.3l-1,1L1157.4,1210.3L1157.4,1210.3z"/>
	<path fill="#D3D50E" d="M435.5,1319.5l-5-0.3l-0.7,0.3l-1.1,2.4l-2.1-2.4l-5.4-1l-3.9,3.9l-2.1,0.5l-1.5-5.4l-2.1-4.7l1.1-3.9
		l-0.2-0.7l-2-1.6l-0.7-3.1l-1.8-2.4l2.4-4.2l-1.6-3.7l0.8-1.8l-0.5-1.1l1.5-2.1l0.3-6.2l0.8-2l-2.9-5.5l4.1,0.2l1.3-1.3l5.5-3.1
		l4.4-0.5l-0.3,2.3l0.5,1.8v3.3l4.4,3.7l4.7,0.8l1.5,1.5l2.9,1l1.6,1.1h2.8l2,1l1,4.4l-1.1,0.8l1.6,4.9l0.7,0.5l7,0.2l-0.3,2
		l0.5,1.6l2.3,1.5l0.8,2.3l-0.7,3.1l-1.5,1l0.2,2.3l-4.4-2.8h-3.9l-7.2,1.3l-2.4,4.1l-0.2,2.4L435.5,1319.5L435.5,1319.5z"/>
	<path fill="#80B725" d="M1277.2,1036.7l2.9,1.1l2.6-1.6l0.7,3.9l-5.4,1.3l-3.6,4.7l-5.9-3.1l-1,0.3l-2.1,5h-3.6l-0.5-4.1l1.8-3.3
		l4.1-0.3l0.7-0.5l2-9.6l4.1,4.4L1277.2,1036.7L1277.2,1036.7z M1264.8,1069.9l-1.5,3.6l0.7,2.4l-1.8,2.9l-4.9,2.1l-7.5,0.5
		l-5.4,4.9l-2-1.3l-0.2-3.1l-0.8-0.7l-7,1l-4.9,2.1h-4.6l-0.7,0.5l0.2,0.7l3.7,3.1l-2.4,7l-2.1,1.5l-1.3-1.1l1-3.7l-0.3-0.7
		l-2.4-1.3l-1.1-2.3l3.4-1.3l2.1-2.8l4.1-2.3l2.9-3.1l7.8-1.3l4.2,1l0.7-0.3l3.9-7.6l2.1,1.8h0.8l8.3-6.5l2.8-6l-0.7-5.5l1.5-2.6
		l3.4-0.7l2,6l-0.2,3.6l-3.6,4.6L1264.8,1069.9L1264.8,1069.9z M1239.3,1084.4l0.3,1l-1.6,2l-2-1.1l-2.1,1l-1.1,2.4l-1.6-0.8v-1.5
		l1.8-2.3l2.6,0.2l1.3-1.6L1239.3,1084.4L1239.3,1084.4z"/>
	<path fill="#C6E4EA" d="M812.3,1245.9l-1.8-4.9l1.8-0.2l1-2l1.3,0.2l1,2.9L812.3,1245.9L812.3,1245.9z"/>
	<path fill="#C6E4EA" d="M705.1,1181.2v1.3l0.8,2.1l-0.7,1.5l0.3,1.3l-2.9,3.4l-1,2.9l-0.2,8.8l-2.3,0.3l-0.8-2.3l0.2-9.3l-0.8-1.1
		l-0.3-2.3l-2.4-2.4l0.3-1.5l1.5-0.7l0.7-1.5l2.1-0.7l2-2.1h1L705.1,1181.2L705.1,1181.2z"/>
	<path fill="#C6E4EA" d="M1064.3,1113l1.3,1.1l-0.2,1.8l-6.2-0.2l-2.6,0.7l-3.1-1.5l2.4-3.3l1.8-1l2.6,1l2.1,0.2L1064.3,1113
		L1064.3,1113z"/>
	<path fill="#C6E4EA" d="M377.9,1154.5l-1.3,0.7l-3.7-1.8l1.3-0.3l3.4,0.5l2,1L377.9,1154.5L377.9,1154.5z"/>
	<path fill="#F7E205" d="M793.6,1302.2l3.7,6.5l4.6,4.7l1.6,0.5l1.3,3.9l3.4,1l1.6,1.3l-4.9,2.6l-3.7,3.3l-2.4,4.4l-2.6,0.7l-1,3.1
		l-2.1,0.8l-3.1-0.2l-2-1.1l-2.3-0.5l-2,1l-1.3,2.3l-3.7,3.1l-2.3,0.3l-0.5-1l0.3-2.9l-2.4-4.1l-1-0.7v-11.6l3.4-0.2l0.7-0.7
		l0.2-14.5l8.5-1.5l1.3,1.5l0.8,0.2l2.4-1.6L793.6,1302.2L793.6,1302.2z"/>
	<path fill="#80B725" d="M429.3,1212.6l5.2,1.1l1-0.8l7.3-2.1l1.8-1.8v-1h0.8l0.5,0.5l-0.5,1.5l0.3,0.8l1.1,0.5l0.7,1.3l-1,1.5
		l-0.7,3.4l1.3,4.2l2.8,2.3l2.3,0.3l5.2-2.8l5.2,0.5l1-1.3l-0.5-1.5l3.1-0.2l3.9,1.6l1.8-1l1.3,1.3l2-0.3l2-1.8l1.3-3.1l2.3-3.4h0.7
		l3.1,8.9l2.1,1v2.1l-2.9,3.1v1l1.6,1.5l6.7,0.7l0.2,3.6l1.1,0.5l2.8-2.4l11.4,3.7l1.6,2l-0.7,2l0.8,0.8l4.6-1.1l7.8,2.1l6.2-0.2
		l5.9,3.3l5.4,4.7l3.1,1.1l3.4,0.2l1.1,1l2,7.3l-1.6,6.5l-7.6,8.3l-2.6,4.7l-2.8,3.3l-1.3,0.5l-1.1,3.3l0.3,7.6l-1.5,8.9l-1.3,1.8
		l-0.7,5.5l-4.1,5.7l-0.7,4.1l-3.1,1.6l-1.1,2.4h-4.1l-6.3,1.6l-2.9,2l-4.7,1.3l-4.9,3.6l-3.6,4.6l-0.7,3.3l0.7,2.6l-0.7,4.2l-0.8,2
		l-2.9,2.4l-4.6,7.8l-6.2,5.5l-2,4.4l-2,1.8l-0.7-1.3l1.6-1.8v-0.8l-2.4-3.3l-7.5-5.4h-1.6l-3.9-3.3h-1.3l8.6-8.9l6.2-4.2l0.3-4.1
		l-2.3-2.9l-1.5,0.2l1-3.7v-2.4l-1.8-1.3l-2.9,0.5l-0.7-5l-0.8-1.6l-3.1-1.5l-2,0.8l-3.6-0.7l0.2-5.2l-1-2.1l1.1-1.1l-0.3-2.1
		l1.1-1.8l0.7-3.3l-1-2.9l-2.3-1.5l-0.3-1.3l0.5-2.3l-0.7-0.8l-7.3-0.2l-1.1-3.6l1-0.7v-1.8l-0.8-1.5l-0.5-2.8l-2.4-1.3h-2.6
		l-1.6-1.1l-2.6-0.8l-1.8-1.6l-4.4-0.7l-4.1-3.4l0.2-7.2l-0.8-0.8l-5.7,0.8l-5.5,3.1l-1,1.1l-4.7-0.3l-2.4,0.7l-1.1-0.3l0.2-5.7
		l-1-0.5l-3.1,2.3l-3.1-0.2l-1.3-2l-2.3-0.5l0.3-1.6l-2.3-2.4l-1.5-3.1l1-1v-1.3l2.1-1l0.3-0.7l-0.3-2l1-1.5l0.2-1.6l4.2-2.6
		l3.3-0.8l0.7-0.7l3.4,0.2l0.7-0.5l2-13l-0.7-2.6l-1.8-1.6v-2.1l3.1-0.7l0.2-1.6l-0.5-0.7l-1.6,0v-1.3h7.3l1.3-1.1l1.3,2.9l1.3,0.2
		l1.8,1.8h3.7l1.1-1.3l4.6-1.6l0.8-1.8l2.6-1l0.3-0.8l-0.8-1.3l-2.9-0.3L429.3,1212.6L429.3,1212.6z"/>
	<path fill="#C6E4EA" d="M374.6,1129.4l-0.8-1.8l-1.3-1.3l0.7-1.8l1.6,3.1L374.6,1129.4z M373.1,1117.2l-3.1,0.5v-0.3l1.1-0.2
		L373.1,1117.2L373.1,1117.2z"/>
	<path fill="#C6E4EA" d="M809.7,973.9l0.5,1.1l0.8,0.3l2-0.7l3.4,1.1l0.3,2.1l-0.8,2l2.6,3.7l1.5,1l0.3,1.3l2.6,1l0.7,0.8l-0.8,0.7
		l-3.1-0.2l-1.1,0.7l-0.2,0.8l1.6,4.4l-3.1,0.5l-1.5,1.6l-0.2,2h-4.4l-0.8-1l-0.8-0.2l-1.3,0.8l-1.5-0.7l-3.1-0.2l-4.6-1.3l-4.2-0.5
		l-3.3,0.2l-2.4,1.5l-1.1,0.2l-0.2-2l-1-2l2.3-1.5v-2.3l-1.1-2.3l-0.2-1.6h3.6l4.4-2.1l1.3-3.3l3.1-1.6l0.3-0.7l-0.3-2l6.2-2.9
		L809.7,973.9L809.7,973.9z"/>
	<path fill="#C6E4EA" d="M328.4,1162.8l0.2-7.3l1.1-0.2l1.1-2.1l0.5,0.5l-0.7,2.1l0.3,1l-0.5,3.6L328.4,1162.8L328.4,1162.8z"/>
	<path fill="#80B725" d="M806,952.6l4.1-3.1v-1l-3.6-2.4l11.9-11.1l1.6-3.4l-0.2-0.8l-5.7-4.1l1.5-4.4l-3.4-4.6l2.6-6l-4.6-7.3
		l3.4-4.9l-0.2-0.8l-6-4.4l0.5-4.1l2.9-0.7l7-2.9l3.9-2.4l6.7,4.2l11.1,1.6l15.1,7.8l2.9,3.1l0.2,4.1l-4.1,3.3l-6.3,1.8l-18.1-5
		l-3.4,0.8l-0.2,1.1l6.3,4.7l0.5,9.6l0.5,0.7l8.3,3.6l1-0.5l0.5-3.1l-2.1-2.9l1.8-1.8l9.9,3.9l3.4-1.6l0.3-1l-2.4-4.4l8.8-6.2
		l3.4,0.3l3.7,2.3l1-0.3l2.4-4.7v-0.7l-3.1-3.7l1.8-3.7l-2.1-3.7l9.6,2l1.6,2.9l-4.2,0.7l-0.5,0.7v3.9l4.1,2.9l6.3-1.5l1.5-4.6
		l22.1-8.9l1.6,0.2l-3.1,3.4l0.3,1.1l5,0.8l3.3-2.4l7.5-0.2l5.9-2.8l4.4,3.9h1l4.6-4.7v-1l-3.7-3.7l1.5-1.6l11.6,2.1l5.5,2.3
		l14.6,8.1l0.8-0.2l2.8-3.7v-0.8l-3.9-3.6l-0.2-1.3L969,887l-4.1-0.7l1-3.1l-2.1-5.7l-0.2-2l7.3-6.7l2.8-7l2.6-1.3l10.1,2l0.7,3.6
		l-3.7,6l0.2,0.8l2.4,2.3l1.3,4.9l-1,9.8l4.4,4.6l-1.6,4.2l-8,9.6l0.3,1l4.7,1l0.7-0.3l1.5-2.3l4.2-1.6l1.5-3.6l3.4-3.3l0.2-0.8
		l-2.3-3.7l1.8-4.4l-0.5-1l-4.1-0.5l-0.8-3.4l3.1-7.2l-0.2-0.7l-4.9-5.5l6.7-4.7l0.3-0.7l-0.8-4.7h0.8l1.8,3.6l-1.6,7l0.5,0.8
		l4.4,1.3l0.8-0.8l-1.6-4.9l6.2-2.8l8.1-0.3l7.3,4.2l0.8-0.2l0.2-0.8l-3.6-6.2l-0.3-7.6l6.5-1.5l9.8,0.3l8.9-1l0.5-1l-2.9-3.7
		l4.2-4.7l4.7-0.3l7.8-4.1l10.6-1.1l1.6-2.3l10.1-0.7l3.7,1.8l8.9-4.4l7.3,0.2l0.7-0.5l1.1-3.4l3.7-3.4l9.3-3.4l5.2,2.1l-4.1,1.5
		l-0.3,0.7l0.5,0.7l8.8,1.3l1,3.7l1,0.3l3.6-2l11.6,0.2l8.9,4.1l2.9,2.8l-0.8,3.6l-15,6.7l-3.3,2.4l0.3,1.1l11.1,3.1l3.6-1.3
		l1.8,4.4l1.1,0.2l1.6-2l6.2-1.1l12.5,1.3l0.8,3.3l0.7,0.5l17.1,1.1l0.7-0.7l0.2-5.2l8,1.3h6.5l6.2,3.9l1.6,4.4l-2.1,2.9v0.8
		l5.2,5.9l6.7,3.3l0.8-0.3l3.6-7.3l6.5,3.1l6.8-2l7.6,2.3l3.3-2.1l6.3,1l0.7-0.8l-2.8-6.5l4.7-2.9l36.3,4.9l3.6,4.6l10.6,5.7
		l16.8-1.3l7.8,1.1l2.9,2.8l-0.5,5l0.3,0.7l5,2.1l5.9-1.5l7-0.2l7.8,1.5l7.5-0.8l6.8,6.2l0.7,0.2l5-2.3l0.3-1l-3.1-4.2l1.3-2.4
		l12.5,2l8.5-0.5l11.6,3.4l15.6,8.5l10.3,6.7l-0.3,3.9l3.1,2.3l1-0.7l-0.8-4.1l10.1,1l7.2,5.7l-3.3,2.3l-6.5,0.7l-0.7,0.7l-0.2,6.2
		l-1.1,1l-3.4-0.2l-3.1-2.3l-5-1.8l-1.3-3.1l-4.4-1.1l-4.2,0.8l-1.6-1.8l0.8-2.1l-0.8-0.8l-4.9,1.6l-0.3,1l1.6,2.8l-2,2.4l-4.9,2.8
		l-5-0.5l-0.7,0.3l0.2,0.8l3.6,3.4l2.4,5.2l2,1.8l0.3,2.1l-0.7,1.1l-7.5-1.3l-11.4,4.7l-3.6,0.7l-12.4,8.3l-1.3,2.4l-5.9-3.9
		l-10.1,4.6l-1.5-1.8l-0.8-0.2l-3.7,2.4l-5.2-0.8l-0.7,0.5l-1.3,3.9l-4.9,6.2l0.2,2.4l0.5,0.7l4.1,1.1l-0.5,7.3l-3.3,0.2l-0.5,0.5
		l-1.8,4.7l1.3,2.3l-6.3,2.6l-1.6,6.3l-5.7,1.3l-0.5,0.5l-1.1,5.4l-5,4.2l-1.1-2.8l-3.9-20.2l2-7.6l3.3-3.4l0.3-2.6l6.2-1.5l7.3-7.5
		l7-6.2l7.3-4.9l3.6-9.1l-0.7-0.8l-4.9,0.5l-2.9,5.4l-9.6,6.3l-3.1-6.8l-0.8-0.3l-10.6,2.1l-10.6,10.4v0.8l2.6,2.8l-13.3,2l0.3-3.6
		l-0.5-0.7l-6.3-1l-5.2,2.9l-12.4-1l-13.8,2l-28.8,25.1l0.3,1.1l6,0.7l2.3,3.6l3.9,1.3l3.1-2.8l3.9,0.3l5.5,5.7l0.2,4.2l-3.3,5.5
		l-0.3,6.3l-1.8,8.3l-6,7.3l-1.5,3.6l-13.5,14.5l-5.2,2.8h-2.1l-2.4-2.3h-0.8l-3.7,2.4l0.7-5.9l-1-4.1l2.9-1.5l4.7,0.8l0.7-0.3
		l2.8-4.9l1.5-5.7l1.6-2l2.1-4.7l-0.8-1l-6.7,1.5l-3.6,2h-5.5l-1.8-4.7l-4.9-3.7l-7-1.8l-2.9-8.3l-4.4-8.1l-3.7-2.1l-6.2-1.6
		l-5.5,0.2l-5.2,1l-3.6,2.9v1.1l2,1.1v2.3l-2.1,1.6l-3.7,5.7v2.3l-5.2,2.9l-4.6-2l-4.9,0.3l-2.1-1.8l-2.4-0.7l-6.3,3.7l-5.2,0.8
		l-3.7,1.3l-4.9-0.8h-3.6l-2.4-2.6l-4.2-2.6l-4.2-0.7l-8.9,1.6l-5.2-2l-1.1-4.2l-8.5-2l-4.6-2.3l-0.8,0.2l-4.2,5.7l1.3,3.4l-3.4,3.1
		l-5.5-1.3l-3.9-0.2l-2.9-2.4l-4.1-0.2l-3.9-1.6l-6.3,2.6l-7.6,4.6l-5.4,1.1l-2.4-3.1l-4.9,0.7l-1.8-2.1l-2.6-1l-2.1-3.1l-2.3-1
		l-6,1.3l-5.4-2.9l-0.8,0.2l-1.6,2.1l-8.6-13.2l-4.9-4.1l1.1-1.3v-0.8l-0.8-0.2l-10.1,5.2l-2.9,0.2l0.3-2.3l-0.5-0.7l-5.2-2
		l-4.1,1.1l-1.1-5.2l-0.5-0.5l-7.3-1.3l-4.1,2.4l-10.1,2.1l-2.1,1.5l-15.5,2.1l-2,2v0.8l2.4,3.1l-3.1,1.1l-0.3,1l0.5,1l-3.4,2.3v1.1
		l6.2,3.4l-0.7,1.6l-5.2-0.2l-1.5,1.5l-5-2.6l-6.5,0.2l-4.4,2.3l-13.5-5.9l-6.7,0.2l-8.8,6l-0.7,3.3l-3.3-2.4l-1,0.2l-3.3,5.9l1,1.5
		l-2.1,3.6l0.2,0.8l3.4,3.6h3.3l2.3,2.9l-0.3,2.4l0.3,0.7l1.3,0.5l-1.3,2.1l-4.1,1l-4.1,5.2v0.8l3.6,4.6l-0.3,3.6l4.1,5.2l-2.6,2.6
		l-1.1-0.2l-2.6-2.8l-3.7-1.3l-1.5-2.1l-3.7-1l-2.4,0.7l-0.7-0.8l-5.7-2.4l-9.4-1.6l-0.8,0.3l-4.7-3.7l-4.7-2l-2.4-2.1l2.1-0.7
		l3.4-4.2v-1l-1.5-1.3l4.9-1.8l0.5-0.7l-0.2-1.1l-0.8-0.7l-2.8,0.7v-1.1l1.6-1.1l4.4-0.8l0.7-2.1l-0.8-2.6l1.5-2.4v-2l-0.5-0.7
		l-6-1.8h-2.3l-2.3-2.3l-3.6,0.7l-4.6-1.6v-1l-1.5-2.3l-3.3-0.5l-0.2-0.8l0.8-0.8v-0.8l-2.6-3.1h-5.9l-1.5,1.1l-0.8-0.2l-1.6-4.6
		h3.6l1.6-1.1l0.2-1l-1.5-1.6l-2.1-0.8l-0.2-1.1l-1.6-1l-2.3-3.3l0.8-1.6l-0.8-3.3l-4.1-1.3l-2,0.5l-0.8-1.3l-4.1-1.3l-1.1-3.1
		l-0.3-2.8l-1.6-1.5l1.3-2l-1.1-5.2l2.8-3.3L806,952.6L806,952.6z M1225.3,1042.9l-1,0.7l-0.2,0.3v-0.8L1225.3,1042.9z
		 M1429.6,875.6l-9.1,0.8l-0.5-1.3l5.2-3.1h3.1l5.2,2L1429.6,875.6L1429.6,875.6z M1303.7,844l-3.3,2.3l-6.2-0.7l-6.8-2.9l0.5-1.6
		L1303.7,844L1303.7,844z M1281.2,840.1l-2.6,5L1264,845l-6.7,1.8l-7.3-4.9l2-4.9l4.9-1.5l10.6,0.3L1281.2,840.1L1281.2,840.1z
		 M1272.4,984.8l-1-1.5l0.5-0.2L1272.4,984.8L1272.4,984.8z M1272.6,985.6l1.5,5.7v5.5l1.6,5.5l3.6,8.1l-4.7-1.3l-0.8,0.5l-2.4,7.3
		l3.9,5.7v1.8l-2-2l-1,0.2l-1.8,2.6l-0.5-2.6l0.5-5l-0.5-5.5l1-4.1l0.2-7.2l-2.4-5.5l0.3-7l3.6-2.4V985.6L1272.6,985.6z
		 M1262.2,857.2l2.9-2.3l4.7-0.7l5.4,2.8l0.2,1h-5.4L1262.2,857.2L1262.2,857.2z M1118.7,815.7l-21.2,3.1l6.5-10.4l2.9-1l2.8,0.5
		l9.8,4.9L1118.7,815.7z M1097.7,810.5l-8.3,1l-11.2-2.6l-6.5-3.4l-3.4-6.8l-4.2-1.5l9.3-5.7l8.5-2.1l7.6,4.7l9.1,8.8L1097.7,810.5
		L1097.7,810.5z M924.1,877.2l-1,0.3l-12.7-1l-1.5-3.3l-7-2l-0.5-3.1l3.7-1.5l0.3-0.7l-0.2-3.9l7.8-6.5l-0.3-1.1l-2.4-0.7l8.6-6.2
		l0.3-0.7l-1-3.1l8.6-4.1l13.3-5.4l13.5-1.6l7-3.1l7.5-1l2.3,2.6l-2.1,2.1l-26.7,8l-13,8l-12.5,15.6l1.1,6.7L924.1,877.2
		L924.1,877.2z M899.2,795.2l-8.9,2l-1,1.6l-4.2,1.3l-3.4-1.8l1.8-2.3l-0.5-1l-3.7-0.2l2.8-0.7l5.7-0.2l0.7,2.1l1.1,0.3l2.3-2.1
		l3.6-1.5l4.7,1.6L899.2,795.2L899.2,795.2z M782.8,981.7h-6.7l-4.2-0.5l0.5-1.5l5.2-1.6l5.2,1.6L782.8,981.7L782.8,981.7z"/>
	<path fill="#D3D50E" d="M814.9,1234.1l1.1,1.6l-0.2,1.8h-2.6l-1.6,2.3l-1.3-0.2l0.8-2l0.2-2.1l0.7-0.7l1.1,0.2L814.9,1234.1
		L814.9,1234.1z"/>
	<path fill="#50A631" d="M770,1032l0.7-0.8v-0.8l-1.8-2.6l2.3-1l2.1,0.2l2,1.8l0.8,1.8l2.1,1l0.5,2.3l2.4,1.5l1.3-0.5l0.3,1.1
		l-0.8,1.3l0.3,1.8l1.6,2l-1.3,1.3l-0.7,2.4l-2,0.2l0.3-1l-0.7-0.8l-3.4-2.6l-1.5,0.2l-0.8,1.5l-3.4-2.3l0.8-2.6l-1.8-2.3l0.8-1.8
		L770,1032L770,1032z"/>
	<path fill="#C6E4EA" d="M798.5,975.5l0.3,1.8l-2.9,1.6l-1.1,3.3l-4.1,2h-3.4l-1.1-1.8l-1.8-0.5l-0.2-3.1l-5.9-1.8l-0.7-3.9l4.1-1.5
		l6.7,0.3l3.6-0.5l0.8,1.1l2,0.3L798.5,975.5L798.5,975.5z"/>
	<path fill="#C6E4EA" d="M715.8,1008.2l-0.8-0.2l0.5-2.1l0.5,0.7L715.8,1008.2L715.8,1008.2z"/>
	<path fill="#C6E4EA" d="M655.9,1197.9l0.3,2.4l-0.8,1.6l0.2,0.8l4.1,2.9l-0.5,4.6l-4.2-1.8l-9.4-7.5l1-2.1l3.4-3.7l1.5-0.3l1.3,1.8
		l-0.2,1.5l1,1.5l1.6,0.2L655.9,1197.9L655.9,1197.9z"/>
	<path fill="#80B725" d="M799.4,1016l1,0.3l4.7,6.5l-0.3,4.4l0.8,2.3l2.1,1.3l2.1-0.7l1.3,0.7v0.5l-1.3,0.8l-1-0.3l-0.8,0.5l-1,5.4
		l-1.6-0.3l-3.4-1.8l-4.9,1.1l-2,1.3l-5.7-0.2l-3.1-0.8l-1.5,0.3l-1.3-2.1l0.5-0.5l-0.2-1l-1.8-0.5l-1,0.8l-1.6-1l-0.7-2.3l-2.3-1
		l-0.5-1.6l-1.3-1.3l2.4-0.8l4.4-6.8l3.9-2l4.9,0.5l2.4,1.1l1.3-0.7l2.9-0.5l1.3-1.1h1V1016z"/>
	<path fill="#C6E4EA" d="M634.6,1177.8l-0.5,1.3l0.2,1l-3.6,1l-1.5,1.6l-1.6-1.3l-1.8-0.3l-0.8-1.8l-1.1-0.8l3.9-0.8L634.6,1177.8z"
		/>
	<path fill="#C6E4EA" d="M323.7,1171.6l-4.1-0.7l-1.6-0.8l-1.8-1.5l0.5-1.6l-0.3-1.1l1.6-2.8h4.9l0.7-0.7l-0.3-2.1l-2.8-2.3l0.8-0.7
		v-1.8h6.3l-0.3,7.3l0.7,0.7l2.4,0.7l-2.4,1.6l-0.7,1.1l0.2,1L323.7,1171.6L323.7,1171.6z"/>
	<path fill="#C6E4EA" d="M798.6,1049.2l-1,2.3l-0.7,0.3l-4.6-0.7l-4.9,1.3l-0.3,1.1l2.1,2l-1,0.3h-1.8l-2-2.3h-1l-0.8,1.6l1,2.9
		l1.6,2l-1,0.7v1l4.1,3.4v1.5l-2.9-1l-0.8,1l0.8,1.6l-1.8,0.3l-0.5,0.8l1.3,3.3H783l-2.9-1.8l-2.3-6.8l-3.6-4.9l-0.2-1l1.6-2.1
		l0.3-1.5l1.5-1.1v-0.8l2.1-0.3l1.6-1l2,0.2l1-1h3.7l2.9-1.3l3.1,1.6l3.7-0.5l0.7-0.7v-1.3L798.6,1049.2L798.6,1049.2z
		 M788.1,1077.7l1,0.7l-1.1-0.2L788.1,1077.7L788.1,1077.7z M791.3,1078.8l4.1,0.2l0.3,0.5l-3.3,0.2L791.3,1078.8L791.3,1078.8z"/>
	<path fill="#C6E4EA" d="M736.5,1220.1v3.6h-6.7l1.1-3.7L736.5,1220.1z"/>
	<path fill="#C6E4EA" d="M457.6,1204.6l-0.5,2.9l-2.1,1l-0.3,0.8l-0.5,3.3l1.8,2.9l1.3,0.3l0.5,2l1.8,2.6l-2-0.3l-1.8,1.1l-2.9,0.8
		l-0.7,0.8l-1.5-0.2l-2.1-1.6l-1.3-3.7l0.7-3.1l1.1-2l-1-2l-1.1-0.7l0.2-2l-1.5-1.1l-1.8,0.2l-2.1-2.4l0.8-1.1v-1.3l3.3-1.5v-1
		l-1.1-1.3l0.2-1l2.8-2l2.3,1.3l2.3,2.4l0.2,2l0.7,0.7h1.3L457.6,1204.6L457.6,1204.6z"/>
	<path fill="#50A631" d="M855.1,1039.9l8.6,1.5l6.7,3.3l2.3-0.7l3.4,1l1.1,1.8l1.8,1l-0.2,1l1.6,2.1l-1.6-0.2l-2.9-1.3l-1.5,0.8
		l-5.2,0.7l-3.7-2.3l-3.7,0.2l0.3-1.6l-1.3-3.7l-2.4-1.8l-2.3-0.7L855.1,1039.9L855.1,1039.9z"/>
	<path fill="#80B725" d="M677.6,958.3l-3.6,5.2v0.7l8.3-0.5l-0.8,3.9l-3.6,5l0.5,1l3.9,0.3l3.7,7l2.9,1.1l3.6,8.3l4.7,1.3l-0.3,2.6
		l-1.8,1.5l-0.2,0.8l1.3,2.3l-3.1,2.3h-5.4l-6.7,1.5l-1.6-1l-0.8,0.2l-2.4,2.3l-3.4-0.5l-3.1,2l-1-0.5l5.2-4.9l3.6-1.1l0.5-0.7
		l-0.5-0.7l-6-0.8l-0.7-1.3l3.6-1.5l0.3-1l-2.1-2.8l0.7-2.8l5.5,0.5l0.7-0.5l0.7-3.3l-2.9-4.1l-5-1.1l-0.7-1l1.3-2.3V975l-1.3-1.6
		h-1l-1.1,1.3l-0.2-3.7l-2-3.1l1.5-5.7l2.9-4.4l3.1,0.5H677.6L677.6,958.3z M667.2,981.2l-1.6,2.9l-2.6-1h-2l0.7-2.4l-0.7-2.3
		l2.4-0.2L667.2,981.2L667.2,981.2z"/>
	<path fill="#C6E4EA" d="M743.6,1219.9l-0.2,1.6l1.1,2.1l3.9,0.3l-1.6,4.2l2,2.9l0.3,2.9l-0.5,2.4l-1,1.5l-2.9-0.2l-2-1.8l-1.1,0.3
		l-0.3,1.3l-2.1,0.7l-1.6,1.1l-0.2,0.8l1.3,2.1l-2.1,1.6l-6.3-7l-2.3-4.1l0.2-1l0.8-1.3l1.6-5.7l6.8-0.2l0.7-0.7v-4.4l3.9,0.3
		L743.6,1219.9L743.6,1219.9z"/>
	<path fill="#C6E4EA" d="M643.7,1178.6l0.8,1.3l1.8-0.5l1.6,1.1l1.8,0.3l3.7-2l1,0.7l1.8,2.6l-0.8,2.3l1.3,0.5l-0.2,0.8l0.8,1.1
		l-0.7,2.3l1.6,4.2l-1.6,1.1v2.3l-1.1-0.2l-1.8,1.6l-0.3-0.5l0.2-1.8l-1.6-2.4l-2.9,0.3l-0.7-3.3l-2.6-3.6h-3.3l-2.1,0.8l-3.3,3.6
		l-3.1-3.6l-2-1.3l-0.5-1.8l-1.3-1.5l1-1.1h1.3l2.6-1.3l0.3-3.1l4.4,1l1.5-0.5L643.7,1178.6L643.7,1178.6z"/>
	<path fill="#C6E4EA" d="M623.4,1174.2l0.2-0.7l3.9-0.2l1.1-1h0.8l1.3,0.8l-1.6-0.5l-3.1,1.5H623.4L623.4,1174.2z M631,1173.4
		l1.5,0.2l1.3-0.3l-1,0.5L631,1173.4L631,1173.4z"/>
	<path fill="#C6E4EA" d="M580.6,767.1l23.9,7.6l-6,3.1l-37.4,1.5l-0.7,0.5l0.2,0.7l2.4,2l14.3-1.1l12.2,3.4l8-2.9l2.8,2.8l-4.1,5.2
		v0.8l0.8,0.2l10.4-3.6l19.7-3.7l11.7,1.8l1.8,3.3l-15.9,6.5l-2.3,2.1l-12.9,1.6l-0.7,0.7l0.7,0.7l8.3,0.3l-4.1,5.9l-3.4,6.2
		l0.2,9.8l4.2,5l-5.2,0.3l-6.7,2.8v1.1l7.3,4.2l0.8,6.2l-3.7,0.7l-0.3,1l4.6,6l-7.8,0.5l-0.7,0.5l0.3,0.7l4.2,2.9l-1,2l-5.4,1.1
		h-5.7l-0.5,1.1l4.9,5v2.1l-7.2-2.8l-2.8,2.3l0.2,1.1l5.4,1.8l5,4.4l1.3,5.2l-6.3,1.3l-8-7h-0.8l-0.3,0.7l1.3,4.7l-4.4,3.6l-0.2,0.7
		l0.7,0.5l14.2,0.5L578,893l-11.7,2.4l-4.7,0.2l-4.4,2.9l-5.5,7.2l-8.5,4.6l-2.8,0.3l-11.6,3.4l-3.4,4.1l-0.2,4.9l-2,3.9l-6.5,5
		l-0.2,0.7l1.6,4.7l-3.7,10.6l-5,0.3l-6.2-5h-8l-3.6-3.1l-2.8-6.2l-7-7.8l-2-4.1l-0.7-6.2l-5.4-5.9l1.3-4.7l-2.6-2.8l3.7-7.5
		l6.2-2.8l1.6-3.3l0.8-5.7l-1-0.7l-6.8,3.6l-3.4,1l-4.4-2.1l-0.2-4.4l1.5-3.4l3.3-0.2l8.3,2l0.8-0.3l-0.2-0.8l-10.6-7.3l-4.4,0.8
		l-2.6-1.5l4.2-6.5v-0.8l-2.4-2.8l-8.1-13.8l-5-3.3v-3.1l-0.3-0.7l-11.2-4.9l-8.8-0.7l-20.7,1l-4.6-2.6l-6-4.6l9.3-2.3l8.1-0.5
		l0.7-0.7l-0.7-0.7l-17.4-2.3l-8.6-3.4l0.3-2.4l29.5-8l2-3.7l-0.3-0.8l-9.9-3.1l2.8-2.9l13.8-6.5l5.9-1l0.5-0.8l-1.5-3.7l8.9-2.4
		l12.4-1.6h12.2l4.9,3.1l10.6-5.4l9.4,3.6l5.9,0.8l8.5,3.1l0.8-0.3l-0.3-0.8l-9.3-5l0.5-3.4l13.2-5.9l14.2,0.5l5.5-3.7l14.2-1
		L580.6,767.1L580.6,767.1z"/>
	<path fill="#C6E4EA" d="M886.2,1103.4l0.7,1.5l-0.3,1.3l1,2.4h-1.6l-1.3-2.1l-2.6-0.3l2.1-3.1L886.2,1103.4L886.2,1103.4z"/>
	<path fill="#D3D50E" d="M690.4,1184.1v1.1l1.6,2l0.3,6l1,1.6l-0.8,3.4l0.3,2.3l1.6,3.6l-11.4,4.6l-2.9-1v-1.5l-1.6-3.3l1-4.2
		l1.8-3.7l-1.6-10.6l8.1,0.2l1.5-0.7L690.4,1184.1L690.4,1184.1z"/>
	<path fill="#C6E4EA" d="M930.6,1140.8l-1.5,2.8h-2l-1,1.3l-0.7,2.4l0.5,2.6h-2l-2.6,1.6l-1.3,2.8h-2.6l-1.6,1l-0.3,1.8l-1.5,0.8
		l-2.4-0.3l-3.9,1.5l-4.1-8.8l11.9-4.4l2.8-8.5l-1.8-3.4v-1.3l1.1-1.6l0.2-1.6l1.5-0.7v-3.4h1.1l1.6,2.6l2.4,1.8l5.4,1.3l2.8,3.7
		l1.3,0.7l-2,3.9L930.6,1140.8L930.6,1140.8z"/>
	<path fill="#C6E4EA" d="M870.4,1186.4l2.4,0.2l8.3-1.6l8.6-2.4v7.2l-4.4,5.5h-2.9l-13-4.7l-4.1-5.2l1.8-2.8L870.4,1186.4
		L870.4,1186.4z"/>
	<path fill="#C6E4EA" d="M775.4,1046l-1.8-2.1l1.6-1.3l0.5-1.3l3.3,2.6l-0.7,1.1L775.4,1046L775.4,1046z"/>
	<path fill="#C6E4EA" d="M850,1092.8l-8.3,2.6l-0.3,1l3.6,3.9l-1.5,1.8l-2.8,0.5l-2.8,2.9l-3.7-0.7l2-7l1-6.7l4.6,1.5l7.3-4.4
		L850,1092.8L850,1092.8z"/>
	<path fill="#C6E4EA" d="M747.5,1030l1.8,0.2l-1.3,1.5L747.5,1030L747.5,1030z M749.7,1030.2l1-0.7l2.8,0.7l0.7-0.7v-1l1.5-0.8
		l0.3-1.8l2.6-1.1l4.2,2.8l3.4,1l1.5-0.5l1.6,2.6l-0.8,1l-1.6-1H764l-3.4-0.8l-2.1,0.2l-1,0.8l-1-0.8l-1,0.3l-0.8,2.8l2.9,3.9
		l4.6,4.6l-2-1.5l-3.6-1.5l-2.8-2.9l0.2-1l-1.6-2l-0.5-2.1L749.7,1030.2L749.7,1030.2z"/>
	<path fill="#C6E4EA" d="M391.9,1153l-2,0.7l-1.5-0.8v-0.3L391.9,1153L391.9,1153z M392.7,1153l1.8,0.2l0,0L392.7,1153L392.7,1153z
		 M395.4,1153l1.3-0.8l0.2-1l-1.6-1.6v-1.3l-0.5-0.7l-1.5-0.5l5.2,0.8v2.9l-0.8,0.5l-0.2,1l0.8,1.1L395.4,1153z"/>
	<path fill="#D3D50E" d="M758.1,1022l1-2.6l-0.2-0.7h1l0.7-0.5l0.2-1.1l2.9,1.5l3.7-0.7l0.7-1.1l5.7-1.3l1.1-1.3l1-0.2l4.2,1.5
		l1.1-0.3l1.6,1l0.2,0.7l-2.3,1.1l-4.2,6.7l-2.9,0.8l-2.8-0.2l-4.4,2l-3.1-0.8l-4.1-2.8L758.1,1022L758.1,1022z"/>
	<path fill="#C6E4EA" d="M331,1171.1l-2.8-2l0.2-1.5l4.9-3.4l3.9,0.5l2.1-0.2l1.8-0.8l2.1,0.5l1.8-0.3l2.3,0.7l3.6,2.3l-3.9,1.5
		l-2-0.7l-1.5,2.1l-2.1,1.6l-1.6-0.3l-0.7,0.8l-1.6,0.2l-0.7,0.7v1.5l-0.8,1h-0.5l-0.5-0.8l-1.1-0.5l0.2-1.1l-0.8-1l-1.5-0.5
		L331,1171.1L331,1171.1z"/>
	<path fill="#C6E4EA" d="M422.9,1153.5l-0.5,0.5l-4.6,0.2l-0.2-1l3.3-0.2L422.9,1153.5L422.9,1153.5z"/>
	<path fill="#C6E4EA" d="M834.8,1095.6L834.8,1095.6L834.8,1095.6L834.8,1095.6L834.8,1095.6z M834.9,1095.3v-1l-0.5-0.3l0.5-1.8
		l0.3,0.2L834.9,1095.3z"/>
	<path fill="#C6E4EA" d="M660,1070l-1,0.8l-1.8-0.7l-1.5,0.3l0.5-2.9l-0.3-2.9l-2-1l-0.8-1.3l0.3-2.8l1.6-2l1.1-4.7v-2.3l-1-3.1
		l2.1-1.5l1.3,2.3l5-0.5l0.8,1.6l-1.6,1.5v3.6l-0.7,1l-0.2,1.8l-1.3,0.3l-0.5,1l1.5,2.6l-1,2.9l1.3,1.8l-1.8,2.4L660,1070L660,1070z
		"/>
	<path fill="#D3D50E" d="M453.5,1312l1.1,2.4l-0.3,5.7l0.5,0.7l4.2,0.8l1.8-0.8l2.3,1l0.7,1l0.8,5.5l2.1,0.7l1.6-0.7l0.8,0.5v2
		l-2,8.6l-3.4,3.1l-2.9,0.7l-7.6-1.6l3.6-5.9l-0.5-2.4l-4.6-2.1l-4.9-3.1l-3.4-0.7l-7-6.7l1.5-4.7l0.2-2.3l1.8-3.3l6.7-1.1h3.6
		l3.3,2L453.5,1312L453.5,1312z"/>
	<path fill="#80B725" d="M354.1,1194.2l0.5-2.4l-0.7-0.5v-0.8l0.7-0.2l1.5,2.3h2.1l1.3,0.8l2.3-0.3l4.1-1.8l1.5-1.1l5.7,1.5l2.3,2
		l0.7,2.8l-0.3,0.5l-0.8-0.2l-0.8,0.5l-0.3,1l-1.1-2.1l0.8-0.8l-0.3-1.1l-0.8-0.2l-0.8-1.3l-2.4-1.3l-1.8,0.3l-1.3,1.6l-2.6,1.3
		l-0.3,1.6l1.5,1.6l-1,0.8l-1.1,0.2l-0.5-2h-2.1l-1.1-1.6L354.1,1194.2L354.1,1194.2z"/>
	<path fill="#C6E4EA" d="M1321.9,1251.3l4.1,4.2l-0.2,0.5l-0.5,0.2l-1.5-1.3L1321.9,1251.3L1321.9,1251.3z M1310.2,1241.9l0.8,0.5
		l0.5,0.5l-0.8-0.5L1310.2,1241.9z M1313,1244.5l1,0.8l0.2,1.8l-0.5-1.5L1313,1244.5L1313,1244.5z M1302.6,1250.7l0.8,1.3l2.3-0.3
		l3.7-2.9v-2.3l1.8,0.3v1.8l-1.1,2.1l-1.8,0.3l-1,1.3l-4.1,1.8h-2l-5-2h5.5L1302.6,1250.7L1302.6,1250.7z M1290.2,1259l3.7,2.9
		l2.6,4.2l2.1,0.2l-0.2,1.1l0.5,0.7l1.8,0.3l0.2,1.1l3.6,1.6l-2,0.2l-1.1-1l-7.5-1.1l-5.2-4.7l-2.4-3.7l-5.4-1.8l-3.9,1.1l-2.6,1.5
		l-0.3,0.7l0.5,2.4l-2.4,1.1l-2.3-0.7l-3.6-0.2l-0.2-25.1l13.7,4.7l4.9,3.9l1,2.6l6.5,2.4l0.5,1.1l-2.9,0.3l-0.5,0.8L1290.2,1259
		L1290.2,1259z"/>
	<path fill="#80B725" d="M404.7,1245.5l-2.1-0.2l-1,0.7l-3.1,0.8l-4.9,2.9l-0.7,2.3l-1,1.3l0.2,2.3l-2,1l-0.3,2l-1,1.3l1.6,3.7
		l2.1,2.3l-0.7,1.3l0.5,1l2.4,0.2l2,2.3l3.6,0.2l2.6-1.8l-0.2,4.9l0.5,0.7l1.8,0.5l2.1-0.5l3.1,5.9l-0.8,1.5l-0.3,6.2l-1.5,2.6
		l0.7,1.3l-0.8,1.8l1.6,3.3l-3.4,6.2l-1.6,0.8l-3.6-2.1l-0.7-2l-8.1-4.2l-7.3-4.6l-2.9-2.4l-1.5-2.9l0.5-1.6l-3.4-5.4l-7.8-15.8
		l-1.6-2l-1.5-3.1l-5.5-4.1l1-2l-1.8-3.6l1.1-2.4l2.3-2l-1,1.6l0.2,1.5l0.8,0.7h2.8l1.6,2l0.8,0.2l2.3-1.6l1-2.9l2.3-3.3l4.9-1.6
		l4.4-4.2l1.5-2.8l-0.2-3.1l2.3,1.6l1.5,2l1.8,1l2.8,4.4l3.1,0.5l2.3-1l1.6,0.7l2.3-0.3l2.4,1.5l-2.3,3.6l0.5,1h1L404.7,1245.5
		L404.7,1245.5z"/>
	<path fill="#D3D50E" d="M1007.1,1078l-2.9,2.9l-4.2,0.7l-6-1.1l-2.6,2.1l-0.2,0.7l2.9,7.2l2.8,2l-2.8,2.1l-0.2,3.4l-3.7,4.2
		l-2.6,4.6l-4.1,4.4l-4.9-0.2l-4.6,4.6v1l2.4,1.8l0.5,3.1l2.3,2.4l0.7,2.8h-8.1l-2.9,2.8l-2.3-0.8l-1.3-3.1l-3.7-3.4l-18.9,1.5
		l1.1-3.7l5.5-2.1l0.3-0.7l-0.3-2l-2-1l-0.5-4.1l-3.7-1.8l-2.1-3.1l4.6,1.5l4.2-0.7l2.3,0.5l1.3-1l2.8,0.3l5.2-1.8l0.5-0.7l0.2-3.6
		l2-2.1h2.8l1-1.3l2.6-0.5l2,0.3l1.6-1.3v-3.1l1.5-2.4l2.4-1.1l0.3-1l-1.1-2l3.3-0.2l1.1-1.6v-2l1.8-1.8l-0.3-2.9l-0.8-1.6l2-1.6
		l8.8-1.5l4.2-1.3l2.6,2l1.6,3.7L1007.1,1078L1007.1,1078z"/>
	<path fill="#80B725" d="M1205.4,1194.4l0.7,4.9l-0.7,2l-0.8-2.4l-1.1-0.2l-2,2.1l1.1,3.4l-0.7,1.1l-4.1-2l-1-2.4l1.1-1.6l-0.2-0.8
		l-2.6-2l-1,0.2l-1.1,1h-2l-2.6,1.6l1.3-2.9l4.2-2.3l1.1,1.3l0.8,0.2l3.1-1.1l1-1.8l2.4-0.2l0.7-0.7l-0.2-2l2,1.1L1205.4,1194.4
		L1205.4,1194.4z M1199.9,1182.6v1.3l0.2,0.5l-1.3-0.7l-0.3-1.1H1199.9z M1200.7,1181.8l-0.2-1.8l-1.6-2.1h2.3l0.8,1.1l0.8,3.3
		L1200.7,1181.8L1200.7,1181.8z M1200,1184.4l0.7,1.6l-0.5,0.2L1200,1184.4L1200,1184.4z M1185.2,1153l2.4,1.1l1.1-0.5l-0.5,2
		l1.3,2.8l-1,2.9l-2.4,1.6l-0.7,3.6l1,3.3l2.6,1l2-0.5l4.4,2l-0.3,1.8l1.3,1.3l-0.2,0.7l-2.3-1.5l-1.5-2.1h-1.1l-0.7,1l-2.6-2.1
		l-3.6,0.7l-1.5-0.7l0.2-1l1.1-0.8v-1l-1.3-1l-1.1,0.7l-1.1-1.5l-0.7-4.1l0.5,0.5l1.1-0.5l0.5-6.5l1.1-3.3h1.8V1153z M1195.6,1186.4
		l-1.5,1.5l-2,3.1l-1.6-2l1.5-1.8l0.5-2.4l0.8-0.2l-0.5,1.8l0.3,0.8l0.8-0.2l1.6-2.1V1186.4L1195.6,1186.4z M1188.8,1181.3l1.3,0.7
		h2v0.8l-3.3,2.3V1181.3L1188.8,1181.3z M1185.6,1175.3l-0.7,2.1l-2.3-3.3l2,0.2L1185.6,1175.3L1185.6,1175.3z M1172.1,1191.1
		l1.8-1.6l0,0l-0.5,0.7L1172.1,1191.1L1172.1,1191.1z M1176.4,1186.5L1176.4,1186.5l1.3-2.6l0.3,1.3L1176.4,1186.5L1176.4,1186.5z"
		/>
	<path fill="#50A631" d="M768.4,1008.2l-1.8-2.4l-3.1-0.5l-0.8-1.6l-2.8-0.7l-1,1.1l-1.1-0.7l0.2-1l-0.5-0.8l-2.9-0.5l-1.6-1.5
		l-1.5-3.1l0.3-2l-1-2.9l-1.3-1.8l1-1.6l-0.8-2.3l2.3-1.3l11.2-4.4l3.4,0.8l0.8,1.5l8.9,0.7l7.3-0.2l1.8,0.5l0.8,1.3l0.2,2.6l1.1,2
		v1.6l-2.1,1l-0.3,0.8l1.1,2.4l0.2,2.6l2,4.6l-0.3,1l-2,0.7l-3.7,4.4l0.3,1.5l-3.3-1.6l-3.3,0.7l-2.3-0.5l-2,1l-1.8-1.6
		L768.4,1008.2L768.4,1008.2z"/>
	<path fill="#C6E4EA" d="M827.8,1079h0.5l0.5-0.2l-0.5,0.5L827.8,1079L827.8,1079z"/>
	<path fill="#C6E4EA" d="M789.5,1274.9l0.7,0.5l4.1,0.2l1.6,2l3.3,0.7l2.3-1l1.1,2l2.9,0.5l2.9,3.7l3.6,0.3l0.7-0.7l-0.3-4.4l-1-0.5
		l-0.8,0.5l-3.3-2l1.1-8.6l-0.8-2l1-2.1l6-1l0.5,1l2,1l1.5-0.3l3.6,1.1l2.1,1.1l1.8,1.6l1,3.1l-1.5,4.4l0.7,3.4l-1.1,1.5l-1.3,3.9
		l1,1.1l-10.7,2.9l-0.5,0.7l0.3,2.4l-2.8,0.5l-2.3,1.6l-0.7,1.5l-1.5,0.5l-5.7,6l-6.8-0.8l-2.4-1.6l-2.9-0.2l-2.9,0.8l-4.9-5.5
		l0.2-12.4h7.8l0.7-0.8l-0.3-1.3l0.5-1.3l-0.7-2.3L789.5,1274.9L789.5,1274.9z"/>
	<path fill="#C6E4EA" d="M631.7,1139.9l0.3-1.3l1.8-2.1l1.3-5.7l5.5-4.6l1.1-2.9l0.2,7.8l-3.3,0.3l-1.5,2.6l0.7,5.9H631.7
		L631.7,1139.9z M644.1,1120l1.1-2.9l2.9-0.3l3.4,0.5l1.6-1l2.1-0.2v4.1L644.1,1120L644.1,1120z"/>
	<path fill="#C6E4EA" d="M796.5,952.2l4.2,1l4.2,0.2l-2.6,3.1l1,5.7l-1.3,1.5h-2.9l-5.2-2.9l-2.9,0.8l0.3-2.4l-1-0.7l-1.1,0.5
		l-2.1-1.6l-0.3-2.6l4.6-1.5L796.5,952.2L796.5,952.2z"/>
	<path fill="#C6E4EA" d="M806.8,1098.7l2.4,0.7l4.9-2.6l3.3-0.3l2.4,0.5l1,2h1.1l0.7-1l2.9,1l3.3,0.3l1.6-0.8l2.3,6.7l-3.3,7.3
		l-2.8-2.9l-2.9-6.3l-1-0.2l-0.7,1.1l1.6,4.7l5.5,11.4l2.9,4.9l3.3,4.2l-0.7,0.8l0.3,3.3l4.4,3.6h-46.2V1106l-1.1-3.6l1-2.6
		l-0.5-2.1l1.1-1.6h5L806.8,1098.7L806.8,1098.7z"/>
	<path fill="#D3D50E" d="M766.3,1372.4l-0.2-3.3l-1.1-2.6l1.1-1.1l-0.2-3.7l-7.5-13.3l1.3-1.5l1,0.8l1.1,2.1l4.6,1.1l2.4-0.5
		l3.6-2.3l0.3-15.5l2.1,3.7l-0.3,2.4l1,2l0.7,0.3l2.9-0.5l4.2-3.4l1.1-2.1l1.6-0.8l3.6,1.6l3.3,0.2l2.9-1.1l1.3-3.4l2.3-0.5l2.6-4.6
		l3.4-3.1l5.5-3.1l3.3,0.8l1.6-0.5l1.6,0.3l2.9,8.6l-0.7,5.2l-1.3-0.3l-1.6,0.8l-1.5,2.8v2l3.3,2.9l2.4-0.5l1.1-2h1.8l-1.3,6l-1,1.8
		l-3.6,2.9l-5.2,7.8l-4.6,4.6l-5.9,4.7l-4.1,1.6l-2,0.2l-0.8,1.1l-2-0.5l-2.3,0.8l-4.2-0.8l-2.4,1l-2-0.2l-4.1,1.8l-3.4,0.7
		l-2.6,1.8h-1.3l-1.5-1.5l-1.5-0.2l-1.6-1.8H766.3L766.3,1372.4z M805.8,1357.7l1-1.5l2.4-1l2-3.6l-0.2-0.8l-3.3-2.8l-2.8,1
		l-2.3,1.8l-2.1,2.8v0.8l3.1,3.4L805.8,1357.7L805.8,1357.7z"/>
	<path fill="#50A631" d="M383.4,1229.7l0.5,2.6l-1.1,2.4l-4.2,4.1l-5,1.8l-2.4,3.6l-0.8,2.8l-1.6,1.1l-1.6-1.8l-2.9-0.3l1.1-2
		l-0.3-1.5l2-3.4l-0.8-1.8l-1.1-0.2l-1.1,1.5l-1.5-1l0.7-1.1l-0.7-3.3l1.3-0.8l0.8-2.4l1.5-2.6l-0.2-1.6l4.2-2.1l4.6,2.1l1.3,1.6
		l3.4,0.7l1.3-0.5L383.4,1229.7L383.4,1229.7z"/>
	<path fill="#80B725" d="M771.5,1044.7h1.1l1.5,1.5l-0.3,3.3l0.7,2.1l1.6,1.3l-2.9,4.6l-0.3-1l-2-1.5l-0.3-2l0.8-4.6l-0.8-2.4
		L771.5,1044.7L771.5,1044.7z"/>
	<path fill="#C6E4EA" d="M757.1,1253.3l2.1,5.2l3.1,3.9l4.1-0.8l2,0.5l0.7-0.3l1.5-3.1l2.1-0.2l0.7-0.7h0.8l-0.2,0.7l0.7,0.8h4.4v2
		l0.8,1.6l-0.5,2.4l0.3,2.4l1.3,1.6l-0.2,4.7l0.8,0.7l6.5-0.7l-0.2,2.9l0.7,1.6l-0.3,2.3h-7.6l-0.7,0.7l-0.2,13.2l4.7,5.7l-6.2,1.5
		l-9.6-0.7l-3.1-2l-17.1,0.3l-2.1-1.6l-2.9-0.3l-3.9,1.3l-0.2-1.8l0.5-3.6l1.6-5.7l2.3-5.2l3.6-4.6l0.5-3.4l-0.2-2.4l-1.3-1.8
		l-2-4.7l1.5-2.6l-2.1-6.7l-2-2.4l4.1-1L757.1,1253.3L757.1,1253.3z M741.2,1251.5l-0.8-2l2-1.8l0.5,0.5l-1.6,1.6V1251.5
		L741.2,1251.5z"/>
	<path fill="#C6E4EA" d="M905.7,1046.5l0.8-2.1l-0.8-1.6l-4.9-2l-1.8-4.2l-2.3-1.5v-0.5l3.3,0.3l0.8-0.7l0.2-3.3l2.9-0.7l3.4,0.7
		l0.8-0.5l0.8-4.9l-0.8-3.4l-0.7-0.5l-3.9,0.2l-3.9-1.1l-4.7,2.3l-3.6,1l-1.3-0.5l0.2-2.6l-2.6-3.4l-3.3-0.2l-2.9-2.9l2.1-3.6
		l-1-1.5l2.6-4.7l3.6,2.6l1-0.5l0.5-3.6l8-5.5l6-0.2l13.7,5.9l4.7-2.3l6.2-0.2l5,2.8l0.8-0.2l1-1.3l5.4,0.2l0.7-0.3l1-2.6l-0.3-0.8
		l-5.7-3.3l3.1-2.1l-0.2-1.6l3.3-1.1l0.3-1l-2.6-3.4l1.3-1.3l15-2l2.1-1.5l10.1-2.1l3.7-2.3l6.7,1.1l1.1,5.4l0.8,0.5l4.1-1.3
		l4.6,1.6l-0.3,2.6l0.7,0.7l4.1-0.3l8-4.1v0.5l5.2,4.2l9.1,13.8h1.1l1.8-2.4l5.2,2.8l6.2-1.3l2,0.8l1.8,2.9l2.9,1.3l1.6,2.1l5.4-0.3
		l1.6,2.4l-2.6,2.9l-3.1,0.5l-0.5,0.7l-0.2,4.9l-1.8,2l-7.8-1.6l-0.8,0.5l-2.9,8.9l-1.8,1l-8,2l-0.5,0.8l3.4,8.1l-2.3,1l-0.3,0.7
		l0.2,1.8l-1.5-0.3l-2.3-1.8l-12.9-0.7l-1.5,0.5l-6-2l-2.3,1l-0.8,2.8l-6-1.5l-2.9,0.7l-1.3,2.3l-7.6,4.2l-1.8,3.4h-0.7l-1.5-2.3
		l-4.7-0.2l-0.8-3.4l-0.7-0.5h-1.3v-4.9l-4.9-3.6l-11.9,1l-3.7-4.4l-10.9-6l-10.6,2.9l-0.5,0.7l0.2,17.7l-1.1,0.2l-2.6-3.6l-2.9-1.6
		l-5,1L905.7,1046.5L905.7,1046.5z"/>
	<path fill="#C6E4EA" d="M845.8,1168.3l1.8,1.3l2.6-0.8l1.1,0.8h2.6l3.3,1.5l2.8,2.8l2.6,3.4l-2.4,3.3l0.3,2.8l0.7,0.7h3.3l-0.7,1.6
		l4.7,5.9l13.5,5h2.1l-10.3,11.1l-5,0.2l-3.9,2.9h-2.4l-1.5,1.3h-2.3l-2.1-1.3l-3.7,1.6l-1.3,1.6l-5.4-0.7l-5-3.4l-2.9-0.2l-1-1v-2
		l-0.5-0.7l-2-0.7l-2.3-4.2l-2-1.1l-0.8-1.6l-2.1-2l-2-0.3l0.7-1.1l2.4-0.5l0.7-1.6v-3.6l1.1-3.9l1.6-1l2.3-5l2.6-2.3l1.6-4.1
		l0.5-3.1l4.1,0.8l0.7-0.3L845.8,1168.3L845.8,1168.3z"/>
	<path fill="#C6E4EA" d="M818,1320.1l-1.8-0.3l-1.5,0.5l-3.4-0.7l-2.4-1.8l-3.1-0.7l-1-2.3v-1.3l-0.5-0.7l-1.6-0.3l-4.4-4.4
		l-3.1-5.4l6.2,0.8l6-6.2l1.8-0.7l0.5-1.3l2-1.5l2.3-0.5l0.8,1.5h3.3l2.8,2l1.8,0.3l1.6,1.1v4.9l-1,6.2l0.7,1.5l-0.3,2l-0.7,0.5
		l-1,2.9L818,1320.1L818,1320.1z"/>
	<path fill="#C6E4EA" d="M683.1,1040.4l1.8,2l7.5,2.3l1.8-1l4.2,2.1l4.4-0.5l0.2,1.8l-3.4,2.9l-5,1l-0.5,0.5l-0.3,1.5l-2.4,2.8
		l-1.6,3.9l1.3,2.8l-2.1,2.1l-0.8,2.8l-3.1,1l-2.8,3.4h-8.8l-2.9,1.8l-1.5,1.6l-1.5-0.3l-1.3-1.3l-1.1-2.6l-3.9-1l-0.2-0.8l2-2.9
		l-1.3-1.8l1-2.8l-1.3-2.6l1.5-0.8l0.2-2l0.7-1v-3.4l1.6-1.1l0.2-0.8l-1.6-2.8l-2.4-0.2l-1,0.7h-1.8l-0.8-2l-0.8-0.3l-2.1,1.1v-2.4
		l-1.3-1.6l4.9-3.1l4.9,0.8h5.4l4.2,0.8L683.1,1040.4L683.1,1040.4z"/>
	<path fill="#C6E4EA" d="M853,1165.7l5.5,3.9l5.7,6.2l1.3,0.8h-1.6l-5.7-6.3l-3.7-1.8l-2.8-0.2l-1.5-0.8l-2.1,0.8l-2.1-1.6l-1,0.3
		l-1.1,2.6l-3.7-0.7l-0.3-1.1l2.1-8.6l1-1l3.3-0.8l1.5-1.6l2,3.9l1.1,3.7L853,1165.7L853,1165.7z"/>
	<path fill="#C6E4EA" d="M769.2,1045.8l-2-1.6l0.8-2.9l1.5-1.1l3.7,2.4l-0.8,1l-1.3-0.5L769.2,1045.8L769.2,1045.8z"/>
	<path fill="#C6E4EA" d="M800.9,1015.2l2.3-0.5l2.8,1.5l1.8,0.2l1.3,1l-0.2,1.3l1.6,1.5l1.8,4.1l-2-0.2l-1.1-0.7l-0.8,0.3l-0.2,1.5
		l-1.8,3.1l-0.5-1.5l0.3-2.1l-0.3-2.6L800.9,1015.2L800.9,1015.2z"/>
	<path fill="#C6E4EA" d="M894.5,1284.3l0.7,4.9l1,2l-0.3,1.6l-1-1.3h-1.1l-0.8,1.3l0.7,3.4l-0.3,1.5l-1.1,1.3l-0.3,3.4l-7.6,24.7
		l-1.8,4.7l-6.3,2.6l-5-2.4l-1-2l-0.3-3.9l-1.5-3.3l-0.3-2.9l0.7-2.6l2-1.3v-1.3l2-3.3l0.3-2.8l-1.8-4.9l-0.3-3.6l1.3-2.1l0.5-2.4
		l7.5-2l5.5-4.9l1.3-2.3l-0.2-1.1h1.3l2.3-2.9l0.2-2.6l0.8-1l2,2.8L894.5,1284.3L894.5,1284.3z"/>
	<path fill="#C6E4EA" d="M622.6,1139.4l0.2-1l1.5-1.1l1.3-2.3l-0.2-1.6l1.3-2.8l2.1-2.6l1.6-1l1.1-2.6l0.2-2.4l1.3-2.4l2.8-1.8
		l2.4-4.4l2-1.6l3.9-0.7l3.1-2.9l2.1-1.3l3.4-3.7l-0.8-5.9l2-6l2.4-2.9l7.3-4.2l3.9-7.3h2.3l2.8,2l3.7-0.3l5.7,1l1.3,2.4l0.3,2.8
		l1.5,4.9l1,1l-0.5,1l-4.9,0.7l-2.1,1.8l-2.1,0.3l-0.5,0.7l-0.2,2.9l-4.4,1.6l-1.8,2.3l-7.3,1.8l-6.5,3.3l-0.8,7.5l-1.8,0.2l-1.5,1
		l-3.3-0.7l-3.9,0.8l-1.1,3.1l-1.5,0.7l-1.8,5.4l-5.7,4.9l-1.3,5.9l-1.6,1.8l-0.5,1.3L622.6,1139.4L622.6,1139.4z"/>
	<path fill="#C6E4EA" d="M980.2,1046.1l-2.6,2.4l0.2,1l2.9,1.8l3.3-1l3.6,2l-4.1,2.8l-4.2-0.3l-0.3-0.7l0.8-2l-0.8-0.8l-5.4,1.1
		l-3.4,5.7l-3.1-0.2l-1.6,2.4l0.3,0.8l2.6,1l0.8,2.9l-2,4.1l-4.4-0.8v-2.3l-0.5-0.7l-5.4-2l-4.2-2.3l-7.2-5.4l-2.1-5l-1.8-1
		l-4.2,0.2l-1.1-0.7l-0.8-4.1l-5.5-2.6h-0.7l-3.4,2.8l-3.4,1.6l-0.3,0.8l0.5,1.6h-3.1l-0.2-17.1l9.8-2.8l10.1,5.7l4.4,4.6l11.4-1.1
		l4.4,3.3l-0.3,4.6l0.7,0.7h1.5l0.7,3.4l0.7,0.5l4.7,0.2l1.6,2.3l2.1-0.3l1.6-3.3L980.2,1046.1L980.2,1046.1z"/>
	<path fill="#C6E4EA" d="M1102.7,1139.7l-3.3,2.6l-1,1.6l-2.3,1l-2.3,1.8l-3.3,0.7l-1.8,4.4l-1.5,0.7l-0.3,1l2,3.7l4.1,5.5l-1.3,3.1
		l-1.1,0.7l-0.3,0.8l1.1,2.3l2.6,3.1l0.3,4.2l1.5,3.4l-3.1,5.9l1.1-3.6l-1.3-2.8l0.3-4.2l-1.6-2.4l-2-10.1l-1.8-3.7l-1-0.2l-7,4.9
		l-3.9-1l1.3-4.6l-0.8-4.2l-3.1-4.9l0.3-1.3l-0.5-0.8l-2.1-0.5l-2.6-3.1l-0.2-2.1l1.3-0.3v-2.6l1.6-0.8l0.3-0.7l-0.3-1.6l0.8-1.6
		l0.2-3.6l2.4,0.7l0.8-0.3l1.8-3.6l0.3-2.3l2.1-3.6v-2.4l4.7-2.8l2.6,0.7l0.8-0.7l-0.3-2.3l1-0.7l0.2-1.6l1.3-0.2l1.1,2.3l1.8,1.1
		v6.3l-3.9,3.9l-0.5,5l0.8,0.7l3.7-0.7l0.8,3.4l2.4,1.1l-1,2.9l0.3,0.8l4.9,2.4l2.6-1L1102.7,1139.7L1102.7,1139.7z"/>
	<path fill="#C6E4EA" d="M645,1178.6l-0.3-3.9l-1.6-1.5l-0.7-2.1l-0.2-2.1l1.3-1l0.7-2l3.9,1l2.1-0.8l1.5,0.2l1.1-1h15.9l0.7-0.5
		l1-2.9l-0.7-1l-3.9-35.6h5.4l27.2,18.5l1.1,2.1l4.1,1.8v2.3l0.7,0.7l3.7-0.3v8.8l-2.1,2.6l-0.5,2.4l-8.6,1l-1.8,1.5l-4.7,0.2
		l-1.5-0.8l-2.3,0.7l-3.9,1.8l-1,1.5l-3.1,1.8l-0.7,1.1l-1.3,0.7l-2.3-0.3l-1.3,1.3l-0.5,2.6l-3.1,3.3l-0.2,1.6l-1.1,2l0.2,2
		l-1.6,0.7l-0.3-1l-0.8-0.3l-2.3,0.7l-0.5,0.8l-4.4-0.5l-0.7-0.7v-1.5l-1-0.7l0.8-1v-0.8l-3.4-3.9h-1.3l-3.3,2l-1.3-0.2l-1.3-1.1
		L645,1178.6L645,1178.6z"/>
	<path fill="#C6E4EA" d="M1107.1,1003.5l6.2,2.8l9.3-1.6l3.9,0.7l3.7,2.4l2.9,2.9h3.7l5,0.8l4.1-1.3l5.5-1l5.7-3.6l2,0.5l2.4,1.8
		l3.7-0.3l-4.4,8.1l1,2.8l0.8,0.3l2.1-0.7l3.9,0.8l3.3-1.8l2.9,1.5l3.4,3.3l-0.2,0.8l-2.8-0.5l-6.2,0.8l-3.1,1.6l-2.9,3.3l-6,2
		l-4.1,2.6l-6.2-1.5l-0.7,0.3l-2.1,3.3l1.6,3.6l-2.4,1.5l-2.8,2.6l-4.6,1.6l-6.2,0.2l-6.5,1.8l-4.6,2.4l-2-1.5h-4.7l-5.9-2.9
		l-4.2-0.8l-5.5,0.7l-8.3-1.1l-4.2,0.2l-2.1-2.6l-2.3-4.9l-2.4-0.5l-5-3.1l-10.1-1.5l-1.1-1.8l1.5-6.2l-3.1-4.4l-5.7-2l-3.3-2.6
		l-0.8-2.8l3.7-0.8l7.8-4.6l5.9-2.4l3.6,1.6h4.1l2.9,2.4l4.1,0.2l6.5,1.1l3.9-3.7l0.2-0.8l-1.5-2.8l3.6-4.9l4.2,2.1l8,2
		L1107.1,1003.5L1107.1,1003.5z"/>
	<path fill="#C6E4EA" d="M775.5,1048.2l0.8-1.1l5.9-1.1l1.6,1.3l0.2,2.4l-1,0.8l-2-0.2l-1.8,1.1l-2.3,0.3l-1.3-1l-0.5-1.6
		L775.5,1048.2L775.5,1048.2z"/>
	<path fill="#F7E205" d="M828.7,1268.4l1.5,3.3l0.2,4.7l-1.1,2.6l1.1,2.9l0.2,2.1l0.8,1l0.2,1.8l0.7,0.8l1.3-0.3l0.8,1l1.1-0.3
		l0.5,1l0.3,4.7l-1.6,1l-0.8,2l-1.8-1.8l-0.3-2.6l0.8-2.1l-0.5-2.1l-1.6-1l-1.3,0.2l-3.9-2.6l1-3.3l1.3-2l-0.8-3.3l1.5-4.7l-1.5-4.1
		l1.6,0.3L828.7,1268.4L828.7,1268.4z"/>
	<path fill="#C6E4EA" d="M669,1124.1h-4.2l-0.7,0.7l3.9,36.8l0.7,0.7l-0.7,2H652l-1,0.8l-1.3,0.2l-2.1,0.7l-2.6-1.1h-1.6l-0.7,0.5
		l-0.7,2.3l-0.7,0.3l-4.7-5.5l-4.9-2.4h-2.6l-2.1,0.8l-1.8-0.3l-1,0.7l-0.2-0.8l1.1-2.1l0.5-3.9l-1-6.3l0.3-2l-1.1-2.4l-1.8-1.6
		l0.3-0.7h15.6l0.7-0.8l-0.8-6l0.8-1.6l3.4-0.3l0.7-0.7l-0.2-10.4l12.7,0.2l0.7-0.7v-5.4L669,1124.1L669,1124.1z"/>
	<path fill="#C6E4EA" d="M817.3,1214.7l1.1-0.8l2.8,0.8l3.3-1h2.8l2.4-1.6l1.5,2.1l2.1,6.5l-4.2,6.5l-2.4-0.7l-4.1,1.5l-2.3,2.6v1.3
		h-3.9l-3.7,1.6l-0.3-2.6l1-1.6l0.2-3.1l2.3-3.7l2.9-2.6l-0.3-1.1l-1.1-0.3L817.3,1214.7L817.3,1214.7z"/>
	<path fill="#F7E205" d="M1173.5,1210l-2.3,1.1l-3.4-0.7h-4.7l-0.7,0.5l-1.3,4.6l-1.6,1.6l-2,5.4l-2.8,0.8l-4.1-1.1l-2.3,0.5
		l-2.1,1.8l-2.6-0.2l-2.3,0.7l-2.3-2l-0.3-1.1l2.1,0.8l3.1-0.8l1.3-3.6l6.5-1.6l4.6-5.2l1.3,1.5h1l0.7-1l1.6,0.2l0.7-0.7l0.3-4.4
		l2.9-2.6l2-3.1h1l1.8,1.6l0.5,2.1l5.5,2.3l-0.2,0.5l-2.3,0.2l-0.5,0.8L1173.5,1210L1173.5,1210z M1102.4,1203.8l0.3,1.8l0.8,0.5
		l2.8-0.5l1.5-1.5l2.6,2.4l1.6,2.6l-0.2,4.6l0.7,3.7l1.6,1.5l1.5,3.9l-2.1,0.2l-8.3-6l-0.5-2.1l-2.3-2.6l-0.5-3.3l-1.5-2.3l0.3-2.8
		l-0.8-1.6L1102.4,1203.8L1102.4,1203.8z"/>
	<path fill="#50A631" d="M222.8,1091.2l0.3,0.8l15.6,5.4h11.4l0.7-0.7v-1.1h6.2l5.9,4.7l2.3,4.6l2.4,1.6l3.4,1.3l0.8-0.2l2.4-3.3
		h2.8l2.6,1.6l3.4,5.5l2.4,2.6l2.1,5l3.6,1.6l3.7,1l-2,6l-0.7,8.1l2.9,8l2.6,3.1l1,2.4l2,2.3l4.2,1.1l2.3,1.8l12.2-3.1l3.1-2.1
		l1.8-7l6.7-2l5.9-0.2l0.5,0.5l-0.2,1.5l-2.1,2.4l-1.1,2.8l0.7,1.1l-1.1,3.7l-0.8-0.5l-1.6,0.2l-1.6,2.3l-0.8-0.2l-0.8,0.8h-7
		l-0.7,0.7v1.8l-1.8,0.5l0.2,0.7l2.9,2.3l1,1.5l-5.2,0.3l-2,3.4l0.3,1.1l-0.3,0.7l-3.6-3.6l-2.3-1.5l-3.6-1.1l-2.4,0.3l-5,2
		l-17.2-6.3l-4.7-3.3l-6.2-1.5l-1.8-2l-4.2-2.3l-2-2.4l-0.7-1.3l1.1-1l-0.3-0.8l0.8-1.3v-1.5l-3.3-6.2l-3.6-4.2l-4.1-3.4l-2-2.6
		l-3.6-2l-0.5-0.7l0.5-2.4l-0.3-0.8l-2-1l-2.3-2l-1-2.9l-2.4-0.8l-3.9-4.2l-0.3-1.5l-2.1-3.3l-1.3-3.3l-0.3-2.1l-2.9-1.8l-1.6,0.2
		l-2.1-1.1l-1,0.3l-0.7,1.8l1.1,6.2l5.7,6.3l0.5,1.3l0.8,0.5l0.7,2.3l2.1,2.8l2.6,2.3l1.3,3.9l2.3,3.9l0.2,2.1l0.7,0.7l1.6,0.2
		l2.8,3.7l-1.5,1.3l-1.1-2.4l-2.8-2.4l-4.7-3.1l0.2-2.9l-0.8-2.8l-4.7-3.3l-1,0.2l-3.1-1.8l-1.5-1.5l1.1-0.2l1.5-1.6l0.2-2.9
		l-3.1-3.1l-2.4-1.3l-6.2-12.4L222.8,1091.2L222.8,1091.2z"/>
	<path fill="#C6E4EA" d="M1371.4,1290.4l0.3,1.8h-0.7l-0.3-2.4L1371.4,1290.4L1371.4,1290.4z"/>
	<path fill="#C6E4EA" d="M729.5,1046l-1,2.9l-1-0.5l-0.8-2.8l0.7-1.5l1.6-1.1L729.5,1046L729.5,1046z M705.2,1004.5l2.9,2.6l2.4-0.2
		l3.4,2.3l2.3,0.5l2,1.3l4.9,0.8l-1.6,3.1l-0.5,3.4l-0.7,0.5l-1.6-0.3l-0.8,0.7l0.2,1l-2.9,3.1v2.3l0.8,0.7l1.5-0.7l1,1.6v1.6l1,1.5
		l-1.3,1.8l1,3.9l2.1,1l-0.3,1.3l-3.3,2.4l-7.8-1.3l-6.2,1.6l-0.8,3.1l-4.1,0.5l-4.4-2.1l-2,1l-7-2.1l-1.1-1.5l2-2.9l0.7-10.6
		l-4.2-5.4l-3.1-2.8l-6-2l-0.3-2.8l4.6-1l6.7,1.3l0.8-0.8l-1-4.6l3.1,1.5l9.4-4.1l1.5-4.4l2.6-0.8l0.3,1.3l2.3,0.5L705.2,1004.5
		L705.2,1004.5z M476.5,1218.1l-1.3,1.3l-1.3,0.2l-0.8-1.1l-1-0.2l-1.5,1l-0.8-0.3l1.8-4.9l-1.6-2.9l-0.3-2.4l1.8-2.9l3.7,1.3
		l4.1,3.3l0.5,1.1L476.5,1218.1L476.5,1218.1z"/>
	<path fill="#C6E4EA" d="M806.9,889.4l-0.3,5.7l5.7,4.2l-3.4,4.7v0.7l4.6,7.5l-2.6,5.4l3.6,5.2l-1.5,3.9l0.2,0.8l5.5,4.1l-1.3,2.6
		l-12.2,11.4l-7.3,0.5l-7.2,2.3l-6.2,1.1l-2.3-3.3l-3.6-1.8l0.8-6l-2-5.4l1.8-3.4l3.6-3.9l9.3-7l2.6-1.3l0.3-0.7l-0.8-3.3l-5.5-3.1
		l-1.3-2.3l-0.3-10.9l-11.1-7.8l1.3-1l4.1,3.4l5.7-0.2l4.9,1.6l4.1-3.4l2-5l5.7-2.3l4.6,2.4L806.9,889.4L806.9,889.4z"/>
	<path fill="#C6E4EA" d="M1424.3,1296.1l-4.6,1.6l-0.2-0.3l4.9-2L1424.3,1296.1L1424.3,1296.1z M1417.9,1300.8l0.7,0.7l-0.5,1.5
		l-2,0.5l-1.6-0.3l-0.2-1.1l1-1l1.5,0.5L1417.9,1300.8L1417.9,1300.8z"/>
	<path fill="#C6E4EA" d="M452.5,1458l2.3,1.8l-0.8,1.1l-4.9,1.5l-1.6-1.6h-0.8l-2.9,2.1l-1.1-1.5l4.1-2.6l3.1,1.3L452.5,1458
		L452.5,1458z"/>
	<path fill="#C6E4EA" d="M335.4,1176.3l1.3-0.3l1.6-1.6v-1.5h1.1l1-0.8l1.6,0.3l2.4-2.1l1-1.6l2,0.5l3.9-1.5l0.2,2.1l-1.3,3.1
		l0.2,4.4l-0.7,0.7l-0.2,2.9l-0.8,1.3l0.3,1.8l-2.8-1.5l-1.1,0.5l-2.4-1l-0.8,0.3L335.4,1176.3L335.4,1176.3z"/>
	<path fill="#C6E4EA" d="M706.4,998.5l1-0.8l3.4-7.8l5.2-2.1l2.8,0.2l0.5,1.3l-1,4.7l-0.8,1.6h-2.1l-0.7,0.8l0.5,4.4l-3.6-2.9
		l-4.2,1L706.4,998.5L706.4,998.5z"/>
	<path fill="#C6E4EA" d="M805.8,874.8l11.1,4.7l-3.7,1.5l-0.3,1l3.7,3.9l-8.1,2.9l1.3-3.9l-0.3-0.8l-5.7-2.9l-6.3,2.4l-2.3,5.5
		l-3.4,2.8l-4.2-1.6l-5,0.3L778,887h-0.8l-2.3,1.8l-2.3,0.3l-0.5,0.7l-0.5,4.1l-7-1l-0.7,0.5l-1,3.4l-4.1,0.3l-6.7,12.5l-6.3,9.4
		l1.3,2.6l-1,2l-3.6-0.2l-0.7,0.3l-2.8,6.3l0.2,8.5l2.6,3.3l-1.3,6.8l-3.3,4.1l-1.5,2.6l-2.1-2.9l-1-0.2l-8,6.8l-5,1.3l-5.2-2.8
		l-1.5-6.2l-1.3-13.8l3.4-3.7l10.6-5.4l8.1-6.8l17.2-22.5l17.9-14.2l8.8-3.1l7,0.2l6-5.9l7.3,0.3L805.8,874.8L805.8,874.8z
		 M794.6,797.7l7,2.9l-5,4.1l-11.6,1l-11.6-1.5l-0.7-2.1l-0.7-0.5l-5.5-0.2l-3.4-3.3l11.2-2.3l6.3,2.1l3.9-2.6L794.6,797.7
		L794.6,797.7z M790,820.3l-7.3,2.8l-5.7-1.6l1.8-1.5v-1l-1.8-2l6.8-1.5l1.8,3.3L790,820.3L790,820.3z M765.1,804.2l12,6.2l-8.8,3.1
		l-2.6,6.7l-3.7,2l-1.8,6.7l-4.2,0.3l-7.8-4.7l2.9-2.4l-0.2-1.1l-6-2.4l-7.8-7.3l-2.8-6.3l9.9-2.9l2.4,3.1l5.9-0.2l2-3.3l5.4-0.3
		L765.1,804.2L765.1,804.2z"/>
	<path fill="#C6E4EA" d="M777.8,1303.1h-1.6l-0.7,0.7l-0.2,14.5l-3.4,0.2l-0.7,0.7v28.3l-3.3,2l-2,0.3l-3.9-1.1l-0.8-1.8l-1.6-1.1
		h-0.8l-1.5,1.6l-2.4-2.8l-1.5-3.1l-3.3-14l-0.2-5l-0.5-2.4l-3.7-5.4l-3.1-7.8l-3.3-3.9l-0.2-2.6l3.7-1.3l2.3,0.2l2.9,1.8l16.6-0.3
		l2.9,2L777.8,1303.1L777.8,1303.1z M778.5,1303.1l10.6-2.6l3.1,0.7l-2.8,0.7l-2.1,1.3l-1.8-1.5L778.5,1303.1z"/>
	<path fill="#C6E4EA" d="M1371.1,1320.3l-0.5,0.3l-4.7-2.9l-5.4-5.5l2.8,1.3L1371.1,1320.3L1371.1,1320.3z"/>
	<path fill="#C6E4EA" d="M746.1,1133.7l2.1,2.3l0.8,0.2l2.1-1.1l0.8,5.7l1.5,1.3l0.3,1.5l1.3,1.1l-0.7,1.6l-1.6,8.6l-0.2,5.2
		l-4.9,3.7l-2,5.9l1.6,2v2.4l0.7,0.7h1.8l-1.5,2l-2.4-3.9l-1.5-0.5l-3.4,2.3l-2.8-1.1l-2.4-0.3l-1.5,0.7l-2.3-0.2l-2.6,1.8h-1.8
		l-4.7-2.1l-2.3,1h-1.6l-1.6-1.5l-4.4-1.6l-4.4,0.5l-1.5,1l-0.8,2.6l-1.3,2l-0.2,2.4l-2.6-1.8l-2.1,0.3v-1.3l-0.5-0.7l-4.2-0.8
		l-0.2-2l-2.3-2.6l-0.5-1.6l0.2-1.3l2.1-0.2l1.8-1.5l5.4-0.3l3.6-0.7l0.5-0.5l0.3-2.4l2.3-3.1v-9.3l5.5-1.8l11.7-8.3l13.7-8
		L746.1,1133.7L746.1,1133.7z"/>
	<path fill="#D3D50E" d="M748.7,1178.3l1,1l-0.5,1.6l-3.4,3.3l-3.3,8.5l-2.3,2l-1.8,5.2l-2.1,1.1l-2.4-1.6l-2,0.3l-2.3,2.3l-1.5,0.3
		l-2.9,6.7l-3.7,1.3l-1.8-0.2l-1.5,0.8h-2.8l-2-2.3l-1.5-3.1l-2.9-2.8l-6.5-0.2l0.2-8.5l0.7-2.3l3.3-3.7l-0.2-1.5l0.7-2l-0.8-2.3
		l0.3-4.7l1.1-1.8l0.5-2.1l0.8-0.7l4.1-0.5l3.7,1.5l1.8,1.6h2.1l2-1l4.9,2.1l2.4-0.2l2.3-1.6l2.1,0.2l1.3-0.7l5.5,1.3l2.9-2.1
		l2.9,4.4L748.7,1178.3L748.7,1178.3z"/>
	<path fill="#C6E4EA" d="M1402,1382.8l3.1,5l0.7,0.3l0.5-0.7v-2l0.7,0.5l1,3.7l3.3,1.5l2.9,0.5l2.6-1.8l1.1,0.3l-2,5.9l-3.3,0.2
		l-1.1,2l0.3,1.8l-3.9,6.5l-2.4,1.5l-1.6-1.5l2-3.3l-1.3-3.3l-4.2-2v-1l2.9-2l0.7-3.7l-0.3-3.3l-1.6-2.9l-0.2-1.1l-5-5.9l-1.3-2.4
		l2.6,2.4l2.9,1.1L1402,1382.8L1402,1382.8z M1395.5,1405.6l1,2l1,0.3l2.3-1.6l0.8,1.3v1.6l-4.1,5.7l-2.1,2l-0.2,0.8l0.8,1.5
		l-2.3,0.2l-3.7,2.3l-3.3,8.1l-4.9,3.6l-3.4-0.2l-2.8-1.6l-4.1-0.3l-0.5-1.1l2-3.4l4.9-4.7l2.6-1l6.5-4.6l2.6-2.8l1.8-3.6l1.5-1.1
		l0.8-2.9l2-1.6L1395.5,1405.6L1395.5,1405.6z"/>
	<path fill="#C6E4EA" d="M1049.4,1112.7v5.2h-2.8l-7.8-1.5l-2.6-2.3l-5.5-0.5l-12.5-6l1.3-3.4l3.7-2.8l2.9,1.3l4.1,2.9l2.3,0.7
		l1.6,2.3l3.1,0.8l3.3,2L1049.4,1112.7L1049.4,1112.7z"/>
	<path fill="#C6E4EA" d="M669.1,1187l1.5,0.7l1,1.5l1.8,0.8l2-1l1.6-0.2l2.3,0.8l1,5.2l-1.6,3.4l-1,4.6l1.8,3.7l-0.2,0.8l-4.1-0.8
		h-2.8l-5,0.8l-6.7,2.6l0.5-5l-2-2.1l-2.1-1.1l0.7-1.3l-0.3-2.3l0.8-1.1v-2.6l1.3-0.5l0.5-0.8l-1.8-4.9l0.2-0.8l0.8-0.3l1.1,0.5h3.1
		l1.1-1.1l1.1-0.2l0.3,1.1l1,0.3L669.1,1187L669.1,1187z"/>
	<path fill="#C6E4EA" d="M729.6,1019.4l-0.5,1.5l0.3,0.8l1.8,1l1.6,0.2l-0.2,1l-1.3,0.7l-2.8-0.7l-0.8,0.3l-0.8,1.6l-1.3,0.2
		l-1.3-0.7l-2.1,1.6l-1.6,0.2l-1.5-1l-1.3-2.1l-0.8-0.3l-1,0.5v-1l2.8-2.8l0.2-1l1.5,0.2l1-0.8h3.3l1.1-1L729.6,1019.4L729.6,1019.4
		z"/>
	<path fill="#50A631" d="M400,1179.9l-2.8,1l-1,2l-2.8,2.8l-0.7,3.1l-1.1,2.3l0.5,1l1.6,0.2l0.3,1.5l1,1v3.7l2.6,2.3l5.2-0.3
		l2.1,0.5l2.8,3.4l0.7,0.2l6.7-0.7l0.7,0.3l-1.5,3.3l-0.3,2.9l0.8,2.9l1.3,1.6l-1.8,1.8l0.2,1l1.3,0.8l1.1,2.1l-0.7-0.8h-1l-1.1,1.1
		h-7.6l-0.7,0.7v2.6l0.5,0.7l1.8,0.3l-2.8,0.7l-0.5,0.7v2.9l2,1.8l0.5,2l-1.8,11.4l-1.6-1.5l2.1-3.3l-0.2-1l-3.6-2l-2.3,0.3
		l-1.8-0.7l-2.1,1l-2.4-0.5l-2.3-4.1l-2-1.3l-1.5-2l-2.8-2l-1.5,0.2l-3.4-2.1l-1.6,0.5l-2.9-0.5l-0.8-1.5l-5-2.8l1.3-0.8l-0.2-1.8
		l0.7-1l2.1-0.5l3.3-4.7l-0.2-1l-1.1-0.7l0.7-2.3l-0.8-3.4l0.8-1.3l-0.7-3.4l-1.6-2.3l0.3-1.1l1.5-0.2l0.8-1.3l-0.8-2.6l2.3-0.2
		l2.9-2.8l1.5-0.3l0.5-0.7l0.8-4.6l2-1.6h2.3l0.7-0.8l3.1,0.2l4.7-2.9l1.8-1.8l1.5,0.8L400,1179.9L400,1179.9z"/>
	<path fill="#C6E4EA" d="M1210.6,1007.6l7.5,2.1l4.6,3.6l1.6,4.7l0.7,0.5h6.2l3.7-2.1l5.4-1.3l-1.6,3.4l-1.6,2.1l-1.3,5.5l-2.4,4.4
		l-4.6-0.8l-3.9,1.8l-0.3,0.8l1,4.2l-0.5,5.2l-1.5,0.2l-0.7,1.5l-1.5-1.6l-1,0.2l-1.5,2.6l-6,2l-0.5,0.8l0.5,1.8l-2.4-0.2l-1.8-1.5
		l-1,0.2l-2.8,3.4l-4.4,2.6l-3.3,3.1l-5.5,1.3l-3.1,2.3l-2,0.5l0.5-1.1l-0.7-1.5l2.9-2.9v-0.8l-2.1-2.6l-0.8-0.2l-3.6,1.8l-4.6,3.4
		l-2.4,2.9l-3.7,0.2l-2.4,2.4v0.8l2.1,3.3l3.3,1l0.5,2.3l3.3,1.3l4.9-3.3l3.3,1.6l2.4,0.2l0.3,1.3l-5.5,1.5l-1.8,2.4l-4.1,2.4
		l-2.1,3.3l0.2,1l4.2,2.4l1.6,4.4l5.2,7.5v2.8l-2.1,1l-0.3,0.8l1,2.4l2.3,1.5l-1.5,6.2l-2.3,0.7l-6.2,10.4l-3.7,5l-11.1,7.5
		l-4.4,0.5l-2.4,1.6l-1-1h-0.8l-2.3,2l-5.5,2.1l-4.2,0.7l-1.8,4.6l-1.3,0.2l-0.8-2.3l0.8-1.5l-0.3-1l-5.5-1.3l-2.1,0.7l-3.7-1
		l-1.5-1.3l0.5-2.1l-0.5-0.8l-3.6-0.8l-1.8-1.5h-0.8l-3.4,2.3l-7,0.5l-4.6,1.8l-0.5,0.7l0.5,4.1h-1l-0.3-2.1l-0.8-0.5l-2.8,1.1
		l-4.1-2l1-3.1l-0.5-0.8l-2.3-0.7l-0.8-3.6l-0.8-0.5l-3.4,0.7l0.3-4.1l3.9-3.9v-7l-2-1.5l-1.3-2.4l-0.7-0.3l-2.3,0.3l-3.3-0.5
		l0.8-1.8l-2-2.8l-0.8-0.2l-2.6,1.8l-3.6-1l-4.7,2.8l-3.6,3.3l-2.9,0.5l-2-1.1l-5.4-1l-2.4,1.3l-1.6,2.1l-0.2-2l-0.8-0.5l-2.3,0.8
		l-8.9-1.5l-3.3-2l-3.1-0.8l-1.6-2.3l-2.1-0.7l-4.1-2.9l-3.3-1.3l-2,1l-9.1-5.5l-0.8-3.7l2,0.3l0.8-0.7l0.2-2.3l-1.6-2.6l0.3-3.9
		l-4.4-5.4l-6.7-2l-1.1-3.3l-3.1-2.4l-0.7-1.1l-0.8-4.9l-2.4-1.1l-1.1,0.2l-0.8-3.3l0.8-0.8l-0.2-1.3l3.3-2l2.6-0.8l4.2,0.7l0.7-0.3
		l1.3-2.8l4.9-0.5l1.8-2.1l6.5-2.9l0.7-1.5l-0.3-2.3l2.4-1.1l0.3-0.8l-3.4-8l7.3-1.8l2.3-1.1l3.1-8.9l8.1,1.5l2.4-2.8l0.2-4.7
		l3.3-0.7l2.9-3.4l0.8-0.2l1.1,3.4l3.6,2.9l5.5,2l2.4,3.7l-1.5,5.7l1.6,2.8l10.6,1.8l4.9,3.1l2.4,0.7l1.8,4.2l2.4,3.1l4.9,0.2
		l8.3,1.1l5.5-0.7l3.9,0.7l6,2.9h5l2.4,1.5l4.7-2.6l6.5-1.6l6.2-0.2l5-1.8l2.9-2.6l2.8-1.6l0.3-0.8l-1.8-3.4l1.6-2.4l6.5,1.3
		l4.1-2.6l6.2-2l3.3-3.4l2.6-1.3l5.7-0.7l3.1,0.5l0.8-0.5l0.3-2.4l-3.7-3.6l-3.4-1.8l-3.6,1.8l-3.7-0.8l-2.1,0.5l-0.7-1.3l4.4-8.5
		l4.9,1.8l5.7-3.4l0.3-2.8l3.6-5.5l2.4-2.3v-3.1l-1.8-1.5l2.4-2.1l4.9-1l5.2-0.2l5.9,1.6l3.3,2l5.4,10.9L1210.6,1007.6
		L1210.6,1007.6z M1140.2,1151.2l-3.1,1.8l-2.6-1l-0.2-2.9l1.6-1.6l4.2-1.1l2,0.2l0.5,0.8l-1.6,1.8L1140.2,1151.2z"/>
	<path fill="#C6E4EA" d="M751.3,1184.1l1.6,3.1l-2.3,0.3l-1.6-0.3l-0.8,0.3l-0.8,2l0.2,0.8l2.4,2.4l1.6,0.8l1.6,4.1l-2.4,4.9
		l-1.1,1.1l-0.2,6l3.9,6.2l1.8,1.3l0.3,4.1l-6-1.8l-18.4-0.2l0.3-2.9l-1.6-2.8l-2-0.8l-0.7-1.6l-1-0.7l2.8-7l1.3-0.2l2.3-2.3h1
		l2.8,1.6l3.1-1.8l1.8-5.2l2.3-2l3.3-8.3l3.6-3.4l0.5-2.6l-1.5-1.5v-0.5l1.5,2.1L751.3,1184.1L751.3,1184.1z"/>
	<path fill="#50A631" d="M407.3,1463.5l-5,2.9l-1,5.2h-1l-4.4-1.8l-4.6-3.7l-4.9-3.1l-1.1-3.1l1-3.4l-2-3.4l-0.5-8.8l1.6-4.7
		l4.2-3.9l-0.3-1.1l-5.2-1.3l3.3-4.1l1.3-7.6l3.7,1.5l0.8-0.5l2.1-10.3l-0.3-0.7l-2.8-1.3l-1,0.5l-1.1,5.5l-1.3-0.3l2.6-15.3
		l1.8-3.6l-1.1-4.6l-0.3-4.6l1.6-0.5l5.4-14.8l1.8-6.8l-1-6.8l1.1-3.7l-0.5-5.4l2.4-5.4l3.3-27l-1.1-12.7l1.6-0.8l0.8-1.5l1.3,1.8
		l0.5,2.9l2,2l-1.1,4.1l2.1,4.7l1.6,5.9l0.8,0.5l2.4-0.5l0.2,0.3l-1.3,3.9l-4.2,2l-0.3,0.7l0.2,7l-0.8,1.3l1,2l-2.6,2.4l-2.8,4.2
		l-1.5,4.1l0.3,4.4l-2.4,4.4l1.8,8.3l1,1v3.7l-2.3,4.4v3.9l-3.1,3.3v4.6l1.1,4.2l-2.3,1.8l-2.1,9.3l0.7,5.7l-1.6,1.5l1,5.7l1.6,1.8
		l-1,1.6l0.2,1l1.6,0.8l0.3,1.1l-1.6,1.3l0.5,2.9l-1.5,6.5l-2.1,4.4l0.3,2.9l-1.1,2.9l-3.3,2.8l0.5,6l1.5,2h2.6v3.6l1.6,3.3
		L407.3,1463.5L407.3,1463.5z M410.9,1466.1v11.9l0.7,0.7h5.7l-0.7,1.3l-3.1,1.6l-4.1-0.7l-3.1-1.8l-4.1-0.8l-9.1-6l-3.9-4.2
		l6.7,4.1l5.4,2l0.7-0.2l2.1-2.6l1.3-3.7l3.4-2L410.9,1466.1L410.9,1466.1z"/>
	<path fill="#C6E4EA" d="M461.8,1002l-2.8,4.7l0.2,0.8h0.8l2.4-1.6l1.6,0.7l-1,1.1l0.3,1l3.6,1.5l2.3-1.1l3.3,1.3l-1.1,3.3l0.8,0.8
		l2.1-0.7l1.6,5.2l-1.5,3.9l-1.3,0.2l-2-0.8l0.8-3.6l-1.5-1.3l-0.8,0.2l-4.6,4.2h-0.5l1.6-1.5l-0.2-1.1l-3.9-1.3l-12,0.2l-0.3-0.7
		l2.1-1.5v-1l-1.1-1l3.1-2.8l4.2-8.5l2.4-2.9l3.3-1.8l0.8,0.2L461.8,1002L461.8,1002z M117.4,885.7l6.7,1.5l6.5,3.4l4.2,0.7l4.1-3.1
		l4.7-2.1l6.2,0.8l6-3.1l6.2-1.6l2.6,2.8l0.8,0.2l3.1-1.6l1-3.3l2,0.5l6.8,6.3h0.8l4.6-4.1l0.5,4.2l0.8,0.7l5-1.1l1.6-2.1l4.4,0.3
		l6.2,3.1l9.6,2.6l5.7,1.3l3.9-0.5l4.4,2.9l-4.9,2.9l-0.3,0.7l0.5,0.5l7.3,1.5l11.2-0.8l3.3-1.1l4.1,3.9h0.8l4.4-3.6v-1l-3.6-2.4
		l1.8-1.8l7.8-1l2.9,1.5l4.1,3.7l4.9-0.3l7.5,3.1l6.3-1.1l5.9,0.2l0.7-0.7l-0.3-3.9l2.9-1l5.7,2.1v6.2l0.5,0.7l0.7-0.3l2.4-5.2
		l2.8,0.2l0.7-0.5l1.8-7.2l-4.6-5l-4.6-2.8l0.3-7.5l4.4-5l4.9,1.1l3.9,3.3l5.2,7.8l-3.3,3.3l0.3,1.1l7,1.3v6.7l0.3,0.7l0.7-0.2l5-5
		l4.1,3.9l-1,5.4l3.9,4.7h1l4.2-5l3.1-6.2l0.3-7.5l10.9,1.5l5,3.3l0.2,2.9l-2.9,3.6v0.8l2.8,3.6l-0.5,2.8l-7.6,4.6l-5.4,1l-4.1-2
		l-1,0.3l-1.1,3.3l-3.9,5.5l-1.1,2.9l-4.4,4.2L324,923l-3.6,2.9l-0.5,4.1l-4.6,1l-5,5.2l-4.4,7l-1.6,5.2l-0.2,7l0.5,0.7l5.5,1
		l3.6,9.6l0.7,0.3l5.5-1.1l7.3,2.4l3.9,2.1l3.1,2.8l5,1.6l4.2,2.4l10.7,0.8l-0.7,4.4l1.3,5.7l2.9,6.2l6.2,5.4h0.8l3.4-2.1l2.3-6
		l-2.1-8.8l-2.4-2.6l5.9-2.4l4.6-4.1l2.4-4.6l-0.3-4.1l-2.8-5l-4.7-4.2l4.6-6.3l-1.8-5.5l-1.3-9.3l2.3-1.1l11.1,2.3l3.4-1.6l8.3,5.5
		l1.6,2.6l6.7,0.5l-0.2,4.7l1.3,7.6l0.5,0.5l3.6,0.8l2.8,3.4l0.8,0.2l5.9-3.3l4.1-6.8l2.1-2.1l12.4,19l-1.5,3.3l0.3,0.8l5.4,3.3
		l3.6,3.3l6.7,1.6l2.3,1.6l1.6,4.6l3.4,1.1l1.3,1.8l0.3,5.5l-5.5,3.7l-6.8,2l-5,4.2l-6.7,0.8l-8.8-1.1l-10.4,0.3l-3.7,3.9l-5.4,2.4
		l-10.6,11.6l-0.2,0.8l0.7,0.3l3.4-0.8l6.8-6.8l8.3-4.2l5.7-0.5l2.8,2l-3.4,3.6l1.3,5.7l1.6,4.2l5.7,2.6l6.7-0.8l3.4-4.6l0.5,2.4
		l1.8,1.3l-4.2,2.8l-8.9,2.9l-4.1,2.1l-4.4,3.4l-2.3-0.3l-0.2-3.3l6.7-3.9l0.3-0.8l-0.7-0.5l-10.7,0.7l-2.3-2.4l-0.2-7.2l-1.8-1.5
		l-2.9,0.7l-1.1-1.1h-1l-3.1,3.9l-1.3,4.1l-1.3,2.1l-2.8,1l-0.8,1.3l-13.5,0.2l-2,1l-3.9,3.3l-1.1-0.2l-2.3,1.6l-1.8-0.8l-7.6,2.1
		l-1.5,2l0.3,1l2.8,0.5l-2.9,0.5l-3.1,1.3l-3.4-0.2l-4.7,2.9l-1.1-0.2l2.3-3.4l2.8-2l0.2-3.7l2-3.3l0.8,0.8l3.3,0.7l2-2v-0.8
		l-4.4-5.7l-3.7-1l-9.1-1.1l-0.7-1l-1.3,0.2l0.3-0.7l-0.3-1l-1.1-0.5l0.3-2.1l0.7-0.3l0.5-1l-0.5-1l-4.2-0.7l-1.3-2.6l-1.5-1.1l-7-1
		l-1.8,2l-2.4,1l-1.5,1.8l-4.6-1.3l-3.4,0.7l-3.9-1.6l-6.8-1.1l-1-0.7l-0.7-2.6l-0.7-0.5h-1.5l-0.7,0.7v1.5H190.3l-10.6-7.3
		l-7.3-2.3l-2.1-4.4l0.5-3.1l-0.3-0.7l-4.9-2.3l-1-4.6l-4.7-3.9v-2.4l2.3-2.9l-0.5-4.2l-6.8-3.6l-6.7-10.7l-6.5-5.2l-2.1-3.1
		l-0.8-0.2l-4.1,2l-3.6,3.1l-6.3-6.3l-3.9-1.6l-3.6-0.2L117.4,885.7L117.4,885.7z M429.8,1006.9l4.9,1.3l3.7,2l-6.2-1.5
		L429.8,1006.9L429.8,1006.9z M412,771.3l10.9,0.8l8.6,1.3l7,2.6l-0.2,1.8l-9.6,4.1l-9.8,2l-3.9,2.3l-0.3,0.8l0.7,0.5h6.5l-7.5,4.6
		l-6.8,2.8l-6.8,7.5l-8.1,1.5l-2.8,1.8l-12.2,1l-0.7,0.7l0.5,0.7l3.9,0.8l-1.3,0.8l-0.2,1l2.9,3.9l-3.3,2.6l-6.2,2.4l-2.1,3.6
		l-5.5,2.4l-0.3,0.8l0.7,2l0.7,0.5l6.3-0.3v1l-10.3,4.7l-10.4-2.3l-12,1.3l-6-1l-7.2-0.3l-0.3-2.9l7-1.8l0.5-0.8l-1.8-5.7l1.6-0.3
		l10.7,3.7l0.8-0.3v-0.8l-5.5-5.7l-5.9-1.6l2.4-2.6l7-2.1l1.6-3.6l-0.3-0.8l-5.5-3.4l-1.3-3.7l10.1,0.3l3.6,1l6.3-3.4l0.3-0.7
		l-0.7-0.5l-9.1-1.1l-14.2,0.7l-7-3.1l-3.4-3.9l-4.6-2.8l-0.7-2.4l5.4-1.6l4.7-0.3l8-1.6l6-3.7l4.7,0.5l4.2,2.8l1-0.2l2.9-5.2l5-1.5
		l7.2-1.1l12.2-0.5l2.4,1.1l11.7-1.8L412,771.3L412,771.3z M337.8,858.7v0.7l3.3,4.9h1.1l3.6-6l9.8-3.1l6.5,7.5l-0.7,4.7l0.8,0.7
		l8.1-2.3l3.7-2.9l8.6,3.7l5.4,3.4l0.5,2.9l0.8,0.5l7.2-1.6l4.2,4.7l9.8,2.9l3.4,2.8l3.4,6l-6.8,3.1v1.1l9.6,4.6l6.3,1.5l6.2,6.3
		l5.7,0.3l-1,3.9l-6.7,7.3l-4.6-2.6l-6.3-6.3L414,908l-0.5,0.5l-0.3,4.4l4.2,3.9l5.5,3.1l1.5,1.6l2.4,6.2l-1.1,3.7l-4.4-1.5l-10.1-5
		l-0.8,0.2l0.2,0.8l9.9,9.3l0.3,1l-9.9-2.3l-8.6-3.6l-4.2-2.8l1-1.3l-0.2-1l-12-6.5l-1,0.7v1.3l-10.9,1l-2.8-1.8l2.3-4.1l7.3-0.2
		l8.3-0.8l0.5-1l-1.1-2.1l1.3-2.9l5.2-6.7l-1.1-3.7l-1.8-2.6l-6.2-3.4l-7.2-2.1l1.5-1l0.2-1l-4.2-4.6l-3.7-0.7l-3.1-2.4h-0.8l-2,2
		l-7.2,0.8l-14.6-1.6l-15.1-3.3l-2.6-2l3.6-2.9l0.2-0.7l-0.7-0.5h-5.2l-1.1-6.8l2.9-6.5l3.9-3.1l8.9-1.8L337.8,858.7L337.8,858.7z
		 M431.2,1024.3l3.4,1h2.3l-1.8,1l-4.7-2l-0.7-1.1l0.7-0.7L431.2,1024.3L431.2,1024.3z M381.8,902.5l-3.9,0.3l-0.8-2.6l1.5-3.4
		l3.1-0.8l2.6,1.6v2.4L381.8,902.5L381.8,902.5z M379.5,859.8l0.2,1l-8-0.3l-4.4,1l-5-4.2l0.2-2.1l1.5-0.3l9.1,0.8L379.5,859.8
		L379.5,859.8z M367.4,936l-1.1,2.4l-1-0.3l-0.8-1.3l1.3-1.6h1L367.4,936L367.4,936z M305.1,827.4l4.7,2.8h7.8l2.9,2.4l-0.8,2.8
		l0.3,0.8l4.6,1.8l2.9,2.1l11.4,1l6.7-1.8l8.1-0.7l6.3,0.7l4.1,2.9l0.8,2.8l-2.1,1.8l-5.9,1.6l-5.2-1l-11.7,1.3l-8.3,0.2l-6.5-1
		l-10.4-2.4l-1.3-4.1l-0.5-4.1l-4.2-4.1l-8.6-1.1l-4.1-2.3l1.1-2.6L305.1,827.4L305.1,827.4z M343.7,913.7l0.7,2.6l1,0.5l1.8-0.8
		l2.1,1.6l8.8,4.2l0.3,2.8l0.8,0.7l2.8-0.5l1.8,1.5l-2.6,1.5l-5.9-1.5l-2.1-2.8l-1-0.2l-4.1,3.4l-5,2.9l-1.1-3.1l-0.7-0.5l-3.6,0.3
		l2.3-2.3l0.5-5l1.3-5.5L343.7,913.7L343.7,913.7z M356.9,932.1l-4.4,3.3l-2.3-0.2l-0.5-1l2.4-2.4L356.9,932.1z M336,804.3l4.1,2.6
		l-4.7,2.3l-7.3,6.7l-6.8,0.7l-8.1-1.1l-3.9-3.3v-2.6l2.9-2.3l0.2-0.7l-0.7-0.5h-7.2l-4.2-2.9l-2.3-3.7l2.6-3.7l2.6-2.8l3.9-0.7
		l0.3-1.1l-1-1.1l8-0.3l5.2,5l13.3,3.7L336,804.3L336,804.3z M311.1,861.5l-4.6,5.7l-3.9-0.2l-2.3-6.2v-3.6l2-3.1l3.7-2l8.3,0.3
		l6.7,1.6l-5.2,6L311.1,861.5L311.1,861.5z M308.9,844.5l-1.8,2.4l-5.4-0.5l-4.2-1.8l1.6-2.9l5.2-2l3.1,2.6L308.9,844.5L308.9,844.5
		z M308.4,822.6l-8.6-0.3l-0.5-1.1l7,0.2L308.4,822.6L308.4,822.6z M300.2,818l-5.4,1.6l-2.9-1.8l-1.6-3.1l-0.2-2.8l6.7,0.8l4.4,2.8
		L300.2,818L300.2,818z M300.6,889.3l-1.8,1.8l-5-2l-3.4,0.7l-4.4-2.6l2.8-1.8l2.6-2.8l6.2,3.1L300.6,889.3L300.6,889.3z
		 M282.3,854.5l4.9,1.6l6.8-1l0.7,1.5l-3.4,3.4l0.2,1l5.9,3.1l-0.7,6l-6.2,2.6l-3.6-0.7l-2.8-2.8l-9.8-5.7v-1.5l7.6,0.8l0.7-0.3
		l-0.2-0.8l-4.1-4.6L282.3,854.5L282.3,854.5z M290,831.3l2.3,2.8l0.2,3.9l-1.8,5.5l-6.2,0.8l-3.7-1.1l0.2-4.2l-0.7-0.7l-6,0.7
		l-0.2-5l3.9,0.2l6-2.8l5.5,0.5L290,831.3L290,831.3z M282.8,816.4l1.1,2.6l-5.4-0.8l-6.8-2.9l-7.2-0.3l2.3-1.5l-0.2-1.1l-4.6-2
		l-0.2-2.3l7.2,1.1l10.7,3.3L282.8,816.4L282.8,816.4z M225.1,859.7l-1.6,2.9l0.7,1l8.8-2.3l5.4,3.7h0.8l4.2-3.6l3.1,2.1l3.3,7.3
		l1.1,0.2l2.1-3.7l-2.6-7.3l2.8-0.8l3.7,1.1l4.2,2.9l4.1,12.9l13.8,7l-0.2,2.1l-6.2,0.5l-0.5,1.1l2.3,2.4l-1,1.8l-6.8-1l-7.2-2
		l-4.9,0.5l-7.6,2.4l-17.1,1.6l-2.3-3.3l-5.5-2l-3.6,0.7l-4.1-4.7l7.8-1.8l5.9,0.3l5.4-1.3l0.5-0.7l-0.5-0.7l-7.8-1.8l-14.3,0.5
		l-1.5-1.8l8.6-2.8l0.5-0.8l-0.7-0.5l-6.2,0.2l-6.2-1.8l2.9-4.9l2.8-2.9l10.6-4.6L225.1,859.7L225.1,859.7z M264.4,857.2l-2.8,3.9
		l-5.2-4.6l0.7-0.5l5-0.3L264.4,857.2z M249.6,834.6l1.6,3.1l0.8,0.3l3.4-1.3l3.6,0.3l0.7,3.3l-2.1,3.4l-13.5,1.3l-10.4,3.4
		l-5.5,0.2l-0.3-1.6l8-3.4l0.3-0.8l-0.7-0.5l-18.2,1l-4.7-1.1l4.9-7.2l3.4-2.1l11.1,2.8l7.5,5l7.2,0.7l0.7-1l-5.5-7.5l3.1-2.4
		l3.6,0.8L249.6,834.6L249.6,834.6z M241.7,821.1l-7.2,2.3l-4.9-2.3l2.4-2l5.7-0.8l4.9,1.1L241.7,821.1L241.7,821.1z M242.3,813.6
		l-3.1,1.1h-6l3.7-2.6L242.3,813.6L242.3,813.6z M199.7,872.2l-9.8,3.3l-2.1-3.1l-8.8-3.7l4.2-8.3l3.6-5v-0.8l-3.3-3.9l12.4-1.1
		l5.9,1.6l10.3,0.5l7.2,4.9l-4.1,1.6l-10.1,5.5l-5,5.4L199.7,872.2L199.7,872.2z M216.9,822.9l-0.5,5.5l-2.8,2.6l-3.7,0.5l-7.5,3.6
		l-6.3,1.3l-4.2-1.5l6-5.5l8.1-5.4l6,0.2L216.9,822.9L216.9,822.9z M187,1013.6l-1.1,0.3l-6.2-2.3l-1.3-2l-3.4-1.8l-1.1-1.6
		l-3.9-0.8l-1.1-2.8l9.8,2.4l3.3,4.1l4.1,2.3L187,1013.6L187,1013.6z M149.1,984.1l1.5,0.5l3.1-0.3l-1.1,5.4l2.8,3.7l-2.1-2.1
		l-1.6-2.6l-2-1.6L149.1,984.1L149.1,984.1z"/>
	<path fill="#C6E4EA" d="M765.6,1215l-0.2,1.6l-2,4.9l-0.3,5.9l-0.8,2.9l-0.3,1l-2.6,2l-2,2.3l-1.8,3.9v3.4l-5.2,5.2l-0.8-0.3
		l-0.8-1.3h-2.3l-1.6,1.5l-2.8-1.6l-2.4,2l-2.4-3.3l2.6-1.8l0.2-0.8l-1.3-2.1l3.4-1.1l0.7-1.1l1.6,1.3l3.6,0.2l1.8-2.3l0.7-2.9
		l-0.5-3.4l-1.8-2.4l1.6-4.4l-0.2-0.8l-1.5-1l-2.6,0.3l-0.8-1.5l0.2-1l4.6,0.2l6.5,2l0.8-0.5l0.3-2.1l2-3.6l2.1-1.8L765.6,1215
		L765.6,1215z"/>
	<path fill="#C6E4EA" d="M756.5,1217.8l-0.5-2l-1.8-1.3l-1.3-2l-0.5-1.6l-1.6-2l0.2-5.5l1-0.8l2-3.7l3.1-0.3l1-1l1.6,1l5.2-1.6
		l4.1-3.1v-1.6h4.6l3.9-2l3.1-4.7l2-1.5l1.8-0.5l0.5,1.5l2.1,2.4l-0.7,3.3l0.5,1.6l6.5,4.6l0.3,1.5l4.2,3.7l1,2.3l3.4,2.3l-6.2-0.3
		l-3.1,1.5l-2-0.8l-4.4,2l-2.1-0.3l-0.8,0.7l-1,2l-5.4-1.1l-2.6-1.5l-3.9-1.3l-2.4,1.5l-1.6,2.1l-0.5,2.6l-5.2-0.7l-2.4,2.1
		L756.5,1217.8L756.5,1217.8z"/>
	<path fill="#C6E4EA" d="M798.6,1208.4l3.7-0.2l2.1,2.9l2.1,0.8l1.5-0.7l2,0.2l1.8-0.7l0.8,1.5l3.3,2.4l-0.2,4.4l1.1,0.8l-2.3,1.8
		l-2.4,4.1l-0.3,3.3l-1,1.8v2.8l-1.1,1.3l-1.1,4.9l1,2.1l-0.7,7l1,2.4l-0.7,2l1.5,2.9l2.4,2.3l0.5,2.1l0.7,0.8l-6.7,1.3l-1.5,2.9
		l0.8,2.1l-1.1,8.8l0.3,0.7l4.1,2.4l0.8-0.2l0.2,2.6H809l-2.9-3.7l-3.1-0.8l-0.8-1.8l-0.8-0.3l-2.3,1.1l-2.8-0.5l-1.6-2l-4.1-0.3
		l-0.7-1.3l-3.3-0.3l-4.7,0.7l0.2-3.9l-1.5-1.8l-0.3-2.3l0.5-2.8l-0.8-1.5v-2.4l-0.7-0.7h-4.1l0.2-0.7l-0.7-0.8h-2.1l-0.7,0.8
		l-2.6,0.5l-1.3,2.9l-1.8-0.5l-3.9,0.8l-2.1-2.8l-2.1-5.4l-0.7-0.5h-12l-4.1,0.7l0.8-0.8l0.7-2.4l1.1-0.7l1.5,0.2l1.1-1.3h1.5
		l0.5,1.1l2.3,0.7l5.9-5.9v-3.6l1.6-3.7l4.4-3.9l0.7-1.6l0.8-3.3l0.3-5.7l2-4.9l0.7-5l1.5-1.8l1.8-1.1l5.9,2.8l5.9,1.1l0.8-0.3
		l1.3-2.4l2,0.3l4.2-2l1.3,0.7h1.6l1-1.1l1.1-0.3L798.6,1208.4L798.6,1208.4z"/>
	<path fill="#C6E4EA" d="M752.1,1000.9l2,1.6l2.4,0.3l0.2,1.5l2.3,1.1l0.8-0.3l0.3-0.8l2,0.3l0.8,1.8l2.8,0.3l1,1.3l-1.6,1.1
		l-1.6,2.1l-2.6,0.3l-0.8,1l-1.6-0.8l-1.6,0.2l-3.4-1.6l-1.6,0.5l-2,1.8l-2.6-1.5l-4.2-3.4l-0.8-3.1l7.6-4.1l1.1,0.5L752.1,1000.9
		L752.1,1000.9z"/>
	<path fill="#C6E4EA" d="M826.8,1080l0.7,0.5l-2.1,1l-1.5-0.5l-0.3-0.8L826.8,1080L826.8,1080z"/>
	<path fill="#50A631" d="M350,1184.9l0.8,1.6l2.6,2.6l-0.8,0.8l0.5,2.3l-0.3,2l-1.8-1l-0.2-2l-4.1-2.3l-0.5-1.3l-1.1-0.8h-0.8
		l-0.2,1.6l-2.1-1.6l0.5-2.1l-0.7-1l0.5-0.5l2.3,1l2.1-0.2l1,1l1.1,0.3L350,1184.9L350,1184.9z"/>
	<path fill="#C6E4EA" d="M366.1,1134.8l2.1,1.6l3.6-0.5l7.2,5.4l3.4,0.7l-0.2,0.7l0.7,0.8l2.9,0.2l2.4,1.3l-5,0.8h-6.7l1.3-1.1v-1
		l-2-1.1l-2.4-0.3l-1.1-1l-1-2.3l-0.7-0.3l-2.1,0.2l-3.6-1.1l-1.5-1l-5.2-0.7l-0.5-0.3l1-1.1l-0.7-0.5h-4.4l-2.8,2.1h-1.5l-1,1.1
		l-1.6,0.3l1.8-2.1l1.6-0.8l6-1.6l6.5,0.3L366.1,1134.8L366.1,1134.8z"/>
	<path fill="#C6E4EA" d="M820.3,1336.7l0.8,3.3l-0.7,1.5l-1.6,0.3l-2-2v-1l1.3-2.6L820.3,1336.7L820.3,1336.7z"/>
	<path fill="#C6E4EA" d="M837.7,1090.2v-2.1l0.8-2.3l2.1-1.6l0.2-0.7l-0.7-1.8l-1.8-0.7l-0.3-2.8l0.8-1.6l2.1-2l0.3-2l1,0.3l4.2-1.3
		l2.3,0.8h3.4l4.9-1.8l5.2-0.5l-1.1,1.5l-2.1,1.1l-0.3,0.7l0.3,3.3l-1.5,5.2l-16.6,9.3L837.7,1090.2L837.7,1090.2z"/>
	<path fill="#C6E4EA" d="M1017.2,1045.5l-6.3,2.8l-1.6,2l-4.9,0.5l-1.8,3.1l-3.9-0.7l-3.3,1l-3.9,2.3l0.2,1.5l-0.7,0.7l-7.3,0.7
		l-4.9-1.5l-3.9,0.3l0.2-1.3l3.7,0.7l1.8-1.5l3.3,0.3l5.2-3.4v-1.1l-4.9-2.6l-3.1,1l-2-1.1l2.8-2.6l-0.2-1.1l-0.7-0.2l0.5-1.3
		l2.3-0.7l6.5,1.6l0.8-0.5l0.5-2.6l1.8-0.8l5.5,2l1.8-0.5l12.4,0.7l2,1.6L1017.2,1045.5L1017.2,1045.5z"/>
	<path fill="#80B725" d="M829.9,1228.4l3.1-4.2l1.5-3.6l-2.3-6.7l-1.8-2.6l4.6-4.6l1.3,0.5l0.2,2.3l1.5,1.3l3.1,0.2l5.4,3.4l5.9,0.7
		l1.6-1.8l3.3-1.5l1.3,1.1l2,0.2l-2.9,4.1v14.8l2.1,3.1l-2.3,1.3l-1.1,1.6l-1.8,0.8l-0.5,2.8l-1.3,1.8l-0.8,2.4l-1.1,1l-5.2-3.6
		l-0.5-2.6l-14.5-8.1l0.2-2.6L829.9,1228.4L829.9,1228.4z"/>
	<path fill="#C6E4EA" d="M790,1193.5l1.8-1.1l2-5.2l2.3-0.5l2.6,3.3l1.5,0.5l1.8-0.7l2.4,0.2l1,0.8h4.1l0.7-1l1.8-0.7l0.8-1.3l1-0.5
		l3.1,2.1l2.6-0.3l4.6-5.4l-0.5-3.6l2.6-0.8l-0.3,2.6l0.5,2.9l2.1,2l0.3,3.1l0.7,0.7v2.4l-0.3,0.8l-2.3,0.3l-1.3,2.3l0.5,1l2.3,0.3
		l1.8,1.8l1,1.8l1.6,0.8l2.1,3.9l-7.2,6.5h-2.8l-3.1,0.8l-2.4-0.8l-2,1l-4.9-4.2l-2.1,0.8l-1.8-0.3l-1.3,0.7l-1.3-0.3l-2.9-4.4
		l-3.1-1.8l-1.1-2.4l-4.2-3.7l-0.3-1.5L790,1193.5L790,1193.5z"/>
	<path fill="#C6E4EA" d="M466.9,1204.8l3.4,0.8l-1.8,3.3l0.3,2.8l1.5,2.4l-1,3.3l-0.7,1.1l-1.8-0.7l-2.1,0.3l-1.5-0.3l-0.8,0.5
		l-0.3,1.1l0.5,1.1l-1.5-0.2l-2.3-3.3l-0.5-2.1l-1.6-0.5l-1.5-2.4l0.7-2.6l2.4-1.3l0.5-3.1l4.2,0.7l1-0.8L466.9,1204.8L466.9,1204.8
		z"/>
	<path fill="#C6E4EA" d="M1128.1,1170.9l0.8,2.3l-0.5,4.4l-6.5,3.1l-0.3,1l1.1,1.6l-3.4,0.3l-3.3,1.6l-2.9-0.5l-3.4-6l-0.8-4.7
		l2.3-3.1l4.9-0.8l3.6,0.7l3.3,1.6l0.8-0.2l1.6-2.4L1128.1,1170.9L1128.1,1170.9z"/>
	<path fill="#C6E4EA" d="M324.8,1172.1l2.3-2l3.6,2.4l1.6-0.5l0.7,0.3l-0.5,1.6h-1.8L324.8,1172.1L324.8,1172.1z"/>
	<path fill="#C6E4EA" d="M782,1011.1l-1.8,3.1l-4.4-1.5l-1.3,0.3l-1.1,1.3l-5.7,1.1l-0.8,1.1l-2.9,0.5l-3.1-1.6l-0.3-1.3l0.7-1.3
		l3.1-0.5l2.8-3.1l1.3,0.3l1.3-0.5l2.4,1.6l2.1-1l2,0.5l2.8-0.7L782,1011.1L782,1011.1z"/>
	<path fill="#50A631" d="M1206.2,1067.4l1.6-0.2l1.5-2l4.4-0.5l0.5-0.5l2.9,4.6l1,2.9v5l-1.3,2.1l-3.6,1l-3.1,1.8l-2.9,0.3l-0.3-1.8
		l0.7-3.7l-1.6-4.2l2.3-0.7l0.3-1L1206.2,1067.4L1206.2,1067.4z"/>
	<path fill="#50A631" d="M748.5,1028.9l-0.8-2.1l0.3-1.6l2.8,0.3l2.3-1.1l3.4-0.2l1-0.8l0.3,0.8l-2.6,1.1l-0.7,2.1l-1.1,0.3
		l-0.5,1.3l-2-0.8l-1.3,0.8L748.5,1028.9L748.5,1028.9z"/>
	<path fill="#C6E4EA" d="M1204.9,1066.3l-1.5-0.7l-1.5,1l-2-1.5l1.6-1.8l1-4.2l-0.8-1.1l-3.4-1.3l2.6-2.4l4.4-2.6l2.6-3.1l1.8,1.3
		l3.6,0.2l0.7-0.8l-0.5-2l5.7-2l1.5-2.3l1.6,1.8l-3.6,3.6v3.4l-1.8,0.8l-2.3,2.3l-2.8,0.8l-2,1.8l-0.2,3.3l1.5,0.7l2,1.6l-0.2,0.5
		l-4.2,0.5l-1.8,2.1L1204.9,1066.3L1204.9,1066.3z"/>
	<path fill="#C6E4EA" d="M860.6,1234.5l-1.8-2.6v-14.5l4.4-5.5l2.8-0.2l3.4-2.8l5.5-0.3l11.6-12.2l4.7-6l0.2-7.8l4.9-1.1l2-1.5h0.8
		l-0.3,4.9l-2,5.9l-4.4,9.8l-3.4,5.9l-8.1,10.1l-14,10.4l-4.6,5L860.6,1234.5L860.6,1234.5z"/>
	<path fill="#C6E4EA" d="M641,1169l0.2,2.4l0.8,2.4l1.6,1.3v2.1l-2.1-0.3l-1.3,0.5l-2.9-1l-9.4-0.2l-4.1,0.8l-0.3-1.6h2.9l3.3-1.5
		l1.6,0.8h1.8l2.1-1l0.2-1l-0.8-1.1l-2.9,0.3l-1.8-1h-1.3l-1.1,1l-3.7,0.2l-1.5-2.9l-1.3-1l1-0.7l4.1-6l1.6,0.3l2.3-1h2l4.4,2.3
		L641,1169L641,1169z"/>
	<path fill="#C6E4EA" d="M648,1194.8l-2.8,3.3l-1,2.1l-3.4-1.8l-2-2.1l-1-3.9l2-1.6l1.1-2l2-0.8h2.8l1.6,2.6L648,1194.8z"/>
	<path fill="#F7E205" d="M1351.4,1272.1l-1,0.2l-0.3-0.5l0.7,0.3H1351.4z M1347.3,1265.3l-0.5-0.5l-0.5-1.5l0,0L1347.3,1265.3z
		 M1345.3,1268.4l-2.8-0.3l-0.3-0.8l2,0.5L1345.3,1268.4L1345.3,1268.4z M1339.3,1260.9l1.8,1l0,0l-1.3-0.7L1339.3,1260.9
		L1339.3,1260.9z"/>
	<path fill="#C6E4EA" d="M880.8,1107.3l3.3,0.3l1.5,2.1l2.4-0.2l1.5,3.4l2.1,1.3l0.8,1.6l2.6,1.6l-0.2,3.1l0.5,1.5l2.6,4.1l1.3,0.8
		h1.1l2.8,6.8l12.2,2.1l0.8-0.5l1.3,2l-2.4,8l-11.9,4.1l-11.9,1.6l-3.7,2l-3.1,4.4l-1.3,0.5l-1.3-1.3l-1.5,0.2l-4.7-0.8l-5.7,0.3
		l-1.5-1l-1,0.2l-1.1,2.1l0.3,1.8l-0.7,0.5l-1.5-2.3l-0.5-2l-2-1.5l-2.1-3.4l-1.3-3.6l-2.8-2.9l-1.8-0.8l-2.4-3.7l-0.3-5.5l-2.3-4.7
		l-2.1-2l-2.1-1l-2.1-5.5l-1.3-1.1l-1.6-3.3l-4.6-6.5l-1.8-0.3l0.7-3.3l0.3-1.1l4.4,0.5l1.8-1.3l1-1.5l2.8-0.7l1.1-1.6l1.1-0.7
		l0.2-1l-3.4-3.7l7.2-2l0.8-0.7l4.6,1.1l6,3.1l11.4,8.9L880.8,1107.3L880.8,1107.3z"/>
	<path fill="#D3D50E" d="M787.6,910.4l-6.5,2l-3.9,4.7l0.5,4.2l-14.3,10.7l-2.9,9.4l2.9,4.4l3.6,3.3l-3.4,6.2l-4.4,1.8l-1.6,9.8
		l-2.1,4.9l-4.4-0.5l-0.7,0.3l-2.1,4.2l-3.7,0.2l-1.3-5l-3.4-6.5l-2.9-8.1l1.6-3.1l3.4-4.4l1.3-7.2l-2.6-3.6l-0.2-8l2.4-5.5l4.2-0.3
		l1.5-2.6l-1.3-2.6l6.2-9.1l6.5-12.2h3.6l0.7-0.5l1-3.4l7.2,1l0.8-0.5l0.5-4.2l1.8-0.2l11.2,8l0.2,10.3L787.6,910.4L787.6,910.4z"/>
	<path fill="#C6E4EA" d="M829.5,1187.2l-0.5-1.3l-2-1.5l-0.5-2.6l0.5-2.9l-0.5-0.8l-2-0.3l-0.8,1l-2,0.2l-0.5,1l0.8,1l0.3,2
		l-3.9,4.9l-1.6,0.3l-3.9-2.3l-1.6,0.8l-0.7,1.3l-1.8,0.7l-0.5,0.8h-3.1l-0.8-0.8l-2.9-0.2l-1.6,0.7l-4.1-3.9l-3.4,0.8l-1.1,2.1
		l-1,3.4l-2,1l-1.3-1l0.5-4.2l-2.4-2.9l-0.3-2.4l-1.5-1.6v-2.1l-1-2l-1.1-0.3l1.1-2.1l-0.3-1.8l1-1v-0.8l-0.7-0.7l2.4-4.9l3.1,0.3
		l0.7-0.7l-0.2-17.7h4.1l0.7-0.7v-7.8h47.2l1,3.3l-0.8,1.1l0.7,4.4l1.5,5.2l3.4,2.4l-1.5,1.6l-2.8,0.7l-1.6,1.5l-2.3,9.1l0.3,1.8
		l-0.7,3.4l-1.6,3.9l-2.4,2.1l-2.1,4.7l-2,1.5L829.5,1187.2L829.5,1187.2z"/>
	<path fill="#C6E4EA" d="M399.7,1154.3v-1l-0.8-1.1l0.7-0.7l0.3-1.6l-0.2-2.4h2.8l3.3,1l0.5,1.1l2.1,0.3l0.5,1.3l1.6,0.2l1.3,1
		l-0.7,0.8l-1.8-0.8h-3.1l-2.1,1l-1.3-0.8l-1.6,0.8l-1.3,2.3L399.7,1154.3L399.7,1154.3z"/>
	<path fill="#C6E4EA" d="M866,1182l-0.8,1.1l-1-0.3l-2.4,0.2l-0.3-1.6l2.4-3.3l1.3,0.3l1.3-0.7l0.3,1.6l-2,0.8l-0.2,1.1L866,1182
		L866,1182z"/>
	<path fill="#C6E4EA" d="M742.2,975.2l-2,3.6l-3.4-2.6l-0.3-1.5l4.9-1.6L742.2,975.2z M734.7,970.6l-0.5,1l-1.5-0.2l-2.9,4.1
		l0.8,2.8l-1.8,0.7l-2.6-0.7l-1.5-2.8l-0.2-5.5l1.6-2.8l3.3-0.3l1.8-1.8l2.1-1.1v1.8l-1.1,2.3l0.5,1.6L734.7,970.6L734.7,970.6z"/>
	<path fill="#80B725" d="M743.5,1018.1l-0.8-0.7l-2-0.2l-3.1,1l-3.4-0.2l-1,1l-1.5-1l-1.6,0.2l-4.2-1.5l-1.5,1.1H722l0.3-2.9l2-3.4
		l-0.5-1l-5.7-1l-1.5-1.1l0.2-2l-0.8-1.5l0.5-3.6l-0.7-4.9l2.3-0.3l1-2.1l1.1-5.2l-0.7-2l0.5-0.7l2.8-0.2l0.5,0.8l1,0.2l2.8-2.8
		l-0.8-4.9l2.3,0.5l2.1-0.7l0.5,2l3.6,1.1v1.5l0.8,0.7l4.1-1l2.1-1.5l4.2,2l1.8,1.6l0.8,2.3l-1,1.1v0.8l1.5,1.8l1,2.6l-0.2,2.1
		l1.3,2.8l-2.4-0.2l-1,1l-7.3,3.4l-0.3,0.8l1.1,3.7l4.2,3.6l-1.1,1.8l-1.3,0.7l-0.3,0.7L743.5,1018.1L743.5,1018.1z"/>
	<path fill="#C6E4EA" d="M865.7,1166.5l0.5-0.7l-0.3-1.6l0.3-2.4l1.5-1.1l-0.2-2.3l0.7-1.3l1.6,0.8l5.4-0.5l6.2,0.7l1.6,1.3l2.3-1
		l2.8-4.2l3.6-1.8l11.2-1.5l4.1,8.8l-2.6,1.3l-1,3.1l-10.1,3.6l-3.7,2.9l-3.1,0.2l-2.3,1.6l-6.8,1.1l-2.8,2.4l-5.4,0.3l-0.8-2v-2.4
		L865.7,1166.5L865.7,1166.5z"/>
	<path fill="#D3D50E" d="M759.4,1013.7v3.6h-1.8l-0.5,1l0.7,0.8l-1.6,3.4l-3.3,0.2l-2.1,1.1l-8.6-1.6l-0.8-1.5l-0.7-0.3l-4.1,0.8
		l-0.7,0.8l-5.2-1.3l0.7-1.5l1.8,1.3l1-0.3l0.3-1l3.1,0.2l3.1-1l1.6,0.2l1.1,1l1-0.2l0.5-1.3l-0.5-2.9l1.3-0.7l1.1-1.8l2.4,1.5
		l0.8-0.2l2.1-2l1-0.3l2.9,1.5l2.1-0.2L759.4,1013.7L759.4,1013.7z"/>
	<path fill="#C6E4EA" d="M724.4,1071.7l-0.5,1.8l0.7,4.2l-0.8,3.6l-2.6,2.9l0.7,3.9l3.1,2.6l0.3,1.3l2.3,1.6l2.9,11.7l0.2,2l-1,8.1
		l0.3,2.4l-1.5,1.6v0.8l2.3,3.1l0.2,2l1.5,2.4l0.8,0.3l1.6-0.7l2.8,1.8l1.3,2l-13.3,7.8l-11.7,8.3l-5.5,1.8l-3.7,0.3l-0.5-2.6
		l-4.2-1.8l-1.1-2l-42.5-29.1v-5.7l6.2-3.1l3.9-0.7l3.4-1.3l1.8-2.3l4.6-1.8l0.7-3.4l2.1-0.5l1.6-1.5l5.7-1.1l0.8-1.8l-0.2-0.8
		l-1-0.8l-1.3-4.6l-0.3-2.9l-1.3-2.4l3.3-2.1l4.2-0.8l2.8-2l3.7-1.3l13.3-1.1l2.4,0.7l3.7-1.8h4.1l1.5,1L724.4,1071.7L724.4,1071.7z
		"/>
	<path fill="#50A631" d="M1458.8,926.5l2.1,0.8l2.3-0.7l3.1,1.6l3.1,0.7l-2.1,1l-4.7-2.4l-3.4,0.3l-0.5-0.3L1458.8,926.5
		L1458.8,926.5z M304.3,1010l0.7,2.4l1.8,1.5l6.8,1.1l3.9,1.6l3.6-0.7l3.1,0.8l-2.6,1l-5.7,4.2l-0.3,1.3l0.8,0.7l3.7-1l2.9,1.6
		l8.3-3.9l-0.5,1l0.3,1l2.3,0.7l2.8,2l7.6-1.5l1.1,1.5l2.1,0.3l1,1l-2.1,0.3l-3.6-0.5l-5.9,1.5l-4.4,5.2l0.7,1.5h1l0.8-1l-2.3,7.5
		l0.5,5l1.1,2.6l1,0.8l2.9-0.7l2.6-3.3l0.2-3.6l-1.3-3.3l0.2-1.8l2-3.9l0.7-0.5l0.8,1.3l0.7-0.5l0.7-2.3l1-0.8l0.3-1.3l2.8,0.8
		l2.6,1.8v3.9l-2.1,1.8v1.8l1.5,0.7l2.8-2.1l0.8,0.3l0.8,4.2l-4.1,6.2l0.3,1l2.4,1l2.4,0.3l3.1-0.7l7.6-3.4l3.6-2.9l-0.2-2l1.3-0.3
		l6.3,0.7l3.4-1.8l0.3-0.7l-0.5-2.4l5.4-3.9h13.5l1-1.3l3.1-1.3l1.5-2.4l1.1-3.9l2.6-3.3l1.5,1l2.4-0.8l1.3,1.1v6.7l3.3,4.2
		l-3.7,2.1l-8.8,3.4l-2.9,4.4v2.9l1.3,2.6l0.8,0.3l-10.1,1.5l-3.6,1.5l-0.3,0.8l0.7,0.5l4.9-0.8l-3.6,1h-1.8l-0.2-0.5l-0.8,0.2
		l-1.3,1.3l0.3,1.1l0.5,0.2l-0.7,2.6l-2.1,2.6l-2.4-1.8h-0.8l-0.3,0.8l0.8,2.6l1,1v1.3l-1.5,2.3l-2-2l-0.5-3.7l-0.7-0.7l-0.7,0.3
		l-0.8,2.1l0.5,2.3l-1.6-0.5l-0.8,0.3l0.3,0.8l2.4,1.3l0.2,4.1l1.3,0.8l0.8,5.5l-2.3,3.1l-4.1,1.3l-2.8,2.8l-2.1,0.3l-2.1,1.6
		l-0.7,1.6l-4.4,2.9l-4.2,4.9l-0.7,3.4l0.7,3.4l1.5,3.9l1.8,3.1v2l2,5l-0.3,4.4l-1,2.3l-0.8,0.3l-1.5-0.3l-0.8-2l-1.5-1l-4.6-8.5
		l0.8-2.8l-1.1-2.9l-3.3-3.9l-1.8-0.8l-4.4,2l-2.4-2.3l-2.6-1.1l-4.9,0.5l-3.6-0.5l-3.3,0.3l-1.8,0.8l-0.3,1l0.7,1l0.2,2.1l-1.3-0.3
		l-1.3,0.8l-2.6-0.2l-3.4-2.3l-3.4,0.5l-3.1-1l-6,1.3l-3.9,3.4l-4.1,2l-2.3,2.3l-1,2.3l0.5,6h-0.5l-5.7-2.1l-2-5l-2.3-2.4l-3.6-5.9
		l-2.9-1.8h-3.7l-2.8,3.4l-2.9-1.1l-2-1.1l-2.4-4.9l-6.3-5.2h-7l-0.7,0.7v1.1h-10.6l-14.6-5l-0.5-1.1l-9.3,0.8l-0.7-2.1l-2.6-2.6
		l-1.8-0.7l-1-1.5l-2.1-0.2l-1.6-1.3l-3.6-0.5l-0.7-0.5l-0.7-2.6l-3.9-4.6l-3.3-6.3l-0.2-1.5l-4.7-5.4l-0.5-3.7l-2.1-2.8l0.8-3.9
		l-0.2-4.2l-1.3-3.7l1.5-4.6l1-9.3l-0.8-7l-2.4-6.7l5.2,1.3l2.1,4.6l1.1,0.2l1.1-1.8l-1.8-7.8H303l0.7-0.7L304.3,1010L304.3,1010z
		 M58.9,875l2.8,3.3h0.8l1.6-1.3l6,0.3l-0.2,1l0.5,0.8l6.2,1.3l4.2-0.7l8.5,2.3l7.8,0.7l3.1,1l5.5-1.1l9.9,3.1v62l0.7,0.7l3.9,0.2
		l3.7,1.6l6.3,6.5h1l3.9-3.3l3.6-1.6l2,2.8l6.3,5l6.7,10.7l6.8,3.7l0.2,2.9l-1.6,2l-2-1.8l-3.3-1.6l-1.1-4.7l-5.4-4.9l-2.8-5.9
		l-10.3-0.5l-4.6-1.6l-8.6-6.2l-11.1-3.3l-5.5,0.3l-7.8-2.8l-5.2-2.6l-4.6,1.3l-0.5,0.8l0.7,3.6l-6.3,1.6l-3.7,2.1l-3.7,1l-0.5-2.6
		l1.6-5.5l4.1-1.8l0.3-1l-1.1-1.6l-1-0.2l-5.2,3.4l-2.9,4.2l-5.9,4.2v1l2.6,2.4l-3.4,3.7l-8.3,4.2l-1.3,2.8l-6.2,2.9l-1.5,2.8
		l-4.4,2.3l-2.9-0.3l-11.2,5.4l-6.5,1.5l7.8-4.1l4.2-3.1l5.4-0.8l2-2.3l5.5-3.4l4.2-3.7l0.7-4.4l2-3.4v-0.8l-0.5-0.3l-4.4,1.6
		l-1-0.8h-0.8l-1.8,1.6l-2.3-2.4l-1.1,0.2l-0.5,1l-1-1.8l-1-0.3l-3.9,2.3h-1.8l-0.3-2.9l0.5-2.8l-2.6-2.1l-5.5,1l-3.3-2.6l-2.6-1.3
		l-0.3-3.6l-2.8-2.3l1.3-3.1l3.3-3.4l1.5-3.1l2.8-0.3l3.3,0.8l3.1-2.9l3.1,0.3l3.1-2l0.3-0.7l-0.8-2.9l-1.8-1.1l2.3-2l0.2-0.7
		l-0.7-0.5l-2.8,0.2l-4.4,1.5l-1.3,1.3l-3.1-1.3l-5.7,0.7l-5.5-1.5l-1.8-2.6l-4.2-3.3l4.7-2.3l8.9-3.3h2.4l-0.5,2.6l0.7,0.8l8.6-0.3
		l0.5-1.1l-3.3-4.2l-5-2.8l-2.9-3.4l-3.9-2.9l-5-2l1.6-2.8l6.8-0.2l5.5-3.4l1.1-3.7l3.9-3.3l3.9-0.8l7.6-3.3l4.1,0.3l6-3.9L58.9,875
		L58.9,875z M67.4,965.9l-3.6,2l-1.6-1.1l-0.5-2l5.2-2.6l2.3,0.3l1.1,1.1L67.4,965.9L67.4,965.9z M56.7,1145.9l1.6,0.8l1.1,1.5
		l-2.9,1.8l-0.7-2.4L56.7,1145.9L56.7,1145.9z M53.9,1142.8l0.3,0.2h0.2h-0.3L53.9,1142.8L53.9,1142.8z M47.1,1139.7L47.1,1139.7
		l0.3,0.3h-0.2L47.1,1139.7L47.1,1139.7z M15.8,949.3L14,950l-3.6-1.8l2.4-0.7l2.6,0.5L15.8,949.3z"/>
	<path fill="#C6E4EA" d="M802,964.9l1.6,1.1l0.3,2.8l1.1,2.9l-6,2.8l-3.6-2.6l-2.1-0.5l-1.1-1.3l-3.9,0.5l-6.8-0.3l-4.1,1.5l0.2-3.3
		l1.8-3.4l3.3-1.6l3.4,4.2l3.3-0.2l0.7-0.5l0.7-4.1l2.9-0.8l5,2.8L802,964.9L802,964.9z"/>
	<path fill="#80B725" d="M472.9,1371.6l-1.5,2.4l-4.2,2.3l-2.8-0.8l-2.3,0.5l-3.9-2l-2.4,0.2l-2.1-2.1l0.3-2.4l1-1.3v-4.4l2-7.6
		l2-0.3l3.9,3.3h1.8l7.2,5.2l2,2.6l-1.6,2.4L472.9,1371.6L472.9,1371.6z"/>
	<path fill="#C6E4EA" d="M836.5,1087.3l-1.5,0.8l2.9-5.7l1,0.2l0.3,1l-1.8,1.5L836.5,1087.3L836.5,1087.3z"/>
	<path fill="#C6E4EA" d="M1128.1,1169.5l-2.9-1.1l-0.8,0.2l-1.5,2.4l-2.1-1l1-1.6l0.2-3.6l-3.3-3.9l-0.3-4.2l-3.1-3.4l-3.6-0.5
		l-1.3,1.5l-1.8,0.2l-1.6-0.7l-3.4,2v-2.6l1-4.4l-0.7-0.8l-2.1-0.2l-0.2-2l-1.6-1.5l3.3-3.1l0.7,0.7l2.1,0.2l0.7-0.8l-0.5-4.4
		l1.1-0.3l2.1,2.9l1.8,3.9l0.7,0.3h4.6l1.1,2.8l-2.3,1l-1.1,1.5l0.2,1l4.7,2.4l5.9,8.5l3.1,2.9l1,2.6L1128.1,1169.5L1128.1,1169.5z"
		/>
	<path fill="#C6E4EA" d="M1184.3,1134l-1.1,2.4l-1.5-2.4l-0.3-2.8l2.3-3.9l2.8-2.8l1,0.7L1184.3,1134L1184.3,1134z"/>
	<path fill="#D3D50E" d="M440,1187l0.5-2l1.8-0.3l-0.2,2L440,1187z"/>
	<path fill="#D3D50E" d="M841.3,1050.7l5.9,2l4.9-0.7l3.4,0.5l5-2.6l4.1-0.2l3.6,2.1l0.5,1.3l-0.3,2.1l0.3,0.7l3.7,1.8l-2,1
		l-0.3,0.8l1.3,5.2l-0.7,2l1.8,3.1l-0.8,0.3l-1.5-1.1l-4.7-0.7l-2,0.8l-6.8,0.7l-4.6,1.6h-3.1l-2.4-0.8l-4.2,1.3l-1.1-0.8l-1,0.5
		l-0.2,2.3l-1.5,1.3l-0.8-1.1l1.3-2.1l-0.7-0.3l-2.3,0.3l-3.3-1l-3.3,2.6l-5.7,0.5l-3.4-2.4l-4.4-0.2l-1.5,2l-2.3,0.5l-3.7-2.3h-4.4
		l-2.3-4.2l-2.8-2.4l1.8-3.3l-0.2-0.8l-2.1-1.8l3.9-3.9l6-0.2l2.1-3.6l7.3,0.7l5.2-3.3l4.6-1.3l6.5-0.2L841.3,1050.7L841.3,1050.7z
		 M801.6,1052.6l-2.8,2.1l-0.8-1.5l2.3-4.2l-1.1-1.5l2.8-1l2.9,0.5l0.8,2l2.9,1.3l-4.7,0.5L801.6,1052.6L801.6,1052.6z"/>
	<path fill="#C6E4EA" d="M1021.7,1202.8l-2.9,0.8l-1.6-2.8l-0.7-5.7l1.6-5.5l2,1.6l3.7,6.8l-0.5,3.7L1021.7,1202.8L1021.7,1202.8z"
		/>
	<path fill="#C6E4EA" d="M735.3,1071.3l-1.6,2.1v2.1l1.3,1.5l-0.5,3.4l-2.4,2.1l-0.2,0.7l0.8,2.4l2.3,0.5l0.8,1.8l1.5,0.8l-0.2,2.8
		l-5.7,4.2l-0.2,3.9l-1,0.5l-1.6-7.3l-2.4-2l-0.3-1.3l-3.1-2.6l-0.3-2.9l2.4-2.6l1-3.7l-0.7-4.6l0.7-2l4.1-1.6l2.1,0.5l-0.2,1.8
		l1,0.7L735.3,1071.3L735.3,1071.3z"/>
	<path fill="#C6E4EA" d="M1201.3,1266.1l-0.2-1.6l7.3-1.5l-4.6,2.1L1201.3,1266.1L1201.3,1266.1z"/>
	<path fill="#C6E4EA" d="M906,1047.8v0.5l-0.2-0.3L906,1047.8z M910.6,1046l0.8-0.2l2.4,1.1l3.4,3.9l6.7-0.3l0.7-0.8l-0.5-2l3.1-1.5
		l3.1-2.6l4.7,2.3l0.7,4.1l2,1.1l4.2-0.2l1,0.7l2.1,5l7.3,5.5l4.4,2.4l5,1.8v1.8l-2.1-1.3l-1,0.3l-0.5,1.3l-3.6,1.3l-0.8,3.4l-2,1.1
		l-3.1,0.7l-1.1,2.1l-2.6,0.5l-3.6-1.5l-0.3-3.6l-0.7-0.7l-2.8-0.2l-4.6-4.1l-3.4-0.7l-4.6-2.4l-2.9-0.5l-2,0.8l-2.6-0.2l-3.3,2.8
		l-2.8,0.7l-0.7-2.6l0.7-4.9l-0.3-0.7l-2.8-1.3l0.8-2.8l-0.5-0.8l-2-0.2l0.7-2.6l3.6,1l3.6-1.5l0.2-1l-2.9-2.8L910.6,1046
		L910.6,1046z"/>
	<path fill="#C6E4EA" d="M978.8,1056.1l-4.1-0.7l-0.8,0.5l-0.3,2.8l0.7,0.7l4.2-0.3l5.2,1.6l7.2-0.7l1,3.9l0.8,0.5l1.1-0.3l1.8,0.8
		l0.3,3.4l-6.2-0.3l-2.9,2.1l-2.9,1.1l-1-1l0.3-3.6l-1-0.8l-0.2-1.5l-2.3-1.1l-0.8,0.2l-1.8,1.6l-0.8,2.4l-2.1-0.2l-1.6,2l-1.5-0.7
		l-3.1,1.1l2.1-4.6l-0.8-3.6l-2.8-1.3l0.5-1.1h3.6l2-2.6l1.3-2.9l3.9-0.8l-0.5,1.6L978.8,1056.1L978.8,1056.1z"/>
	<path fill="#C6E4EA" d="M805.1,1356.6l-0.8,0.2l-2.4-2.8l1.8-2.3l3.6-2.3l2.4,2.1l-1.6,2.9l-2,0.7L805.1,1356.6L805.1,1356.6z"/>
	<path fill="#80B725" d="M1096.7,1181.3l-2.3,6.3l0.3,3.3l0.7,0.7l2.3,0.2l1.5,3.3l0.8,3.7l2.3,2.3l2.6,0.7l1.6,1.6l-0.8,1l-1.8,0.3
		l-0.5-2l-3.3-1.8l-1,0.3l-1-1l-0.8-2.1l-4.2-4.2l-1.1,0.7l1.6-6.3L1096.7,1181.3L1096.7,1181.3z M1097.4,1179.7l-1.5-3.6l-0.5-4.2
		l-3.4-5l1.1-0.8l1.5-4.2l-5.9-8.9l1.5-0.8l1.6-4.2l2.8-0.3l4.2-2.6l1.3,1l0.2,2.3l0.7,0.7l2,0.2l-0.8,3.7v3.9l1,0.5l3.9-2.3
		l1.3,0.7l2.4-0.2l1.1-1.5l2.4,0.2l2.8,3.1l0.3,4.2l3.1,3.4l-0.2,3.1l-1,1.5l-3.6-0.5l-5.5,1.1l-2.6,3.4l0.7,4.2l-2.4-1.3h-2.9
		l0.5-2.4l-0.7-0.8h-3.6l-0.7,0.7l-0.3,4.4L1097.4,1179.7L1097.4,1179.7z"/>
	<path fill="#C6E4EA" d="M977.1,1449.2l-5.2,0.3v-2.1l0.7-2.3l2.1,1.3l3.4,0.7L977.1,1449.2L977.1,1449.2z"/>
	<path fill="#C6E4EA" d="M694,1184.3l-0.2,2l2.4,2.4l0.2,1.8l0.8,1l-0.2,9.1l0.8,2.4l-2.1,0.7l-1.6-3.4l-0.3-1.8l0.8-3.6l-1-2
		l-0.3-6l-1.6-2.3l0.2-0.5L694,1184.3z"/>
	<path fill="#C6E4EA" d="M787.6,1148.3l0.2,15.6l-3.4,0.2l-1.8,3.1l-1.1,2.6l0.5,1.1l-1.1,1.5l0.3,1.5l-1.5,3.3l0.8,0.8l1-0.2l0.5,1
		v2.3l1.5,1.6l-2.4,0.7l-2.1,1.6l-2.9,4.6l-3.6,1.8l-3.7-0.2l-1.5,0.3l-0.5,0.8l0.3,1l-3.4,2.8l-4.7,1.5l-1.8-1l-1.1,1.1l-1.8,0.2
		l-1.8-5l-2-1l-2-2l0.5-1h4.9l0.5-1l-2.1-3.6l-0.2-5.4l-1.6-2.8l0.3-1.6l-0.7-0.8h-2v-2l-1.6-1.8l1.6-4.9l5.2-4.2l0.2-5.4l1.6-8.5
		l0.8-1.8l-0.2-0.8l-1.5-1.3l-0.3-1.6l-1.3-1l-0.8-5.9l3.4-2L787.6,1148.3L787.6,1148.3z"/>
	<path fill="#C6E4EA" d="M792.9,1095.6l-1.3,1.8l0.5,2.3l-1,2.9l1.1,3.4v39.2h-4.1l-0.7,1.5l-31.6-15.9l-7.2,3.7l-2.3-2.1l-6.2-1.8
		l-1.8-2.6l-3.3-2l-2,0.5l-1.1-1.8l-0.3-2.1l-2.1-2.8l1.5-2l-0.2-7l0.7-3.7l-1.5-5.5l1.8-1.3l0.3-2l-0.3-1.6l5.7-4.2l0.5-3.1
		l3.9,1.3l2-0.3l3.3,0.7l5,2l2.3,4.1l9.3,2.8l4.2,2.3l2.6-1.1l2.1-2.1l-0.7-3.7l1.1-1.8l2.8-2l2.6-0.7l5,0.8l1.8,2.1l6.5,1.3
		L792.9,1095.6L792.9,1095.6z"/>
	<path fill="#C6E4EA" d="M902.3,1129.6l3.1-0.7h6.2l7.8-7.8l0.3,0.7l0.5,2.6h-1.3l-0.7,0.7l-0.2,3.3l-1.3,1v1.6l-1.1,1.6l-0.7,2.3
		l-11.6-2L902.3,1129.6L902.3,1129.6z"/>
	<path fill="#D3D50E" d="M397.9,1182.8l0.8,1.3v1.8l-1.8,2.9l1.5,3.3l0.7,0.3l2.3-0.7l1-2.9l-1.3-2l-0.2-2.4l4.6-1.5l0.5-0.8
		l-0.5-1.6l0.5-0.5l1.1,2.1l3.3,0.5l2.3,2l0.2,1.1l0.7,0.7l7.8-0.3l2.4,1.8l3.1,0.5l2.8-1.3l0.3-1l5.5-0.2l-0.3,0.8l1.5,2l3.6,0.7
		l2.8,1.8l0.7,3.1l0.7,0.5l2.4,0.3l-2.8,2.3l-0.3,1.5l1,1.6l-2.8,0.8l-0.5,0.7v1.6l-1,1v0.8l3.1,3.7l-1.1,1.1l-7.3,2.1l-1.1,0.8
		l-6-1.5l-1.1,0.5v1.1l1.5,0.8l-0.2,2.4l0.7,2.6l0.7,0.5l2.8,0.3l-2.1,0.8l-0.8,1.8l-4.4,1.5l-1,1.3l-2.6,0.2l-2-1.8l-1.3-4.1
		l-2-2.1l1.6-2l-2.1-4.9l0.3-2.6l1.6-3.6l-0.3-0.8l-1.8-0.8l-6.5,0.7l-2.9-3.4l-2.6-0.5l-4.9,0.3l-1.8-1.6l0.3-2l-0.3-1.6l-1-1.1
		l-0.5-1.8l-1.8-0.7l1.3-4.6L397.9,1182.8L397.9,1182.8z"/>
	<path fill="#C6E4EA" d="M983.6,1072.5l-2.6,2.1l-0.2,0.8l1.3,3.7l-1.8,1.6v2.1l-0.8,1.1l-3.6-0.2l-0.7,1l1.3,2.4l-2.3,1.1l-1.8,2.8
		l0.2,2.8l-1.1,0.8l-1.5-0.3l-3.1,0.7l-0.8,1.3l-3.1,0.2l-2.3,2.6l-0.3,3.7l-4.7,1.6l-2.8-0.3l-1.1,1l-2.3-0.5l-3.9,0.7l-5.7-2
		l3.3-3.9l-0.3-2.9l-0.5-0.5l-2.6-0.7l-0.3-2.6l-1.3-3.3l1.6-2.3l-0.3-1l-1.1-0.5l2.4-7.8l3.4,1.5l3.4-0.7l1.1-2.1l2.9-0.7l2.4-1.5
		l1-3.7l3.1-0.8l0.8-1.3l1.5,1l3.4,0.2l4.1,1.5l3.3-1.3l1.1,0.7l1-0.2l1.1-1.8l2.6-0.2l1.1-2.8l1.3-1.1l1.3,0.7l-0.3,1l1.1,1
		l-0.2,3.9L983.6,1072.5L983.6,1072.5z M984.6,1072.2l2.8-1.1l2.3-2l6.5,0.7l-3.6,1.1L984.6,1072.2L984.6,1072.2z"/>
	<path fill="#C6E4EA" d="M869.9,1070.2l1.3,1.1l2.1-0.5l2.4,5l2.6,1.5l0.2,2l-2,1.8l-0.8,4.1l2.8,4.4l5,2.6l2,3.1l-0.7,3.1l0.7,0.8
		h0.7v1.8l1.3,1.5l-4.1-0.2l-2.8,3.9l-7-0.3l-11.4-8.9l-6-3.1l-4.7-1.1l-1.3-4.7l8.9-4.9l1.6-5.5l-0.3-3.3l2.1-1.1l2-2.8l1.5-0.7
		L869.9,1070.2L869.9,1070.2z"/>
	<path fill="#C6E4EA" d="M631.2,908.3l-0.7,4.2l4.1,4.1l-4.7,4.6l-15,5.5l-15-2.8l2.8-2l-0.2-1.1l-6.5-2.4l4.9-0.8l0.5-0.7l-0.2-2
		l-0.5-0.7l-7.6-1.3l2.1-3.3l5.7-1l6.2,4.4h0.7l5.9-3.6l5.4,1.8l6.5-3.6L631.2,908.3L631.2,908.3z"/>
	<path fill="#C6E4EA" d="M874.1,1069.6l-2.1-3.4l0.7-1.6l-1.1-4.9l1.6-0.8l0.5,1.3l2.1,2.3l3.3,0.8l1.8-0.3l4.7-3.4l1-0.2l0.7,0.8
		l-1.1,2l0.2,0.8l2.6,2.4h1.1l1.1,2.9l4.2,1.3l3.1,2.4l6,0.8l6.3-1.3l0.8-1.1l3.6-1l2.8-2.4l2.4,0.2l2-0.8l2.6,0.3l4.6,2.4l3.1,0.5
		l4.6,4.1l2.9,0.3l0.3,3.3l-2.8,8.9l0.3,0.8l1,0.3l-1.3,2.4l1.3,3.6l0.3,2.8l0.5,0.5l2.6,0.7l0.3,2.1l-3.6,3.9v0.8l3.6,4.9l3.7,2
		l0.2,3.4l2,1.1l0.2,1.1l-5.4,2.1l-1.8,4.9l-15.8-2.8l-1.6-4.9l-2.3-1.1l-3.6,0.8l-4.1,2.1l-4.6-1.3l-4.1-3.3l-3.9-1.3l-5.5-9.9
		l-0.8-0.3l-2,0.7l-2.3-1.3l-0.8,0.2l-1.1,1.1l-1.6-1.6v-2.1l-1.1-0.7l0.5-2.9l-2.1-3.4l-5-2.6l-2.6-3.9l0.8-3.1l2.1-2.1l-0.3-2.8
		l-2.8-1.8L874.1,1069.6L874.1,1069.6z"/>
	<path fill="#C6E4EA" d="M880,1061.7h-0.5l-2-3.4h-1.5l-1-1.1l-1.1-0.2l-1.6-1.3l-2.6-1l0.3-1.8l-0.5-1.3l4.4-0.7l1.8,1.6l-0.3,1.5
		l1.6,1.3l-0.8,1l0.2,1l3.3,2L880,1061.7L880,1061.7z"/>
	<path fill="#D3D50E" d="M741,1023.2l5.7,1.5l-0.3,2l0.5,1.3l-2.4-0.3l-3.3,1.8l-0.3,0.7l0.2,2.4l-0.3,1.8l1.3,2.6l3.9,2.6l2.1,4.1
		l4.6,3.9l3.3,0.2l0.3,0.3l-0.7,0.5l0.2,1.1l6.5,3.3l3.6,2.9l-0.3,0.7l-2-1.8l-3.6-0.8l-0.7,0.3l-1.6,3.1l0.2,0.8l2.6,1.6l-0.3,1.6
		l-1.8,0.5l-2,3.7l-0.7,0.2v-0.5l1.6-4.1l-2.8-5.2l-1.8-0.8l-1.5-2.1l-2.4-0.8l-2.1-2l-2.9-0.3l-6.7-5.2l-2.6-2.6l-1.6-5.2l-5.7-2.3
		l-2.1,0.8l-2.8,2.3l0.3-1.1l-0.5-0.8l-1.8-0.5l-0.8-3.3l1.1-1.3v-0.8l-1-2l1.3,0.7l2.3-0.3l1.8-1.3l0.8,0.7l2-0.2l1.3-2l2.4,0.5
		l2.3-1l0.7-1.8l1.8,0.5l1.1-1l3.3-0.7L741,1023.2L741,1023.2z M753.4,1065.7l-1,2.6l0.5,1.8l-0.5,1.5l-2.4-1.5l-7.5-2.6l0.3-1.3
		l4.4,0.3L753.4,1065.7L753.4,1065.7z M728.5,1051.5l2,2.8l-0.5,5.4h-1.8l-1.3,1.1l-0.8-0.7l-0.2-5.5l-0.7-2h1.6L728.5,1051.5
		L728.5,1051.5z"/>
	<path fill="#C6E4EA" d="M1129.8,1139.7l-4.4,2.9l-3.4,4.1l-1,3.1l7,10.6l3.7,2.6l2.3,3.1l1.8,7.5l-0.5,6.8l-3.1,2.4l-4.6,2.6
		l-3.4,3.4l-4.4,3.4l-1-1.6l1-2.4l-0.2-0.8l-2.1-1.6l2.4-1.1l4.1-0.3l0.5-1l-1.3-1.8l6.5-3.4l0.5-5l-1-2.9l0.7-4.4l-1.1-3.3
		l-3.1-2.9l-5.9-8.6l-4.4-2.4l0.7-0.8l2.4-1l0.3-0.8l-1.6-3.7l-0.7-0.3h-4.6l-3.6-6.3l1.3-0.7l7.2-0.5l3.4-2.1l2,1.5l3.1,0.7
		l-0.3,2.4l2.1,2L1129.8,1139.7L1129.8,1139.7z"/>
	<path fill="#50A631" d="M411.9,1463l-3.7-0.8l-9.4-0.7l-1.5-2.8l0.2-3.9l-0.8-0.7l-2.3,0.3l-1.1-1.5l-0.3-5l3.1-2.4l1.3-3.3
		l-0.3-2.8l2.1-4.4l1.5-6.7l-0.3-2.8l1.5-0.8l0.3-0.7l-0.5-2l-1.6-1.1l1-1.5l-0.2-0.8l-1.6-1.8l-0.8-5l1.6-1.5l-0.7-5.9l2-8.8
		l2.3-1.6l0.3-0.7l-1.3-4.6v-3.9l2.9-2.9l0.2-4.2l2.3-4.7v-4.2l-1.1-1.1l-1.8-7.3l2.4-4.4l-0.3-4.6l1.5-3.9l2.6-4.1l2.8-2.6v-0.8
		l-1-1.3l0.7-1.5l-0.2-6.8l4.4-2.3l1.5-4.6l-0.3-1.1l2.9-3.3l4.7,1l2.3,2.9l1.1-0.2l1.5-3.1l3.9,0.2l8.1,7.8l3.6,0.8l4.9,3.1
		l4.1,1.6l0.3,1.3l-3.9,6.3l0.3,1l8.8,2l3.4-0.7l4.1-3.6l0.8-3.9l1.3-0.5l1.6,2v2.9l-6,4.1l-4.7,4.4l-5.5,6.3l-2.1,8.3v4.4l-0.8,1.1
		l-0.7,5.4l5,4.2l-0.3,3.4l2.3,1.8l-0.2,1.8l-3.7,5.7l-5.7,2.4l-8,1l-4.4-0.5l-0.7,0.8l0.8,2.6l-0.8,3.4l0.7,2.3l-2,1.3l-3.9,0.7
		l-3.7-1.6l-2.3,1.3l0.7,5.9l2.8,1.5l2.3-1.1l0.7,1.3l-3.3,1.5l-3.3,3.1l-1.6,7.5l-3.7,0.2l-3.4,2.9l-1,4.6l4.1,3.7l3.6,1l-1.1,3.7
		l-4.6,2.8l-2.8,6.3l-3.6,2l-2,2.8l1.3,6.2L411.9,1463L411.9,1463z M423.9,1479.3l-3.3,0.3l-2.3-2l-6.2-0.2v-9.4l2.6,4.9l5.4,3.4
		l5,1.3L423.9,1479.3L423.9,1479.3z"/>
	<path fill="#80B725" d="M1154.6,1339.8h0.5l0.3-0.8l-0.8-2.3l1.5,1.8l0.8,0.2l0.5-0.7l-0.2-2.6l-3.3-5.9l1.8-5.4l-0.3-2.6l0.5-1
		l0.7,1.8l0.7-0.3l1.6-2.8l3.1-1.3l2.1-2l2.9-1.5l1.6-0.3l1.5,0.5l3.1-1.6l2.4-0.5l1.6-1.3h2.3l4.6-1.3l2.3-2l1.1-2.4l2.3-2.1
		l0.5-4.2l2.1-2.6l1.3,2.8l0.8,0.3l1.8-0.8l0.3-1l-1.1-1.6l0.8-1.1l1.3,0.7l1-0.5l0.5-2.9l3.1-3.4l1.8-0.7l0.5-1l1,0.3l0.8-1.1
		l3.1-1l2.8,1.6l2.1,2.4l5.5,0.7l0.7-0.8l-0.8-2l1.6-2.9l1.6-1l0.2-0.8l-0.3-0.7l1.5-2l2.1-1.3l2.1,0.5l3.4-0.8l0.5-0.7v-2.1
		l-1.5-1.3l2.4,1l2.3,1.8l3.4,1.1l1.3-0.3l2.3,1.1l2.8-1.1l1.3,0.3l1-0.5l1.1,1.3l-2.1,3.1l-1.1,0.2l-0.5,0.8l0.3,1.5l-2.4,3.7
		l0.2,1.6l3.6,2.8l3.3,1.3l4.9,3.9l3.3,1.1l0.8,1.5l4.4,1.3l2.9-1.8l3.4-9.8l-0.7-5.9l0.5-2.8l0.8-1.5l-0.5-1.1l1.8-5.4l0.8-0.8
		l0.7,1.1l0.3,2.4l1.1,0.8l0.3,1.6l1.3,2l0.2,3.9l1.5,3.3l1,0.3l2.1-1.3l2.8,2.8l-0.3,1.8l0.8,3.6l0.7,2.1l1.1,0.8l1,3.3l-0.3,2.4
		l1.3,2.9l9.8,6l-0.2,1.3l2.3,2.6l1.6,4.6l1,0.3l1.1-0.7l1.3,1.5h1l0.8,3.9l7.8,7.6l1.1,3.3l-0.2,5.4l1.8,3.6l-0.2,3.6l-1.8,6v2.6
		l-0.8,3.1l-1.6,3.9l-3.1,2.4l-2.8,5.7l-3.9,9.9l-0.3,4.6l-1.8,1.3l-4.6,0.2l-3.7,2l-4.1,3.6l-5-2.6l0.5-1.8l-0.8-0.8l-3.6,1.3
		l-3.3,3.1l-11.6-3.6l-2.4-2.6l-1.8-6l-2.4-2.1l-2.9-0.5l1-2l-1-3.4l-1.1-0.2l-1.8,2.9l-1.5,0.3l1-1.3l0.7-2.4l1.5-2.1l-0.2-3.7
		l-1.1-0.3l-3.3,3.7l-2.4,1.5l-1.5,3.3l-2.1-1.3v-2.4l-2.6-3.3l-1.8-1.5l0.3-0.5l-0.2-1l-5.2-2.8l-2.9-0.2l-4.1-2.1l-7.5,0.5
		l-9.8,3.1l-4.1-0.2l-4.2,2.3l-3.4,1l-2.4,4.2l-5.7,0.5l-3.7-0.8l-5.7,0.7l-2.6,2.4h-1.3l-3.9,2.6l-5.4-0.2l-6-3.6v-1.6l2-0.8
		l0.8-1.5l0.3-4.9l-0.5-2.6l-2.1-4.7l-0.7-2.4v-2.8l-1.6-2.8l-0.3-1.6l-1.6-1.6l-0.5-3.3L1154.6,1339.8L1154.6,1339.8z
		 M1283.4,1405.2l4.4,1.6l5.2-1.6l1.8,0.2l0.3,5l-1.3,1.8l-0.3,2.6l-1.5-0.3l-2.6,3.1l-2.8-0.3l-2.3-3.9l-0.7-3.3l-2.3-4.1v-1.3
		L1283.4,1405.2L1283.4,1405.2z"/>
	<path fill="#80B725" d="M832.3,1095.4l0.7-1.3l0.3,0.7l-0.5,1.6l0.8,0.7l1.1-0.3l-1.5,5.9l-2-5.4l1-1.1V1095.4L832.3,1095.4z
		 M833.9,1091l0.7-1.6h1l0.8-0.8l-0.8,2.4l-1-0.3L833.9,1091L833.9,1091z"/>
	<path fill="#D3D50E" d="M1020.4,1101.9l-2,1.6l-1.6,4.1l0.3,0.8l13,6.3l5.5,0.7l2.6,2.3l8,1.5h3.6l0.7-0.5l0.5-2l-0.5-2.6l0.2-1.5
		l1.3-0.5l0.8,4.1l3.7,1.6l2.9-0.7l6.7,0.2l0.7-0.7l0.3-2.8l-0.8-1l2.3-0.5l3.6-3.3l4.4-2.6l3.1,1l2.9-1.6l1.3,1.8l-1.1,1.5l0.5,1
		l3.9,0.7l0.2,0.8l-1.3,1.3l0.2,1.8l-2.4-0.5l-5.2,3.1l-0.2,2.9l-2.1,3.4l-0.3,2.3l-1.5,2.9l-2.6-0.8l-0.8,0.7l-0.2,4.2l-1,1.8
		l0.3,1.3l-0.8,0.5l-2-6l-1.8-0.5l-0.7,0.5l-0.3,1.6l-1.1-1.1l0.8-1.8l2-0.5l2-3.6l-0.3-1l-2.6-0.8l-7-0.5l-0.3-2.6l-0.5-0.7
		l-1.8-0.2l-3.1-1.8l-1,0.3l-1.6,3.1l0.2,0.8l2.3,1.8l-1.8,1.1l-1.1,1.8l0.3,1l2,1l-0.5,2.4l1.3,3.1l0.7,3.3l-0.3,1l-7.5,0.8
		l-0.5,0.7l0.2,2.9l-2,2.3l-6,2.9l-4.6,4.9l-7,5.4l-0.3,2.1l-7.6,2.9l-1.3,3.6l1,8.6l-1.8,4.1v6.3l-2,0.5l-1.8,3.1l0.7,1.3l-2.8,0.8
		l-1.6,2.9l-1.1,0.8l-3.4-3.3l-3.4-9.8l-3.6-5.9l-1.6-7.8l-3.7-5.9l-2.9-13.3v-5l-0.8-4.1l-0.8-0.5l-5.7,2.4l-2.4-0.5l-4.7-4.6
		l1.3-1.1l0.2-0.8l-1.1-1.6l-4.4-3.4l2-2.1h8.6l0.7-0.8l-0.8-3.7l-2.3-2.4l-0.5-3.1l-2.3-2l3.7-3.9l4.9,0.2l4.2-4.7l2.6-4.6l3.9-4.4
		l0.2-3.3l3.3-2.4v-1l-3.1-2.1l-1.3-2.9l-1.3-3.6l1.5-1.5l5.9,1l4.7-0.7l3.7-3.6l3.7,4.7l-0.3,3.4l1.6,2.6v1.3l-2-0.5l-0.8,0.8
		l1.1,5l4.2,3.3L1020.4,1101.9L1020.4,1101.9z"/>
	<path fill="#C6E4EA" d="M812.5,1247.4l4.6-5v-1.3l-1-2.1l1.1-0.8l0.2-2.4l-1.3-2l0.5-0.2h3.7l-0.8,4.6l1.3,2.1l0.8,0.2l1.6-0.8
		l2-0.2l1,0.3l2.3-1l0.2-1.1l-1.1-1l2.6-2.8l14,8l0.5,2.4l5.4,3.7l-1.6,4.6l0.2,2.6l2.6,1.8l-1,2.9v3.7l3.1,6.5l1,0.7l-2.4,1.8
		l-4.2,1.5h-2.3l-1.8,1.3l-3.7,0.7l-4.7-1.1l-1.3,0.2l-1-1.3l-0.5-4.6l-2.1-2.3l-5.2-1.3l-6.5-2.6l-2-3.9l-0.5-2.9l-2.9-2.4l0.7-1.6
		l-0.7-1.5l0.2-1.6l-0.8-1L812.5,1247.4L812.5,1247.4z"/>
	<path fill="#C6E4EA" d="M883.7,1051l2.1,0.5l3.1-2.9l3.7,5.4l2.3,0.7l-2.1,0.2l-0.5,0.5l-1.3,5l-1.6,1.6v1.8l-2.1-1.8l1.1-2v-0.8
		l-1.1-1.5l-2.4,0.2l-3.7,2.8v-2.1l-3.3-2.3l0.8-1l-0.2-1l-1.6-1.3l0.5-0.7l-0.2-1l-1.8-1.5l3.1,1.1l2.8,0.2l0.7-1.5l-1.3-2.3
		l0.7,0.2L883.7,1051L883.7,1051z M874.8,1059l1,0.8h1.1l1,1.8l-1.1-0.2L874.8,1059L874.8,1059z"/>
	<path fill="#C6E4EA" d="M665.4,985.4l0.7,3.4l-2.9,4.6l-6.8,3.1l-4.6-0.7l2.8-4.9l-2-5.7l7.5-6l0.5,1.8l-0.8,2.8l0.7,0.8h2.4
		L665.4,985.4L665.4,985.4z"/>
	<path fill="#80B725" d="M1237,1233.6l1.1,6.5l4.6,2.9l0.8-0.2l3.3-4.2l4.4-2.3h3.3l6.3,2.8l4.1,0.8l0.2,24.6l-2.9-2.4l-4.1-0.8
		l-1.5,1.1l-3.7,0.2l1.1-2.1l2.4-1l0.3-0.8l-1.1-4.4l-2-3.6l-8.1-3.7l-3.4-0.3l-6-3.7l-0.8,0.2l-1.1,1.8l-0.8,0.2l-0.8-3.1l-2-1.3
		l2.9-1h2.8l0.7-0.8l-0.3-1.1l-0.7-0.5h-5.7l-1.8-2.4l-3.4-0.7l-0.8-1l4.4-0.8l2.1-1.3l6,1.5L1237,1233.6L1237,1233.6z
		 M1239.4,1253.7l-1,1.3l-0.2-1.3l1-1.8L1239.4,1253.7L1239.4,1253.7z M1222.3,1241.9l0.5,1.1l-2-1l-7.6-0.2l0.5-1l4.6-0.2
		L1222.3,1241.9L1222.3,1241.9z M1211.9,1229.2l-1.1-4.7l1-3.3l0.7,1.5l2,0.3l0.3,1.1l-0.2,2.8l-1.3-0.3l-0.8,0.5L1211.9,1229.2
		L1211.9,1229.2z M1208.7,1242.7l-0.8,0.7l-2.1-0.7l-0.3-0.7l2.8-0.2L1208.7,1242.7L1208.7,1242.7z M1180,1228l-0.3,3.3l3.6,3.6h0.8
		l2.1-1.8l4.6-0.8l-1.5,2l-3.4,1.5l-0.3,1l3.6,4.9l-0.5,1.8l2.3,2.8l-3.7,1.5l-0.5-0.5l0.2-2l-2.6-2.1l0.3-3.6l-1-0.7l-2.8,1.3
		l-0.3,0.7l0.5,10.1l-1.8,0.3l-1.1-0.8l1-3.6l-0.7-3.9l-0.7-0.5h-1.3l-1-2.1l1.6-2.6l0.5-3.3L1180,1228L1180,1228z M1191.7,1247.2
		l0.7,0.8v2.1l-1.5,0.8l-0.8-0.8L1191.7,1247.2L1191.7,1247.2z M1192.4,1232.1h0.5v0.2L1192.4,1232.1L1192.4,1232.1z M1180.5,1227.2
		l0.3-0.5l3.1-2.8l2.9,1.1l5.2,0.7l4.7-0.2l3.9-2.8l-2.8,3.4l-2.8,0.7l-3.9-0.8l-6.8,0.2L1180.5,1227.2L1180.5,1227.2z
		 M1194.8,1270.3l1.8-3.1l3.3-1.3l0.2,1l-2.4,2.8L1194.8,1270.3z M1190.9,1262.9l-0.2,0.7l-5.7,1.1l-4.7-0.5v-0.3l2.4-0.7l2.8,1.1
		l2.8-0.3L1190.9,1262.9L1190.9,1262.9z M1182.5,1269.9h-1l-3.7-2l1.8-0.3L1182.5,1269.9L1182.5,1269.9z M1171.6,1262.7l1.5,0.8
		l2.1-0.3l0.3,0.5l-7.6,1.1l0.7-1.1h2L1171.6,1262.7L1171.6,1262.7z M1164.1,1243.2l-0.7-0.3l-4.1,1.6l-1.8-2.3l-2.8-0.2l-2-1.3
		l-4.9,1.3l-1.8-1.8l-5.4-0.2l-0.5-4.9l-2.1-1.6l-1.8-3.3l-0.5-3.4l0.5-3.4l1.5-1.6l0.7,2l3.4,2.4l2.4-0.8l2.9,0.2l2.3-2l1.6-0.3
		l3.7,1.1l3.7-0.8l2.4-5.9l1.6-1.6l1.3-4.2l6.7,0.5l-1.8,2.9v0.8l2.8,3.6l-0.3,2.3l3.4,2.8l-3.7,0.7l-1.5,3.1l0.2,3.3l-3.9,3.1
		l-0.2,4.1L1164.1,1243.2L1164.1,1243.2z M1133.2,1256.5l0.5,0.5l7.8,0.3l1.3-1.6l6.8,1.8l1.8,2.8l6,0.8l3.4,1.6l-2.9,1l-4.6-1.6
		l-7.8-0.2l-8.5-2.3l-2.9-0.3l-1.8,0.5l-7-1.6l-1.1-1.8l-2.6-0.2l2-2.6l4.4,0.2l4.7,1.8L1133.2,1256.5L1133.2,1256.5z M1121.6,1252
		h-3.6l-3.4-3.3l-5.2-3.3l-4.7-5.7l-5-8.6l-3.6-3.4l-2.6-6.7l-3.7-2.8l-2.1-3.4l-3.3-2.4l-4.1-4.4l-0.2-1.1l7.8,0.8l3.6,3.9l5.4,4.4
		l3.7,4.4l4.4,0.3l3.3,2.6l2.4,3.6l2.6,1.6l-1.3,2.8l0.3,0.8l2.3,1.5l1.3,0.2l0.7,2.6l1.5,2.3l3.3,0.7l1.6,2.1l-1,4.9L1121.6,1252
		L1121.6,1252z"/>
	<path fill="#C6E4EA" d="M807.6,1029.4l2.1-4.1l2.9,0.3l1.1-0.3l0.2-1.1l-0.3-1.3l-1.3-1.1l-0.5-2l-1.5-1v-2l-1.8-1.5l-1.8-0.3
		l-3.3-1.6l-2.8,0.5l-1.1,0.8h-1.8l-1.3,1.3l-4.1,1.1l-2-1.1l-5-0.7l-1.5,0.7l-0.3-0.8l-1.8-1.1l0.5-1.5l2.1-1.6l-0.8-2l3.3-3.9
		l2.3-1l0.3-2l-1.6-3.9l1.3-0.2l2.1-1.3l2.9-0.2l4.1,0.5l4.7,1.3l3.1,0.2l1.5,0.7l1.6-0.7l1.3,1.1l3.6-0.2l1.5,0.5l0.8-0.5l0.2-2.4
		l1-0.8l4.7-0.2l1.3-1.1l4.9-0.3l2,2.4l-0.8,1.3l0.3,1.6l0.7,0.5l2.9,0.2l1.5,3.4l5.2,1.8l3.1-0.7l2.8,2.4h2.3l5.4,1.6v0.8l-1.6,2.6
		l0.8,3.3l-0.5,1.1l-3.9,0.5l-2.1,1.5l-0.3,2.3l-2.9,0.5l-2.6,1.6l-3.9,0.3l-3.6,2l-0.3,0.7l0.5,3.7l2,1.3l3.4-0.2l-0.2,0.5
		l-4.4,0.8l-5.2,2.8l-1.5-0.7l0.7-1.8l-0.3-0.8l-3.6-1.1l3.7-1.8l0.2-1l-1.5-1.3l-5.9-1.1l-0.2-1.5l-0.8-0.5l-4.2,1l-1.5,2.8
		l-2.8,3.3l-1.5-0.7L807.6,1029.4L807.6,1029.4z"/>
	<path fill="#C6E4EA" d="M900,1125.7l-1.3-0.3l-0.2-2.6l1.3-2.1l0.8,0.8v2.1L900,1125.7L900,1125.7z"/>
	<path fill="#C6E4EA" d="M833.8,1283.7l-0.5-4.2l0.8-3.3l5.7,1l4.1-0.7l1.6-1.3h2.4l4.4-1.6l2.8-2l0.8,15l0.7,2l-1.1,2.8l-1.5,2.8
		l-2.4,2.8l-8.5,3.7l-4.6,4.4l-1.6,0.8l-2.8,2.9l-1.6,1l-0.5,3.9l2,3.1l0.8,3.6l0.7,0.5l-0.2,3.4l-0.7,2l0.8,1.1l-0.3,1.1l-1.5,1.3
		l-8.3,3.9l-2,2.3l0.3,1.8l1,0.7l-0.2,1.1h-2l-1.1-4.9l0.7-5l-2.9-8.8l4.1-4.6l1.1-3.1l0.7-0.7l0.5-2.4l-0.7-1.5l1-6v-5.4l-2.4-2
		l-2-0.3l-2.8-2h-3.1l-0.5-3.4l11.6-3.3l2.1,1.8l1.5-0.2l1.1,0.7l0.2,1.1l-0.8,2.1l0.3,2.9l2.9,2.9l1-0.2l1.1-2.6l2-1.5l-0.5-5.7
		l-1.6-2.9L833.8,1283.7L833.8,1283.7z"/>
</g>
</svg>
